<ttFont>
          <CharString index="0">
            rmoveto
            -55 -28 -62 -68 -94 112 callgsubr
            239 hlineto
            return
          </CharString>
          <CharString index="1">
            hhcurveto
            -46 -40 -105 callgsubr
            70 return
          </CharString>
          <CharString index="2">
            -106 callsubr
            26 66 87 return
          </CharString>
          <CharString index="3">
            -312 hlineto
            -104 callgsubr
            return
          </CharString>
          <CharString index="4">
            -102 callgsubr
            202 -47 callgsubr
            -50 callgsubr
            return
          </CharString>
          <CharString index="5">
            -80 callsubr
            -32 -19 rlineto
            -115 39 68 -190 149 hhcurveto
            77 43 57 64 62 -30 59 -53 46 hvcurveto
            return
          </CharString>
          <CharString index="6">
            hhcurveto
            -89 -46 70 65 72 50 76 96 50 33 -26 -21 18 hvcurveto
            19 28 rlineto
            23 -24 -45 44 -74 hhcurveto
            return
          </CharString>
          <CharString index="7">
            -74 callsubr
            -87 -72 -68 -90 -34 callgsubr
            hvcurveto
            -76 callsubr
            return
          </CharString>
          <CharString index="8">
            39 callgsubr
            89 40 -86 -65 -81 -52 -27 -62 -23 -24 4 6 -24 hvcurveto
            18 -47 rlineto
            -7 22 23 -3 21 hhcurveto
            80 66 45 87 99 -80 125 -118 -24 callsubr
            return
          </CharString>
          <CharString index="9">
            rmoveto
            92 278 11 44 107 -322 rlineto
            -79 386 rmoveto
            -14 -15 -2 -6 -10 hvcurveto
            -180 -532 -9 -27 -18 -20 -49 -6 rlinecurve
            -2 -5 -2 -9 -7 vvcurveto
            173 hlineto
            2 6 2 8 7 vvcurveto
            -23 2 -26 4 -24 11 55 164 rcurveline
            -1 228 vlineto
            52 -159 -18 -12 -24 -5 -26 -4 rlinecurve
            -3 -5 230 callgsubr
            189 hlineto
            3 6 1 8 1 7 -45 4 -27 13 -12 38 rrcurveto
            endchar
          </CharString>
          <CharString index="10">
            -44 -101 callgsubr
          </CharString>
          <CharString index="11">
            -67 callsubr
            29 -6 -7 20 vhcurveto
            -360 vlineto
            -97 callgsubr
          </CharString>
          <CharString index="12">
            hhcurveto
            -57 -76 44 61 24 21 13 16 10 hvcurveto
            59 38 122 56 73 vvcurveto
            66 -65 75 -81 -64 -45 -49 -47 -35 14 -33 44 -37 vhcurveto
            22 19 rlineto
            -21 17 -15 26 20 vvcurveto
            44 38 33 52 46 32 -38 -38 return
          </CharString>
          <CharString index="13">
            36 27 -105 123 rlineto
            27 22 18 27 22 vvcurveto
            33 -35 54 -36 -33 -34 -25 -31 -22 15 -28 17 -25 vhcurveto
            0 -27 -31 -67 return
          </CharString>
          <CharString index="14">
            -1 -222 -97 callgsubr
          </CharString>
          <CharString index="15">
            -81 -55 -59 -73 -124 108 -59 124 3 hvcurveto
            -59 -44 -58 -37 -86 hhcurveto
            -115 -102 103 76 -45 hvcurveto
            66 5 41 43 54 vvcurveto
            return
          </CharString>
          <CharString index="16">
            -29 callgsubr
            -178 hlineto
            35 callgsubr
            19 -4 24 -10 rrcurveto
            -498 vlineto
            -30 -15 -9 -48 -6 vhcurveto
            -3 -5 -1 -9 1 -7 rrcurveto
            178 hlineto
            42 callsubr
            return
          </CharString>
          <CharString index="17">
            hhcurveto
            -82 -53 45 69 65 62 20 59 24 25 -4 -2 16 hvcurveto
            -18 52 rlineto
            4 -23 -24 2 -24 hhcurveto
            -12 -12 -1 -2 -12 hvcurveto
            -30 22 -33 31 -1 44 rrcurveto
            49 39 42 53 13 vhcurveto
            53 -46 callgsubr
            return
          </CharString>
          <CharString index="18">
            -306 hlineto
            -79 callgsubr
            return
          </CharString>
          <CharString index="19">
            -1 37 -2 33 -4 29 -41 -9 -14 callsubr
            -334 -90 callgsubr
            278 vlineto
            66 28 47 39 65 hhcurveto
            57 36 -36 -71 hvcurveto
            -247 vlineto
            -31 -15 -73 callsubr
            1 -21 callsubr
            -20 4 -26 11 rrcurveto
            return
          </CharString>
          <CharString index="20">
            32 -48 rlineto
            return
          </CharString>
          <CharString index="21">
            18 24 29 -85 callgsubr
            return
          </CharString>
          <CharString index="22">
            rmoveto
            -127 -8 rlineto
            102 18 69 41 54 hhcurveto
            60 58 -37 -98 hvcurveto
            48 -35 rmoveto
            3 3 3 5 2 3 rrcurveto
            122 -70 68 -96 -84 -123 -74 -172 -159 103 -72 92 74 56 34 48 42 vhcurveto
            -5 13 rlineto
            -35 -49 -49 -17 -54 hhcurveto
            -102 -55 79 125 10 0 10 1 9 hvcurveto
            endchar
          </CharString>
          <CharString index="23">
            259 371 rmoveto
            -44 25 -44 40 50 vvcurveto
            61 39 38 55 75 33 -71 -74 43 callgsubr
            -20 -18 25 -33 108 -138 147 -168 rlinecurve
            41 29 -63 65 -115 125 -29 42 rlinecurve
            -1 10 10 -1 10 hhcurveto
            105 99 75 139 92 -66 115 -107 -76 -47 -57 -69 -72 64 -61 57 -28 hvcurveto
            return
          </CharString>
          <CharString index="24">
            255 callsubr
            -36 callsubr
            38 84 vhcurveto
            return
          </CharString>
          <CharString index="25">
            rmoveto
            55 24 27 29 39 vvcurveto
            30 -25 24 -26 -21 -14 -10 -20 vhcurveto
            -24 34 -10 -19 vvcurveto
            -21 -21 -19 -22 -11 vhcurveto
            return
          </CharString>
          <CharString index="26">
            rmoveto
            46 -47 48 47 -48 46 rlineto
            return
          </CharString>
          <CharString index="27">
            -82 callgsubr
            -113 -57 185 94 -32 vhcurveto
            return
          </CharString>
          <CharString index="28">
            -243 hlineto
            -69 callsubr
            return
          </CharString>
          <CharString index="29">
            hvcurveto
            29 27 75 56 49 vvcurveto
            75 -69 62 -83 -67 -55 -53 -62 -71 57 -44 39 -28 vhcurveto
            -81 -62 -68 -54 -68 vvcurveto
            -93 93 -83 91 35 32 17 8 12 vhcurveto
            81 -117 44 27 -99 107 rlineto
            20 16 14 22 20 vvcurveto
            37 -38 41 -28 -25 -28 -20 -29 -24 15 -19 13 -20 vhcurveto
            -16 -13 -22 -7 -28 hhcurveto
            -66 -57 48 58 68 84 59 67 53 hvcurveto
            return
          </CharString>
          <CharString index="30">
            rmoveto
            122 -1 46 87 100 hhcurveto
            100 50 -87 -122 2 hvcurveto
            -121 2 -46 -83 -100 hhcurveto
            -100 -50 83 121 -3 hvcurveto
            351 hmoveto
            139 -74 100 -128 -123 -79 -101 -138 -136 68 -102 134 123 79 102 136 vhcurveto
            return
          </CharString>
          <CharString index="31">
            30 21 rlineto
            -103 callgsubr
            return
          </CharString>
          <CharString index="32">
            hlineto
            11 -16 9 -12 12 -20 rrcurveto
            83 -209 hlineto
            -30 -17 -46 -18 -37 hhcurveto
            -30 -67 15 33 -39 hvcurveto
            38 30 23 30 39 vvcurveto
            77 -63 91 -89 -55 -59 -26 -47 -44 vhcurveto
            36 -37 rlineto
            52 53 49 11 33 hhcurveto
            47 50 -36 -57 -79 -99 -49 -69 -25 hvcurveto
            27 -44 29 11 34 16 31 21 rlinecurve
            49 -39 22 -45 -56 vvcurveto
            -67 -49 -52 -85 -104 -71 138 88 -38 vhcurveto
            -29 -15 rlineto
            -90 36 83 -167 143 hhcurveto
            return
          </CharString>
          <CharString index="33">
            -23 -32 -22 hvcurveto
            28 -24 -49 30 -53 hhcurveto
            return
          </CharString>
          <CharString index="34">
            -10 -51 -5 vhcurveto
            -1 -6 -1 -10 1 -7 rrcurveto
            186 hlineto
            return
          </CharString>
          <CharString index="35">
            rmoveto
            174 callgsubr
            -59 -41 53 66 hvcurveto
            218 236 vlineto
            return
          </CharString>
          <CharString index="36">
            41 29 rcurveline
            -63 65 -115 125 -29 42 rrcurveto
            134 -17 100 94 135 vvcurveto
            95 -70 112 -103 -72 -51 -57 -69 -69 61 -56 58 -24 vhcurveto
            476 270 rmoveto
            -286 -102 callgsubr
            78 -586 hlineto
            44 callgsubr
            endchar
          </CharString>
          <CharString index="37">
            -46 -20 -15 -33 -24 -21 14 21 -22 vhcurveto
            return
          </CharString>
          <CharString index="38">
            -27 -39 -1 -24 -39 62 -72 37 20 3 20 28 hvcurveto
            331 return
          </CharString>
          <CharString index="39">
            -101 callsubr
            -88 -83 -67 -110 return
          </CharString>
          <CharString index="40">
            -81 callgsubr
            26 return
          </CharString>
          <CharString index="41">
            -18 callgsubr
            -47 66 -72 -60 callsubr
            78 return
          </CharString>
          <CharString index="42">
            -92 hlineto
            -72 -9 -37 -68 -69 vvcurveto
            -89 52 -60 68 -57 vhcurveto
            37 callgsubr
            -19 52 rlineto
            7 callsubr
            return
          </CharString>
          <CharString index="43">
            12 8 8 14 hvcurveto
            return
          </CharString>
          <CharString index="44">
            50 -27 29 -41 -32 vvcurveto
            return
          </CharString>
          <CharString index="45">
            394 579 rmoveto
            17 -42 -49 14 -61 hhcurveto
            -97 -76 -55 -89 hvcurveto
            -184 293 28 -165 vvcurveto
            -71 -59 -52 -79 -85 -62 33 112 2 vhcurveto
            2 -6 -4 0 -5 hhcurveto
            -6 -38 -4 -45 2 -49 rrcurveto
            -30 51 47 -14 61 hhcurveto
            117 79 65 98 hvcurveto
            192 -295 -30 155 vvcurveto
            65 43 41 76 74 47 -32 -69 13 vhcurveto
            -2 3 7 0 5 hhcurveto
            6 33 3 32 1 38 rrcurveto
            return
          </CharString>
          <CharString index="46">
            627 -54 callgsubr
            return
          </CharString>
          <CharString index="47">
            39 -64 callsubr
            return
          </CharString>
          <CharString index="48">
            -1 callsubr
            36 -40 rlineto
            47 25 40 46 50 vvcurveto
            69 -56 86 -116 -33 -32 -10 -16 -28 vhcurveto
            -18 18 -26 30 41 109 callgsubr
            endchar
          </CharString>
          <CharString index="49">
            rmoveto
            -41 -9 -39 -12 -38 -16 -48 callsubr
            return
          </CharString>
          <CharString index="50">
            14 callsubr
            -9 3 -10 vhcurveto
            return
          </CharString>
          <CharString index="51">
            -102 callgsubr
            214 121 callgsubr
            return
          </CharString>
          <CharString index="52">
            hvcurveto
            70 -26 -51 82 -105 hhcurveto
            -33 -44 -15 -36 -38 hvcurveto
            36 -39 rlineto
            18 16 42 25 40 hhcurveto
            78 41 -52 -58 -94 -65 -49 -86 -98 -93 148 35 -24 hvcurveto
            return
          </CharString>
          <CharString index="53">
            rmoveto
            43 -2 39 -5 32 vhcurveto
            -41 -8 -14 callsubr
            -333 vlineto
            -31 -16 -10 -52 -6 vhcurveto
            -1 -6 -1 -10 1 -7 rrcurveto
            225 166 callgsubr
            -39 2 -35 6 -35 14 rrcurveto
            222 vlineto
            113 15 100 33 59 hhcurveto
            5 20 0 21 -4 11 rrcurveto
            -71 -71 -51 -83 -33 hvcurveto
            return
          </CharString>
          <CharString index="54">
            -32 48 rlineto
            return
          </CharString>
          <CharString index="55">
            rmoveto
            -1 -6 -1 -8 -8 vvcurveto
            27 -2 17 -5 19 -7 -163 -257 rcurveline
            -7 -11 -8 -16 -5 -14 rrcurveto
            -1 hlineto
            -147 265 -18 33 10 9 53 5 rlinecurve
            8 -1 7 -3 7 vhcurveto
            -170 hlineto
            -6 2 -8 1 -8 vhcurveto
            15 -2 19 -4 18 -6 190 -335 rcurveline
            -166 11 callgsubr
            179 hlineto
            2 6 1 9 6 vvcurveto
            -25 2 167 callsubr
            207 vlineto
            181 286 22 35 13 8 35 5 rlinecurve
            2 8 1 7 243 callsubr
          </CharString>
          <CharString index="56">
            193 callsubr
            82 76 61 88 return
          </CharString>
          <CharString index="57">
            hhcurveto
            -44 -53 27 30 -36 hvcurveto
            return
          </CharString>
          <CharString index="58">
            6 15 16 1 13 hhcurveto
            94 63 -166 -77 30 hvcurveto
            84 -46 -103 72 -88 hhcurveto
            -26 -26 -6 -13 -24 hvcurveto
            33 -42 rlineto
            9 20 19 5 20 hhcurveto
            return
          </CharString>
          <CharString index="59">
            rrcurveto
            -2 -7 -13 callgsubr
            -332 -90 callgsubr
            return
          </CharString>
          <CharString index="60">
            2 13 12 1 10 hhcurveto
            39 21 -15 -27 -34 -24 -20 -49 -31 -27 6 14 -32 hvcurveto
            -13 -15 rlineto
            -19 39 24 -9 47 hhcurveto
            76 39 42 41 32 -26 27 -53 hvcurveto
            return
          </CharString>
          <CharString index="61">
            rmoveto
            -1 -7 1 -9 2 -7 72 -4 11 -18 -16 -39 -112 -288 rcurveline
            -4 -9 -3 -10 -2 -9 -138 359 rcurveline
            23 10 25 6 26 2 rrcurveto
            8 -1 8 -2 7 vhcurveto
            -188 hlineto
            -1 -8 1 -8 1 -7 47 -4 13 -11 15 -38 154 -382 rcurveline
            -51 -108 rlineto
            -47 -24 -17 -10 -34 hhcurveto
            -16 hlineto
            -3 -16 3 -20 7 -15 rrcurveto
            11 hlineto
            53 30 31 85 34 hvcurveto
            214 525 15 4 16 4 14 2 rlinecurve
            3 8 1 8 243 callsubr
          </CharString>
          <CharString index="62">
            77 callgsubr
            vhcurveto
            -3 -187 -60 callgsubr
          </CharString>
          <CharString index="63">
            -79 -46 -52 -64 -92 77 -71 58 hvcurveto
            -52 callgsubr
            return
          </CharString>
          <CharString index="64">
            -33 42 rlineto
            187 callsubr
            -98 -89 73 93 127 98 33 64 hvcurveto
            return
          </CharString>
          <CharString index="65">
            -20 callsubr
            97 callgsubr
            return
          </CharString>
          <CharString index="66">
            rmoveto
            280 393 6 9 -1 13 -2 8 rlinecurve
            -325 hlineto
            -7 -42 -4 -43 -40 vvcurveto
            -4 6 6 -1 5 hhcurveto
            72 11 22 29 72 hhcurveto
            153 hlineto
            -287 -396 -3 -9 -2 -10 1 -9 rlinecurve
            343 hlineto
            7 43 4 42 41 vvcurveto
            3 -6 -6 1 -5 hhcurveto
            -73 -11 -22 -27 -72 hhcurveto
            endchar
          </CharString>
          <CharString index="67">
            141 callgsubr
            62 52 30 60 49 vhcurveto
            -93 callsubr
          </CharString>
          <CharString index="68">
            hlineto
            -95 callgsubr
            return
          </CharString>
          <CharString index="69">
            rmoveto
            -34 -30 -48 -16 -49 -11 callgsubr
            260 vlineto
            return
          </CharString>
          <CharString index="70">
            -32 callgsubr
            77 return
          </CharString>
          <CharString index="71">
            -37 callsubr
            45 return
          </CharString>
          <CharString index="72">
            29 38 11 23 28 hvcurveto
            -267 vlineto
            54 -44 -64 callgsubr
            return
          </CharString>
          <CharString index="73">
            -5 29 -5 34 33 vvcurveto
            return
          </CharString>
          <CharString index="74">
            rmoveto
            36 25 26 32 46 vvcurveto
            44 -28 19 -17 -17 -14 -11 -19 vhcurveto
            -30 34 -10 -30 vvcurveto
            -21 -10 -15 -23 -18 vhcurveto
            return
          </CharString>
          <CharString index="75">
            rmoveto
            201 callsubr
            -142 123 -111 247 callgsubr
            -41 -54 -61 -50 28 -40 13 -13 hvcurveto
            64 callsubr
            128 184 167 hlineto
            -281 -430 rmoveto
            78 callgsubr
            -19 21 -12 30 30 vvcurveto
            return
          </CharString>
          <CharString index="76">
            hlineto
            2 41 -1 40 -3 40 rrcurveto
            1 -6 -7 0 -6 hhcurveto
            -68 -7 -16 -26 -68 hhcurveto
            endchar
          </CharString>
          <CharString index="77">
            -42 callgsubr
            128 -306 hlineto
            -33 0 -20 23 -17 vhcurveto
            82 -63 72 -49 53 -39 rrcurveto
            58 -43 35 -31 -25 vvcurveto
            -25 -11 -16 -13 -14 vhcurveto
            46 -34 rlineto
            15 17 15 27 27 vvcurveto
            21 -7 35 -44 31 vhcurveto
            -202 147 rlineto
            -53 41 -13 -2 63 vvcurveto
            308 261 -206 vlineto
            -61 -19 -31 -42 -28 vhcurveto
            40 -40 rlineto
            53 37 24 40 76 vvcurveto
            213 156 vlineto
            return
          </CharString>
          <CharString index="78">
            233 callsubr
            endchar
          </CharString>
          <CharString index="79">
            rmoveto
            -79 callgsubr
            return
          </CharString>
          <CharString index="80">
            -3 callsubr
            -22 hlineto
            return
          </CharString>
          <CharString index="81">
            vvcurveto
            -94 53 -104 76 -100 vhcurveto
            -2 callsubr
          </CharString>
          <CharString index="82">
            -30 -15 -9 -48 -6 vhcurveto
            -2 -5 -1 -9 1 -7 rrcurveto
            return
          </CharString>
          <CharString index="83">
            -50 -52 99 callsubr
            return
          </CharString>
          <CharString index="84">
            rmoveto
            16 -10 150 136 rlineto
            8 vlineto
            -13 12 -22 11 -18 4 rrcurveto
            endchar
          </CharString>
          <CharString index="85">
            -74 -78 51 71 75 72 16 64 29 26 -3 -3 18 hvcurveto
            -18 51 rlineto
            3 -20 -21 2 -22 hhcurveto
            -23 -23 -2 -5 -22 hvcurveto
            -35 29 -26 33 38 vvcurveto
            59 47 41 43 11 vhcurveto
            return
          </CharString>
          <CharString index="86">
            50 callsubr
            -25 2 return
          </CharString>
          <CharString index="87">
            194 callgsubr
            33 -50 177 2 return
          </CharString>
          <CharString index="88">
            76 callsubr
            83 callgsubr
            return
          </CharString>
          <CharString index="89">
            -31 -28 -56 -34 -70 -37 hvcurveto
            -15 -8 -11 -11 -15 vvcurveto
            -84 108 -83 81 56 70 56 28 22 vhcurveto
            -1 -157 166 callsubr
            return
          </CharString>
          <CharString index="90">
            rmoveto
            -4 -39 1 -42 5 -37 5 -2 8 -1 4 1 rrcurveto
            69 6 19 25 66 hhcurveto
            91 -509 hlineto
            -30 -18 -9 -81 -6 vhcurveto
            -3 -5 0 -9 -7 vvcurveto
            248 hlineto
            2 6 0 8 7 vvcurveto
            -35 2 -32 6 -33 12 rrcurveto
            534 91 vlineto
            66 18 -25 -69 7 hvcurveto
            5 -1 6 1 6 2 4 37 1 42 -3 39 rrcurveto
            endchar
          </CharString>
          <CharString index="91">
            -102 callgsubr
            566 112 callsubr
            55 -42 -47 26 -53 hhcurveto
            -60 hlineto
            -83 callsubr
            68 hlineto
            58 35 -46 -19 15 hvcurveto
            71 -104 82 -97 96 -117 43 28 rcurveline
            -80 87 -86 99 -37 56 return
          </CharString>
          <CharString index="92">
            114 rlineto
            9 10 73 49 62 vvcurveto
            73 -52 73 -82 -61 -60 -48 -71 -63 40 -44 56 -34 vhcurveto
            -48 -35 -75 -42 -63 -31 42 -33 rcurveline
            66 32 70 41 58 41 return
          </CharString>
          <CharString index="93">
            -32 -12 -38 -15 rrcurveto
            -2 -6 -13 callgsubr
            return
          </CharString>
          <CharString index="94">
            146 callgsubr
            216 callgsubr
            113 -102 78 return
          </CharString>
          <CharString index="95">
            2 callsubr
            -22 vlineto
            -66 callsubr
            return
          </CharString>
          <CharString index="96">
            188 callsubr
            233 return
          </CharString>
          <CharString index="97">
            hhcurveto
            50 50 37 22 22 hvcurveto
            -7 -243 90 callsubr
          </CharString>
          <CharString index="98">
            45 -14 28 -28 28 vhcurveto
            -9 9 -10 10 -12 10 rrcurveto
            27 -31 -29 7 -34 hhcurveto
            return
          </CharString>
          <CharString index="99">
            rmoveto
            86 callsubr
            -65 -55 -40 -81 -41 17 -49 35 -36 hvcurveto
            -401 -42 callgsubr
            371 -122 41 callgsubr
            57 51 37 41 hhcurveto
            38 31 -28 -40 -90 -144 -48 -66 9 hvcurveto
            53 -40 -39 51 -23 hhcurveto
            -23 -21 -12 -17 -44 66 -50 66 -19 hvcurveto
            158 -185 37 26 -149 152 rlineto
            83 137 55 101 54 -59 80 -71 hvcurveto
            -40 -61 6 callsubr
            174 168 259 callsubr
            -152 hlineto
            -32 27 -18 39 138 callgsubr
          </CharString>
          <CharString index="100">
            vvcurveto
            73 44 29 54 15 12 -2 -4 14 vhcurveto
            return
          </CharString>
          <CharString index="101">
            -214 -200 rcurveline
            43 -30 275 277 rlineto
            -237 vlineto
            90 callsubr
          </CharString>
          <CharString index="102">
            rmoveto
            -49 39 -49 48 70 vvcurveto
            64 36 68 65 53 17 -54 -53 150 callsubr
            return
          </CharString>
          <CharString index="103">
            262 50 285 rmoveto
            -138 83 106 -159 188 93 callsubr
            -32 48 rlineto
            -877 -102 callgsubr
            214 -244 hlineto
            -43 -22 -18 -34 -24 -22 12 21 -21 vhcurveto
            177 10 rmoveto
            262 401 vlineto
            -53 callgsubr
            403 -45 rmoveto
            231 callsubr
            76 53 36 53 74 66 -57 -75 vhcurveto
            return
          </CharString>
          <CharString index="104">
            -102 callgsubr
            147 -278 return
          </CharString>
          <CharString index="105">
            27 20 rlineto
            -51 callgsubr
          </CharString>
          <CharString index="106">
            -33 callgsubr
            69 31 -40 -38 -40 -30 -48 -50 -23 vhcurveto
            return
          </CharString>
          <CharString index="107">
            -41 -8 -39 -12 -38 54 callgsubr
            23 0 22 -1 rrcurveto
            return
          </CharString>
          <CharString index="108">
            hhcurveto
            221 callsubr
            vlineto
            return
          </CharString>
          <CharString index="109">
            -9 callsubr
            -69 -102 callgsubr
            69 hlineto
            63 callgsubr
            return
          </CharString>
          <CharString index="110">
            -104 callgsubr
            -83 -70 -55 -86 return
          </CharString>
          <CharString index="111">
            -4 -1 -10 -7 vvcurveto
            return
          </CharString>
          <CharString index="112">
            rmoveto
            -56 -35 -21 -55 -56 -35 21 56 vhcurveto
            -19 hlineto
            -2 -7 0 -8 -9 vvcurveto
            -47 31 -52 81 81 31 52 48 8 0 8 -2 7 vhcurveto
            return
          </CharString>
          <CharString index="113">
            -38 -47 hhcurveto
            -45 -32 37 52 62 55 24 48 hvcurveto
            201 return
          </CharString>
          <CharString index="114">
            3 -15 -18 1 -19 hhcurveto
            -24 -25 122 callgsubr
            30 35 -39 callgsubr
            return
          </CharString>
          <CharString index="115">
            rmoveto
            -113 161 -18 -5 -23 -11 -12 -11 rlinecurve
            -9 vlineto
            150 -135 rlineto
            return
          </CharString>
          <CharString index="116">
            vvcurveto
            -47 66 -68 39 12 8 8 14 vhcurveto
            76 244 -253 vlineto
            -97 callgsubr
          </CharString>
          <CharString index="117">
            156 577 rmoveto
            152 -46 callgsubr
            -128 hlineto
            -10 32 -9 35 38 127 callgsubr
            23 -47 rlineto
            -49 callsubr
            72 69 -46 -63 45 hvcurveto
            -137 -102 callgsubr
            120 -583 hlineto
            56 -44 rlineto
            return
          </CharString>
          <CharString index="118">
            18 callgsubr
            endchar
          </CharString>
          <CharString index="119">
            106 51 71 76 54 -16 33 -21 30 hvcurveto
            -14 34 39 -16 36 hhcurveto
            31 28 8 18 24 hvcurveto
            -5 -314 56 -37 rlineto
            627 return
          </CharString>
          <CharString index="120">
            197 callgsubr
            78 -54 -46 66 -73 hhcurveto
            -50 -41 234 callsubr
            404 hlineto
            return
          </CharString>
          <CharString index="121">
            -95 callgsubr
            -9 1 return
          </CharString>
          <CharString index="122">
            hhcurveto
            -94 -53 50 58 69 59 14 52 27 26 -4 -2 13 hvcurveto
            return
          </CharString>
          <CharString index="123">
            -102 callgsubr
            403 return
          </CharString>
          <CharString index="124">
            270 430 -50 rmoveto
            71 callgsubr
            103 208 callsubr
            101 -99 79 34 43 16 33 36 vhcurveto
            -4 -248 rlineto
            -133 249 9 callgsubr
            return
          </CharString>
          <CharString index="125">
            rmoveto
            21 18 -13 -31 -32 -19 -13 -20 -20 -19 13 32 31 19 13 20 hvcurveto
            -110 vmoveto
            41 36 25 41 40 -36 25 -41 -41 -36 -25 -40 -41 36 -25 41 hvcurveto
            return
          </CharString>
          <CharString index="126">
            1 413 390 34 callgsubr
            -616 -102 callgsubr
            377 115 callgsubr
            return
          </CharString>
          <CharString index="127">
            rmoveto
            -344 70 callgsubr
            48 -16 28 -32 31 vhcurveto
            -25 23 return
          </CharString>
          <CharString index="128">
            -317 hlineto
            -82 callgsubr
            return
          </CharString>
          <CharString index="129">
            203 callgsubr
            44 46 67 hhcurveto
            64 28 -39 -43 26 hvcurveto
            21 24 rlineto
            179 callsubr
            -699 -102 callgsubr
            402 -323 hlineto
            -6 -6 -92 -100 -60 hhcurveto
            -62 -62 65 68 87 58 40 69 20 21 -3 -7 21 hvcurveto
            -17 47 rlineto
            9 -23 -24 4 -23 hhcurveto
            -83 -70 -55 -86 -92 85 -112 89 -10 hvcurveto
            endchar
          </CharString>
          <CharString index="130">
            24 407 424 rmoveto
            153 132 callgsubr
            -103 157 callsubr
            242 callgsubr
            131 callsubr
            109 -60 69 110 44 124 88 15 vhcurveto
            62 -84 -94 callsubr
            -79 -82 60 93 111 71 30 107 vhcurveto
            return
          </CharString>
          <CharString index="131">
            -6 -207 56 -41 rlineto
            -99 callsubr
            return
          </CharString>
          <CharString index="132">
            330 -38 callsubr
            return
          </CharString>
          <CharString index="133">
            27 20 rcurveline
            -51 callgsubr
          </CharString>
          <CharString index="134">
            157 -5 callsubr
            return
          </CharString>
          <CharString index="135">
            134 -17 100 94 135 vvcurveto
            95 -70 112 -103 -72 -51 -57 -69 -69 61 -56 58 -24 vhcurveto
            16 29 rlineto
            95 callgsubr
            -44 -40 21 27 -28 vhcurveto
            -20 -18 25 -33 108 -138 147 -168 rlinecurve
            41 29 -63 65 -115 125 -29 42 rlinecurve
            533 414 rmoveto
            -286 -102 callgsubr
            78 -586 hlineto
            44 callgsubr
            endchar
          </CharString>
          <CharString index="136">
            rmoveto
            86 callsubr
            -65 -55 -40 -81 -11 1 -12 2 -11 hvcurveto
            85 -88 -100 58 -92 -23 callgsubr
            123 -87 -105 91 vhcurveto
            -152 hlineto
            84 callsubr
            156 callsubr
            153 vlineto
            -33 48 rlineto
            -141 hlineto
            -34 36 -7 30 138 callgsubr
          </CharString>
          <CharString index="137">
            74 -111 86 -102 102 -124 -70 callgsubr
          </CharString>
          <CharString index="138">
            -50 -52 234 callsubr
            return
          </CharString>
          <CharString index="139">
            45 callgsubr
            -83 -70 -55 -86 return
          </CharString>
          <CharString index="140">
            -42 callgsubr
            106 216 callgsubr
            108 -97 78 return
          </CharString>
          <CharString index="141">
            -138 83 106 -159 188 hhcurveto
            return
          </CharString>
          <CharString index="142">
            rmoveto
            43 -30 308 289 181 callsubr
            28 21 rlineto
            178 callgsubr
            -685 -102 callgsubr
            100 -183 hlineto
            -103 101 -104 82 5 172 callsubr
          </CharString>
          <CharString index="143">
            -22 -32 -24 -27 -24 -22 -192 207 rcurveline
            18 24 30 11 32 hhcurveto
            50 33 -26 -20 19 hvcurveto
            18 27 rlineto
            23 -24 -45 44 -74 hhcurveto
            return
          </CharString>
          <CharString index="144">
            rmoveto
            -28 callgsubr
            return
          </CharString>
          <CharString index="145">
            23 187 callgsubr
            -23 109 callsubr
            -17 22 hvcurveto
            return
          </CharString>
          <CharString index="146">
            hlineto
            2 6 1 8 7 vvcurveto
            return
          </CharString>
          <CharString index="147">
            -39 callgsubr
            -54 43 -42 36 -26 hvcurveto
            return
          </CharString>
          <CharString index="148">
            185 211 rmoveto
            -1 10 10 -1 10 hhcurveto
            105 99 75 139 92 -66 115 -107 -76 -47 -57 -69 -72 64 -61 57 -28 hvcurveto
            15 28 rlineto
            -44 25 -44 40 50 vvcurveto
            61 39 38 55 75 33 -71 -74 43 callgsubr
            -20 -18 25 -33 108 -138 147 -168 rlinecurve
            41 29 -63 65 -115 125 -29 42 rlinecurve
            return
          </CharString>
          <CharString index="149">
            2 177 callgsubr
            167 callsubr
            return
          </CharString>
          <CharString index="150">
            29 15 9 47 5 vhcurveto
            2 6 return
          </CharString>
          <CharString index="151">
            296 -107 callsubr
            -601 hmoveto
            308 179 callgsubr
            -8 2 -9 vhcurveto
            -11 -21 -28 -10 -40 -50 callsubr
            777 288 rmoveto
            return
          </CharString>
          <CharString index="152">
            -34 -7 -17 -12 -20 -30 -23 48 -45 hhcurveto
            -51 -16 -45 -43 -9 hvcurveto
            return
          </CharString>
          <CharString index="153">
            56 -41 rlineto
            338 vlineto
            return
          </CharString>
          <CharString index="154">
            58 callsubr
            55 86 callgsubr
          </CharString>
          <CharString index="155">
            680 rlineto
            -107 -510 rmoveto
            130 185 rlineto
            -185 vlineto
            104 -30 rmoveto
            2 11 -2 11 -2 8 rrcurveto
            -58 264 -30 hlineto
            -184 -269 3 -9 5 -11 5 -5 rlinecurve
            157 -51 hlineto
            -20 -10 -5 -31 -4 vhcurveto
            -1 -4 -1 -13 1 -5 rrcurveto
            128 hlineto
            1 4 1 13 5 vvcurveto
            -17 1 -12 2 -15 7 rrcurveto
            70 vlineto
            endchar
          </CharString>
          <CharString index="156">
            rmoveto
            22 17 17 22 239 callsubr
            hvcurveto
            return
          </CharString>
          <CharString index="157">
            6 116 callgsubr
            return
          </CharString>
          <CharString index="158">
            rmoveto
            -182 vlineto
            96 callgsubr
            101 -312 224 callsubr
            150 vlineto
            196 callgsubr
            endchar
          </CharString>
          <CharString index="159">
            -26 -46 -50 -33 callgsubr
            return
          </CharString>
          <CharString index="160">
            -55 -50 -26 -35 -31 hvcurveto
            return
          </CharString>
          <CharString index="161">
            rmoveto
            -669 -102 callgsubr
            461 -306 hlineto
            -1 callgsubr
            hvcurveto
            -6 -187 162 vlineto
            -9 callsubr
            return
          </CharString>
          <CharString index="162">
            56 -58 -26 callgsubr
            -819 -42 callgsubr
            610 -235 hlineto
            -33 -23 -32 -23 -37 111 callsubr
            endchar
          </CharString>
          <CharString index="163">
            -49 -20 -41 -15 -16 vhcurveto
            return
          </CharString>
          <CharString index="164">
            vlineto
            3 -17 -18 2 -18 hhcurveto
            -134 -123 -83 -166 -149 82 -79 100 59 42 24 30 28 hvcurveto
            -33 5 23 -21 29 hhcurveto
            25 24 19 21 16 hvcurveto
            return
          </CharString>
          <CharString index="165">
            73 callgsubr
            39 30 12 24 27 hvcurveto
            -3 -265 return
          </CharString>
          <CharString index="166">
            -106 -80 -59 -98 -104 -83 76 95 127 85 28 91 vhcurveto
            return
          </CharString>
          <CharString index="167">
            95 callsubr
            -38 42 50 -25 54 hhcurveto
            38 37 13 18 31 hvcurveto
            96 -131 -94 callsubr
            -78 -83 77 86 111 67 40 107 vhcurveto
            endchar
          </CharString>
          <CharString index="168">
            rmoveto
            45 callsubr
            25 hlineto
            46 callgsubr
            return
          </CharString>
          <CharString index="169">
            vvcurveto
            -45 37 -30 42 36 34 25 21 14 vhcurveto
            return
          </CharString>
          <CharString index="170">
            53 67 42 45 38 return
          </CharString>
          <CharString index="171">
            -102 1 -84 79 94 vvcurveto
            127 85 28 91 vhcurveto
            return
          </CharString>
          <CharString index="172">
            -114 112 -92 99 return
          </CharString>
          <CharString index="173">
            hlineto
            -51 -40 -14 -24 -28 hvcurveto
            0 -283 vlineto
            -83 callgsubr
            169 178 callsubr
            36 10 28 19 19 vhcurveto
            1 0 hlineto
            22 22 33 10 44 hhcurveto
            return
          </CharString>
          <CharString index="174">
            91 callsubr
            -182 hlineto
            -83 callsubr
            149 hlineto
            -1 -5 0 -6 -5 vvcurveto
            return
          </CharString>
          <CharString index="175">
            -102 callgsubr
            62 hlineto
            -5 callgsubr
            -104 119 -91 116 return
          </CharString>
          <CharString index="176">
            -183 21 callsubr
            return
          </CharString>
          <CharString index="177">
            176 48 rmoveto
            return
          </CharString>
          <CharString index="178">
            158 callgsubr
            -53 61 62 -19 71 hhcurveto
            71 69 43 26 21 hvcurveto
            -33 42 rlineto
            85 callgsubr
            return
          </CharString>
          <CharString index="179">
            -306 vlineto
            -1 callgsubr
            -110 103 -88 103 -67 callgsubr
          </CharString>
          <CharString index="180">
            -63 63 70 87 58 40 69 20 21 -3 -7 21 hvcurveto
            -17 47 rlineto
            9 -23 -24 4 -23 hhcurveto
            return
          </CharString>
          <CharString index="181">
            -1 562 625 rmoveto
            -606 -102 callgsubr
            148 189 callsubr
            -316 vlineto
            -306 -274 43 -30 263 247 rlineto
            -209 vlineto
            156 callgsubr
            return
          </CharString>
          <CharString index="182">
            29 -24 hvcurveto
            -157 hlineto
            104 callsubr
            return
          </CharString>
          <CharString index="183">
            205 callsubr
            57 -52 hvcurveto
            return
          </CharString>
          <CharString index="184">
            -8 -14 -28 -9 -27 hhcurveto
            -26 -17 23 30 return
          </CharString>
          <CharString index="185">
            -245 hlineto
            103 -80 -65 32 -61 hhcurveto
            -49 -48 -11 -43 -56 hvcurveto
            34 -42 rlineto
            32 45 43 21 58 hhcurveto
            73 54 -74 85 callsubr
            356 vlineto
            -11 23 28 -6 32 hhcurveto
            28 return
          </CharString>
          <CharString index="186">
            rmoveto
            187 148 99 callgsubr
            return
          </CharString>
          <CharString index="187">
            87 callsubr
            29 34 rcurveline
            return
          </CharString>
          <CharString index="188">
            736 625 rmoveto
            98 callgsubr
            return
          </CharString>
          <CharString index="189">
            rmoveto
            -44 -50 28 39 -42 hvcurveto
            14 26 11 29 11 26 rrcurveto
            72 31 38 69 62 hhcurveto
            56 55 -55 -74 -87 -56 -73 -86 hvcurveto
            return
          </CharString>
          <CharString index="190">
            149 callgsubr
            37 54 27 hvcurveto
            return
          </CharString>
          <CharString index="191">
            33 -48 rlineto
            120 return
          </CharString>
          <CharString index="192">
            -38 28 69 callgsubr
            return
          </CharString>
          <CharString index="193">
            13 -26 -25 6 -31 hhcurveto
            return
          </CharString>
          <CharString index="194">
            40 callsubr
            188 callgsubr
            -107 104 -79 125 226 callsubr
            vhcurveto
            149 callsubr
            return
          </CharString>
          <CharString index="195">
            hhcurveto
            -49 -48 -11 -43 -56 hvcurveto
            34 -42 rlineto
            202 callsubr
            return
          </CharString>
          <CharString index="196">
            -99 callsubr
            6 201 rlineto
            return
          </CharString>
          <CharString index="197">
            56 86 callgsubr
          </CharString>
          <CharString index="198">
            63 70 87 58 40 69 20 21 -3 -7 21 hvcurveto
            -17 47 rlineto
            9 -23 -24 4 -23 hhcurveto
            -55 -49 -24 -41 -27 hvcurveto
            return
          </CharString>
          <CharString index="199">
            rmoveto
            -36 -25 -26 -32 -46 vvcurveto
            -44 28 -19 17 17 14 11 19 vhcurveto
            30 -34 10 30 vvcurveto
            21 10 15 23 18 vhcurveto
            return
          </CharString>
          <CharString index="200">
            hhcurveto
            114 89 94 47 25 hvcurveto
            -6 -134 156 callgsubr
            return
          </CharString>
          <CharString index="201">
            -102 callgsubr
            541 -239 hlineto
            -46 -20 -15 -33 -15 -13 5 9 -14 vhcurveto
            return
          </CharString>
          <CharString index="202">
            -120 -66 -78 -92 -66 37 -67 50 -44 hvcurveto
            return
          </CharString>
          <CharString index="203">
            150 callgsubr
            -162 hlineto
            return
          </CharString>
          <CharString index="204">
            625 rmoveto
            -640 -42 callgsubr
            431 -306 hlineto
            -1 callgsubr
            -36 11 return
          </CharString>
          <CharString index="205">
            -3 -192 -60 callgsubr
          </CharString>
          <CharString index="206">
            -38 -42 -26 hvcurveto
            return
          </CharString>
          <CharString index="207">
            rmoveto
            38 callsubr
            return
          </CharString>
          <CharString index="208">
            40 -32 108 callsubr
            return
          </CharString>
          <CharString index="209">
            -35 callgsubr
            -101 107 -89 108 return
          </CharString>
          <CharString index="210">
            hlineto
            -66 -10 11 39 -6 hvcurveto
            -17 -1 -5 -33 0 -58 5 -33 rlinecurve
            17 -1 rlineto
            39 6 10 11 66 hhcurveto
            return
          </CharString>
          <CharString index="211">
            117 callgsubr
            -30 21 -14 return
          </CharString>
          <CharString index="212">
            296 -107 callsubr
            -605 hmoveto
            312 hlineto
            -63 callsubr
            return
          </CharString>
          <CharString index="213">
            62 callsubr
            -3 7 rlineto
            77 callsubr
            return
          </CharString>
          <CharString index="214">
            21 callgsubr
            -300 -278 rmoveto
            -22 hlineto
            return
          </CharString>
          <CharString index="215">
            150 180 151 -180 27 18 return
          </CharString>
          <CharString index="216">
            -22 -16 -17 -22 -22 16 return
          </CharString>
          <CharString index="217">
            48 callgsubr
            endchar
          </CharString>
          <CharString index="218">
            hhcurveto
            -16 -14 6 9 -17 -55 callsubr
            return
          </CharString>
          <CharString index="219">
            -239 hlineto
            -70 callsubr
            return
          </CharString>
          <CharString index="220">
            -36 callgsubr
            77 return
          </CharString>
          <CharString index="221">
            -98 rmoveto
            118 callsubr
            return
          </CharString>
          <CharString index="222">
            -102 callgsubr
            388 173 callgsubr
            return
          </CharString>
          <CharString index="223">
            445 577 rmoveto
            145 callgsubr
            return
          </CharString>
          <CharString index="224">
            216 callsubr
            rrcurveto
            27 -31 -29 7 -34 hhcurveto
            return
          </CharString>
          <CharString index="225">
            -47 callsubr
            -11 hlineto
            return
          </CharString>
          <CharString index="226">
            13 28 136 134 100 hhcurveto
            38 36 -18 -34 42 hvcurveto
            -190 -133 rlineto
            -10 -8 -16 -11 -16 vvcurveto
            -35 70 -31 50 21 19 7 17 6 -3 6 -48 63 vhcurveto
            return
          </CharString>
          <CharString index="227">
            -102 callgsubr
            196 -47 callgsubr
            return
          </CharString>
          <CharString index="228">
            5 vhcurveto
            2 6 1 10 -1 5 rrcurveto
            -178 hlineto
            return
          </CharString>
          <CharString index="229">
            hhcurveto
            -24 callsubr
            return
          </CharString>
          <CharString index="230">
            rmoveto
            86 callsubr
            -89 -52 -65 -80 -50 21 -57 43 -50 hvcurveto
            28 14 rlineto
            -32 37 -14 43 39 vvcurveto
            70 45 59 74 15 12 -2 -4 14 vhcurveto
            endchar
          </CharString>
          <CharString index="231">
            -285 -102 callgsubr
            89 -321 hlineto
            return
          </CharString>
          <CharString index="232">
            113 callsubr
            45 return
          </CharString>
          <CharString index="233">
            -543 -391 799 rmoveto
            7 19 13 3 17 hhcurveto
            93 67 -126 -94 45 hvcurveto
            30 13 rlineto
            85 -41 -69 173 -146 hhcurveto
            -14 -28 -6 -9 -13 hvcurveto
            return
          </CharString>
          <CharString index="234">
            rmoveto
            115 130 1 8 -12 11 -15 8 -17 4 rlinecurve
            -87 -150 rlineto
            21 127 rmoveto
            8 vlineto
            -12 10 -16 6 -18 4 -75 -156 rcurveline
            16 -10 rlineto
            return
          </CharString>
          <CharString index="235">
            rmoveto
            196 634 -196 hlineto
            236 -185 rmoveto
            196 185 -196 hlineto
            return
          </CharString>
          <CharString index="236">
            -41 -10 -40 -13 -37 -14 rrcurveto
            -2 -7 -13 callgsubr
            -332 vlineto
            233 callgsubr
            return
          </CharString>
          <CharString index="237">
            hhcurveto
            137 callsubr
          </CharString>
          <CharString index="238">
            11 -11 13 -9 13 -8 rrcurveto
            -54 -20 -36 -44 -48 vvcurveto
            -90 return
          </CharString>
          <CharString index="239">
            hlineto
            -65 -37 -31 -51 -38 return
          </CharString>
          <CharString index="240">
            76 callgsubr
            204 174 return
          </CharString>
          <CharString index="241">
            hhcurveto
            -64 callsubr
            76 222 -12 vlineto
            -292 -257 43 -30 249 234 222 callsubr
            142 vlineto
            endchar
          </CharString>
          <CharString index="242">
            hhcurveto
            -14 -24 -4 -7 -16 hvcurveto
            return
          </CharString>
          <CharString index="243">
            165 callsubr
            -468 16 48 callgsubr
            return
          </CharString>
          <CharString index="244">
            214 callgsubr
            hvcurveto
            98 callsubr
          </CharString>
          <CharString index="245">
            rmoveto
            36 callsubr
            return
          </CharString>
          <CharString index="246">
            rmoveto
            174 148 260 callgsubr
            return
          </CharString>
          <CharString index="247">
            rmoveto
            35 callgsubr
            return
          </CharString>
          <CharString index="248">
            -19 21 -12 30 30 vvcurveto
            return
          </CharString>
          <CharString index="249">
            -52 -34 -39 -48 -30 hvcurveto
            62 -60 -46 26 -63 hhcurveto
            -98 -75 -88 -97 -86 73 -107 103 54 37 37 47 29 hvcurveto
            -57 56 70 -26 47 hhcurveto
            return
          </CharString>
          <CharString index="250">
            vlineto
            44 callgsubr
            endchar
          </CharString>
          <CharString index="251" raw="1">
            3c1d4e50 0b  
          </CharString>
          <CharString index="252">
            rmoveto
            -18 -5 -23 -11 -12 -11 rrcurveto
            -9 vlineto
            150 -135 16 10 rlineto
            return
          </CharString>
          <CharString index="253">
            -52 -55 50 74 hvcurveto
            return
          </CharString>
          <CharString index="254">
            177 callsubr
            rlineto
            -86 callsubr
            return
          </CharString>
          <CharString index="255">
            -59 hhcurveto
            -55 -30 -26 -35 -31 hvcurveto
            3 217 rlineto
            return
          </CharString>
          <CharString index="256">
            40 -32 49 -35 35 -24 return
          </CharString>
          <CharString index="257">
            -67 -28 -64 -45 -51 vhcurveto
            return
          </CharString>
          <CharString index="258">
            493 -82 callsubr
            return
          </CharString>
          <CharString index="259">
            78 197 vlineto
            -80 29 84 -58 83 hhcurveto
            -67 callgsubr
          </CharString>
          <CharString index="260">
            170 callgsubr
            -23 -8 return
          </CharString>
          <CharString index="261">
            rmoveto
            -60 -27 -37 -73 -68 hhcurveto
            -59 -52 55 74 86 58 75 90 54 37 -30 -41 42 hvcurveto
            -15 -30 -12 -30 -11 -26 rrcurveto
            return
          </CharString>
          <CharString index="262">
            39 callsubr
            -25 return
          </CharString>
          <CharString index="263">
            -569 hlineto
            236 callsubr
            return
          </CharString>
          <CharString index="264">
            -108 hlineto
            -120 -70 -68 -92 return
          </CharString>
          <CharString index="265">
            -19 379 240 rmoveto
            238 callsubr
            -66 -59 -35 -59 -9 hvcurveto
            141 callsubr
            238 callgsubr
            vhcurveto
            return
          </CharString>
          <CharString index="266">
            -80 callgsubr
            217 vlineto
            return
          </CharString>
          <CharString index="267">
            260 callsubr
            76 callsubr
            return
          </CharString>
          <CharString index="268">
            43 -30 308 289 164 callsubr
            return
          </CharString>
          <CharString index="269">
            403 139 callsubr
            return
          </CharString>
          <CharString index="270">
            rmoveto
            181 150 99 callgsubr
            return
          </CharString>
          <CharString index="271">
            -4 -248 58 -41 rlineto
            326 vlineto
            return
          </CharString>
          <CharString index="272">
            vlineto
            56 -41 rlineto
            627 140 vlineto
            return
          </CharString>
          <CharString index="273">
            56 -44 rlineto
            627 return
          </CharString>
          <CharString index="274">
            -19 193 callgsubr
            return
          </CharString>
          <CharString index="275">
            -114 vlineto
            -93 -90 -56 -90 -141 134 -86 129 115 82 80 90 71 -49 61 -58 32 hvcurveto
            return
          </CharString>
          <CharString index="276">
            vlineto
            -31 -16 -10 -51 -6 vhcurveto
            -2 -6 -1 -10 1 -7 rrcurveto
            return
          </CharString>
          <CharString index="277">
            vhcurveto
            -2 -6 -1 -10 1 -7 rrcurveto
            187 166 callgsubr
            -26 2 -20 151 callgsubr
            return
          </CharString>
          <CharString index="278">
            -283 124 562 rmoveto
            25 20 21 24 25 -20 20 -25 -24 -20 -20 -25 -24 20 -21 24 hvcurveto
            return
          </CharString>
          <CharString index="279">
            vhcurveto
            -27 48 183 callsubr
          </CharString>
          <CharString index="280">
            -2 19 -4 24 -10 rrcurveto
            return
          </CharString>
          <CharString index="281">
            62 55 -33 -68 hvcurveto
            -1 return
          </CharString>
          <CharString index="282">
            -46 53 39 -7 30 hhcurveto
            73 52 56 76 hvcurveto
            277 return
          </CharString>
          <CharString index="283">
            rmoveto
            -221 -30 221 hlineto
            return
          </CharString>
          <CharString index="284">
            -190 205 return
          </CharString>
          <CharString index="285">
            vlineto
            -6 -16 -3 -18 -19 vvcurveto
            -94 53 -104 76 -100 vhcurveto
            -32 callgsubr
            return
          </CharString>
          <CharString index="286">
            60 -34 -58 48 -73 210 callsubr
            return
          </CharString>
          <CharString index="287">
            -364 rmoveto
            -73 -38 57 86 hvcurveto
            221 206 -247 vlineto
            -82 -30 -35 -65 vhcurveto
            endchar
          </CharString>
          <CharString index="288">
            217 callsubr
            50 37 -30 -40 21 hvcurveto
            return
          </CharString>
          <CharString index="289">
            -52 callgsubr
            -25 -22 return
          </CharString>
          <CharString index="290">
            9 callgsubr
            endchar
          </CharString>
          <CharString index="291">
            577 251 callgsubr
            return
          </CharString>
          <CharString index="292">
            rmoveto
            205 callgsubr
            return
          </CharString>
          <CharString index="293">
            39 26 vhcurveto
            -3 -171 55 -43 rlineto
            return
          </CharString>
          <CharString index="294">
            -45 -46 -45 -17 -59 hhcurveto
            return
          </CharString>
          <CharString index="295">
            hhcurveto
            -50 -52 47 72 hvcurveto
            return
          </CharString>
          <CharString index="296">
            -79 callsubr
            194 return
          </CharString>
          <CharString index="297">
            hlineto
            -116 40 68 -172 142 hhcurveto
            77 43 57 64 62 -30 59 -53 46 hvcurveto
            return
          </CharString>
          <CharString index="298">
            vvcurveto
            56 -52 83 -71 vhcurveto
            -42 -69 -42 -43 hhcurveto
            -43 -33 41 48 62 37 29 62 hvcurveto
            return
          </CharString>
          <CharString index="299">
            -60 431 642 rmoveto
            -421 -680 rlineto
            36 hlineto
            422 680 rlineto
            endchar
          </CharString>
          <CharString index="300">
            -135 195 -100 58 -36 vhcurveto
            32 21 rlineto
            -59 34 -177 87 111 vvcurveto
            return
          </CharString>
          <CharString index="301">
            394 rmoveto
            21 callsubr
            return
          </CharString>
          <CharString index="302">
            -4 -240 233 callsubr
            return
          </CharString>
          <CharString index="303">
            234 callgsubr
            182 vlineto
            return
          </CharString>
          <CharString index="304">
            65 callsubr
            214 callgsubr
            return
          </CharString>
          <CharString index="305">
            224 callgsubr
            rlineto
            return
          </CharString>
          <CharString index="306">
            -278 rmoveto
            278 return
          </CharString>
          <CharString index="307">
            115 callsubr
            18 -46 return
          </CharString>
          <CharString index="308">
            -596 -102 callgsubr
            373 -134 237 callgsubr
            -57 -80 -90 return
          </CharString>
          <CharString index="309">
            32 45 43 20 229 callgsubr
            return
          </CharString>
          <CharString index="310">
            -239 rmoveto
            -46 -20 -15 -33 -24 return
          </CharString>
          <CharString index="311">
            78 93 53 76 237 callsubr
            return
          </CharString>
          <CharString index="312">
            132 callsubr
            18 -46 return
          </CharString>
          <CharString index="313">
            -1 4 callsubr
            return
          </CharString>
          <CharString index="314">
            -17 -11 -6 -11 -12 vvcurveto
            return
          </CharString>
          <CharString index="315">
            -183 hlineto
            -105 return
          </CharString>
          <CharString index="316">
            -72 hhcurveto
            -14 -28 -6 -9 -13 hvcurveto
            27 -46 rlineto
            7 19 13 3 17 hhcurveto
            return
          </CharString>
          <CharString index="317">
            22 callgsubr
            241 -46 callgsubr
            return
          </CharString>
          <CharString index="318">
            -176 27 15 -127 161 127 161 -27 14 rlineto
            endchar
          </CharString>
          <CharString index="319">
            hlineto
            66 18 -11 -39 7 hvcurveto
            17 1 3 return
          </CharString>
          <CharString index="320">
            17 -189 rlineto
            19 hlineto
            17 189 rlineto
            return
          </CharString>
          <CharString index="321">
            hhcurveto
            -49 -48 18 40 -50 hvcurveto
            -20 -24 rlineto
            -56 67 65 -24 62 hhcurveto
            return
          </CharString>
          <CharString index="322">
            58 -77 53 -86 -33 -33 -10 -16 -29 vhcurveto
            -18 17 -26 30 42 vvcurveto
            return
          </CharString>
          <CharString index="323">
            162 hlineto
            42 -12 27 -24 26 vhcurveto
            -10 11 -12 12 -15 12 return
          </CharString>
          <CharString index="324">
            244 callsubr
            67 27 53 hhcurveto
            return
          </CharString>
          <CharString index="325">
            57 84 77 68 -44 69 -84 15 hvcurveto
            55 20 44 47 67 vvcurveto
            return
          </CharString>
          <CharString index="326">
            50 54 32 58 36 hvcurveto
            -6 -197 46 callsubr
            return
          </CharString>
          <CharString index="327">
            hlineto
            53 26 -40 -51 hvcurveto
            -186 vlineto
            return
          </CharString>
          <CharString index="328">
            -50 -52 47 72 hvcurveto
            233 245 return
          </CharString>
          <CharString index="329">
            rlineto
            -188 vlineto
            166 callsubr
            return
          </CharString>
          <CharString index="330">
            4 callsubr
            25 -1 return
          </CharString>
          <CharString index="331">
            rmoveto
            -50 -52 47 72 hvcurveto
            return
          </CharString>
          <CharString index="332">
            43 -30 293 276 return
          </CharString>
          <CharString index="333">
            76 79 36 57 60 return
          </CharString>
          <CharString index="334">
            vlineto
            70 callsubr
            return
          </CharString>
          <CharString index="335">
            156 165 callgsubr
            -168 hlineto
            return
          </CharString>
          <CharString index="336">
            -155 343 287 rmoveto
            40 -298 -40 vlineto
            endchar
          </CharString>
          <CharString index="337">
            -44 29 rlineto
            -38 -5 -20 -31 -39 hhcurveto
            -37 -23 23 40 return
          </CharString>
          <CharString index="338">
            56 callsubr
            -87 -11 -124 33 104 vvcurveto
            return
          </CharString>
          <CharString index="339">
            -27 hlineto
            -116 -105 15 -17 114 72 115 -72 return
          </CharString>
          <CharString index="340">
            56 -41 -64 callgsubr
            return
          </CharString>
          <CharString index="341">
            99 callsubr
            6 201 rlineto
            return
          </CharString>
          <CharString index="342">
            238 callgsubr
            238 callsubr
            return
          </CharString>
          <CharString index="343">
            56 -58 rlineto
            627 return
          </CharString>
          <CharString index="344">
            82 -65 51 -62 return
          </CharString>
          <CharString index="345">
            41 24 -26 -38 return
          </CharString>
          <CharString index="346">
            22 -17 17 -22 109 callsubr
            -17 22 return
          </CharString>
          <CharString index="347">
            -39 23 -45 28 -44 32 return
          </CharString>
          <CharString index="348">
            -45 -48 -50 -17 -66 hhcurveto
            return
          </CharString>
          <CharString index="349">
            -24 -30 -31 -13 -29 hhcurveto
            return
          </CharString>
          <CharString index="350">
            -1 7 rrcurveto
            endchar
          </CharString>
          <CharString index="351">
            164 callsubr
            69 36 return
          </CharString>
          <CharString index="352">
            237 -251 rlineto
            -40 -33 -43 -22 -54 hhcurveto
            return
          </CharString>
          <CharString index="353">
            vlineto
            -85 -42 -52 -22 -52 hhcurveto
            -74 -39 51 52 return
          </CharString>
          <CharString index="354">
            vlineto
            258 callgsubr
          </CharString>
          <CharString index="355">
            -7 vvcurveto
            25 -1 19 -5 24 return
          </CharString>
          <CharString index="356">
            hlineto
            2 6 0 9 8 vvcurveto
            return
          </CharString>
          <CharString index="357">
            hhcurveto
            -64 callsubr
            78 return
          </CharString>
          <CharString index="358">
            hhcurveto
            53 callsubr
            return
          </CharString>
          <CharString index="359">
            -163 hlineto
            -79 -46 return
          </CharString>
          <CharString index="360">
            53 callsubr
            3 217 rlineto
            return
          </CharString>
          <CharString index="361">
            -10 -11 17 hvcurveto
            -1 -4 0 -4 -4 vvcurveto
            return
          </CharString>
          <CharString index="362">
            -105 -59 -59 -86 -94 53 -104 76 -100 hvcurveto
            return
          </CharString>
          <CharString index="363">
            38 199 rlineto
            -43 hlineto
            -38 -199 rlineto
            return
          </CharString>
          <CharString index="364">
            -22 -22 16 -16 22 22 18 16 22 vhcurveto
            return
          </CharString>
          <CharString index="365">
            rmoveto
            244 -278 -244 hlineto
            endchar
          </CharString>
          <CharString index="366">
            hlineto
            -31 48 rlineto
            return
          </CharString>
          <CharString index="367">
            -131 -170 return
          </CharString>
        <CharString name=".notdef">
          207 180 -50 rmoveto
          390 701 -390 hlineto
          54 -50 rmoveto
          282 -601 -282 hlineto
          endchar
        </CharString>
        <CharString name="A">
          10 164 228 -98 callsubr
        </CharString>
        <CharString name="AE">
          247 214 228 rmoveto
          154 258 25 47 rlineto
          -305 vlineto
          48 -200 rmoveto
          264 vlineto
          143 -3 rlineto
          26 38 -26 hlineto
          -143 -5 rlineto
          253 167 vlineto
          67 -14 callgsubr
          -392 hlineto
          65 callgsubr
          20 -1 18 -3 18 -6 -294 -496 rcurveline
          -15 -25 -12 -22 -49 -6 rrcurveto
          -2 -5 -2 -9 -7 vvcurveto
          156 hlineto
          2 6 2 8 7 vvcurveto
          -25 3 -17 6 -21 12 95 159 rcurveline
          195 -135 hlineto
          -30 -15 -9 -48 -6 vhcurveto
          -3 -5 -1 -9 1 -7 rrcurveto
          409 -31 callsubr
        </CharString>
        <CharString name="Aacute">
          10 436 777 -38 callgsubr
          -122 -413 -98 callsubr
        </CharString>
        <CharString name="Abreve">
          10 366 783 5 callsubr
          -222 -555 -98 callsubr
        </CharString>
        <CharString name="Acircumflex">
          10 276 717 50 callgsubr
          2 -417 -98 callsubr
        </CharString>
        <CharString name="Adieresis">
          10 335 666 -68 callgsubr
          -51 -438 -98 callsubr
        </CharString>
        <CharString name="Agrave">
          10 302 652 8 callsubr
          -122 -414 -98 callsubr
        </CharString>
        <CharString name="Amacron">
          10 386 699 176 callsubr
          -222 -441 -98 callsubr
        </CharString>
        <CharString name="Aogonek">
          10 164 228 rmoveto
          92 278 11 44 107 -322 rlineto
          216 -368 rmoveto
          83 callsubr
          3 6 1 8 1 7 -45 4 -27 13 -12 38 -178 538 rcurveline
          -14 -15 -2 -6 -10 hvcurveto
          -180 -532 -9 -27 -18 -20 -49 -6 rlinecurve
          -2 -5 -2 -9 -7 vvcurveto
          173 hlineto
          2 6 2 8 7 vvcurveto
          -23 2 -26 4 -24 11 55 164 rcurveline
          -1 228 vlineto
          52 -159 -18 -12 -24 -5 -26 -4 rlinecurve
          -3 -5 230 callgsubr
          147 hlineto
          -52 -29 -28 -42 -47 62 callsubr
          endchar
        </CharString>
        <CharString name="Aring">
          10 276 751 18 callsubr
          -112 -413 -98 callsubr
        </CharString>
        <CharString name="Atilde">
          10 376 759 61 callsubr
          -237 -531 -98 callsubr
        </CharString>
        <CharString name="B">
          -14 145 28 rmoveto
          267 125 vlineto
          106 37 -65 -69 -69 -37 -64 -106 hvcurveto
          -125 295 rmoveto
          252 96 vlineto
          108 36 -58 -69 -68 -34 -39 -59 -19 hvcurveto
          -260 279 rmoveto
          206 callsubr
          24 -1 20 -4 23 -10 rrcurveto
          -499 vlineto
          -30 -15 -9 -48 -6 vhcurveto
          -2 -5 0 -9 -7 vvcurveto
          238 hlineto
          143 218 callsubr
          78 -48 76 -152 vhcurveto
          endchar
        </CharString>
        <CharString name="C">
          24 509 79 rmoveto
          -15 callgsubr
          -190 129 -117 149 82 57 30 49 49 hvcurveto
          endchar
        </CharString>
        <CharString name="CR">
          -293 endchar
        </CharString>
        <CharString name="Cacute">
          24 509 79 rmoveto
          -15 callgsubr
          -190 129 -117 149 82 57 30 49 49 hvcurveto
          -163 582 -23 callsubr
        </CharString>
        <CharString name="Ccaron">
          24 509 79 rmoveto
          -15 callgsubr
          -190 129 -117 149 82 57 30 49 49 hvcurveto
          -29 692 rmoveto
          -27 callgsubr
          48 hlineto
          endchar
        </CharString>
        <CharString name="Ccedilla">
          24 321 -72 rmoveto
          13 60 rlineto
          0 vlineto
          82 57 30 49 49 hvcurveto
          -13 12 rlineto
          -15 callgsubr
          -169 102 -111 127 -23 hvcurveto
          -18 -90 rlineto
          -47 callsubr
          endchar
        </CharString>
        <CharString name="D">
          15 146 28 rmoveto
          547 90 vlineto
          33 callgsubr
          -499 11 callgsubr
          205 hlineto
          179 121 108 194 192 -122 107 -179 hvcurveto
          endchar
        </CharString>
        <CharString name="Dcaron">
          15 299 645 rmoveto
          104 114 -27 callgsubr
          -105 -617 rmoveto
          547 90 vlineto
          33 callgsubr
          -499 11 callgsubr
          205 hlineto
          179 121 108 194 192 -122 107 -179 hvcurveto
          endchar
        </CharString>
        <CharString name="Dcroat">
          24 callgsubr
        </CharString>
        <CharString name="E">
          -46 148 28 -94 callgsubr
        </CharString>
        <CharString name="Eacute">
          -46 420 776 -38 callgsubr
          -122 -612 -94 callgsubr
        </CharString>
        <CharString name="Ecaron">
          -46 284 647 rmoveto
          104 114 -27 callgsubr
          -88 -619 -94 callgsubr
        </CharString>
        <CharString name="Ecircumflex">
          -46 259 717 50 callgsubr
          3 -617 -94 callgsubr
        </CharString>
        <CharString name="Edieresis">
          -46 312 666 -68 callgsubr
          -44 -638 -94 callgsubr
        </CharString>
        <CharString name="Edotaccent">
          -46 259 654 49 callsubr
          -111 -626 -94 callgsubr
        </CharString>
        <CharString name="Egrave">
          -46 286 652 8 callsubr
          -122 -614 -94 callgsubr
        </CharString>
        <CharString name="Emacron">
          -46 370 699 176 callsubr
          -222 -641 -94 callgsubr
        </CharString>
        <CharString name="Eogonek">
          -46 481 -140 rmoveto
          83 callsubr
          2 41 -1 40 -3 40 rrcurveto
          1 -6 -7 0 -6 hhcurveto
          -68 -7 -16 -26 -68 hhcurveto
          -183 265 hlineto
          173 -4 rlineto
          26 38 -26 hlineto
          -173 -5 rlineto
          253 166 vlineto
          68 -14 callgsubr
          -392 hlineto
          -2 223 callsubr
          21 -4 23 -11 rrcurveto
          -498 vlineto
          -30 -15 -9 -48 -6 vhcurveto
          -3 -5 -1 -9 1 -7 rrcurveto
          367 hlineto
          -52 -29 -28 -42 -47 62 callsubr
          endchar
        </CharString>
        <CharString name="Eth">
          24 callgsubr
        </CharString>
        <CharString name="Euro">
          24 509 79 rmoveto
          -36 -56 -49 -15 -62 hhcurveto
          -110 -91 77 128 -23 hvcurveto
          241 hlineto
          6 32 rlineto
          -251 hlineto
          -1 10 0 10 10 vvcurveto
          10 0 10 1 10 vhcurveto
          245 hlineto
          6 32 rlineto
          -247 hlineto
          136 20 91 85 133 hhcurveto
          174 callsubr
          3 9 0 2 hhcurveto
          8 31 6 48 30 vvcurveto
          16 -37 -54 13 -55 hhcurveto
          -149 -124 -103 -154 -27 hvcurveto
          -48 hlineto
          -6 -32 rlineto
          50 hlineto
          -1 -10 0 -10 -10 vvcurveto
          -10 0 -10 1 -10 vhcurveto
          -44 hlineto
          -6 -32 rlineto
          54 hlineto
          -153 25 116 -92 132 hhcurveto
          82 57 30 49 49 hvcurveto
          endchar
        </CharString>
        <CharString name="F">
          -77 34 601 rmoveto
          65 callgsubr
          26 -1 21 -4 22 -11 rrcurveto
          -494 169 callsubr
          214 249 callsubr
          -36 5 -27 4 -36 14 rrcurveto
          226 vlineto
          158 -3 rlineto
          31 38 -31 hlineto
          -158 -5 rlineto
          273 167 vlineto
          67 -14 callgsubr
          endchar
        </CharString>
        <CharString name="G">
          54 398 297 -40 callgsubr
        </CharString>
        <CharString name="Gbreve">
          54 419 783 5 callsubr
          -41 -486 -40 callgsubr
        </CharString>
        <CharString name="H">
          63 508 537 rmoveto
          29 14 9 49 121 callsubr
          65 callgsubr
          24 -1 19 -5 24 -10 rrcurveto
          -248 -311 221 vlineto
          -91 callsubr
          251 311 -222 vlineto
          -30 -15 -9 -48 -6 vhcurveto
          -1 -5 0 -9 -7 vvcurveto
          179 hlineto
          177 callgsubr
          -20 5 -23 10 rrcurveto
          endchar
        </CharString>
        <CharString name="I">
          -296 148 537 7 callgsubr
        </CharString>
        <CharString name="Iacute">
          -296 148 537 rmoveto
          -91 callsubr
          -30 614 -23 callsubr
        </CharString>
        <CharString name="Icircumflex">
          -296 148 537 rmoveto
          -91 callsubr
          -10 730 195 callgsubr
        </CharString>
        <CharString name="Idieresis">
          -296 183 666 -68 callgsubr
          85 -129 7 callgsubr
        </CharString>
        <CharString name="Idotaccent">
          -296 123 654 49 callsubr
          25 -117 7 callgsubr
        </CharString>
        <CharString name="Igrave">
          -296 150 652 8 callsubr
          14 -105 7 callgsubr
        </CharString>
        <CharString name="Imacron">
          -296 148 537 rmoveto
          -91 callsubr
          -135 662 rmoveto
          -30 221 30 vlineto
          endchar
        </CharString>
        <CharString name="Iogonek">
          -296 250 -140 rmoveto
          83 callsubr
          42 callsubr
          500 84 callgsubr
          35 callgsubr
          19 -4 24 -10 rrcurveto
          -498 vlineto
          -30 -15 -9 -48 -6 vhcurveto
          -3 -5 -1 -9 1 -7 rrcurveto
          136 hlineto
          -52 -29 -28 -42 -47 62 callsubr
          endchar
        </CharString>
        <CharString name="J">
          -308 34 601 140 callsubr
          19 -4 24 -10 rrcurveto
          -586 vlineto
          -71 -8 -64 -94 -51 vhcurveto
          1 -4 2 -5 1 -4 rrcurveto
          101 32 45 55 114 vvcurveto
          557 vlineto
          -29 callgsubr
          endchar
        </CharString>
        <CharString name="K">
          15 254 293 -10 callgsubr
        </CharString>
        <CharString name="L">
          -59 146 28 -45 callgsubr
        </CharString>
        <CharString name="Lacute">
          -59 286 775 -38 callgsubr
          10 -611 -45 callgsubr
        </CharString>
        <CharString name="Lcaron">
          -59 255 151 callsubr
          -96 -477 -45 callgsubr
        </CharString>
        <CharString name="Lslash">
          -65 146 28 rmoveto
          263 vlineto
          102 34 -2 11 -1 11 -7 9 rlinecurve
          -92 -32 rlineto
          213 vlineto
          29 15 9 47 121 callsubr
          205 callgsubr
          19 -5 24 -10 rrcurveto
          -256 vlineto
          -84 -29 2 -13 1 -7 7 -8 rlinecurve
          74 24 rlineto
          -209 11 callgsubr
          420 hlineto
          3 41 -2 40 -5 39 rrcurveto
          1 -4 -8 0 -5 hhcurveto
          -67 -6 -17 -26 -67 hhcurveto
          endchar
        </CharString>
        <CharString name="M">
          234 646 530 rmoveto
          -2 33 17 14 31 2 rrcurveto
          8 -2 9 -2 5 vhcurveto
          -98 hlineto
          -208 -522 -192 522 rlineto
          -104 hlineto
          -2 -6 0 -9 2 -8 22 -3 9 -3 16 -6 -42 -493 rcurveline
          -2 -28 -25 -18 -49 -6 rrcurveto
          -2 -5 -2 -9 -7 vvcurveto
          182 hlineto
          2 6 2 9 6 vvcurveto
          -24 1 -27 5 -24 11 43 517 rcurveline
          28 -81 175 -474 rlineto
          18 hlineto
          182 455 31 83 40 -472 2 -30 -14 -9 -48 -6 rlinecurve
          -1 -5 0 -9 1 -7 rrcurveto
          178 hlineto
          2 6 0 9 -1 6 -25 2 -20 151 callgsubr
          endchar
        </CharString>
        <CharString name="N">
          88 430 601 -77 callgsubr
        </CharString>
        <CharString name="NULL">
          -543 endchar
        </CharString>
        <CharString name="Nacute">
          88 490 777 -38 callgsubr
          90 -40 -77 callgsubr
        </CharString>
        <CharString name="Ncaron">
          88 354 647 rmoveto
          104 114 -27 callgsubr
          124 -46 -77 callgsubr
        </CharString>
        <CharString name="Ntilde">
          88 430 759 61 callsubr
          -25 -158 -77 callgsubr
        </CharString>
        <CharString name="O">
          103 536 300 57 callgsubr
        </CharString>
        <CharString name="OE">
          284 430 40 rmoveto
          -15 -31 -22 -4 -36 hhcurveto
          -127 -93 80 198 -11 hvcurveto
          160 -10 77 121 127 hhcurveto
          47 35 -4 -14 44 hvcurveto
          48 -534 rmoveto
          264 vlineto
          143 -3 rlineto
          26 38 -26 hlineto
          -143 -5 rlineto
          253 167 vlineto
          67 17 -27 -68 6 hvcurveto
          5 8 0 2 4 hvcurveto
          6 38 1 41 -3 40 rrcurveto
          -313 hlineto
          8 -41 -35 5 -45 hhcurveto
          -167 -98 -135 -180 -180 99 -132 167 51 37 6 7 37 hvcurveto
          325 -31 callsubr
        </CharString>
        <CharString name="Oacute">
          102 536 300 -84 callgsubr
          -7 663 -23 callsubr
        </CharString>
        <CharString name="Ocircumflex">
          102 536 300 -84 callgsubr
          127 675 124 callgsubr
        </CharString>
        <CharString name="Odieresis">
          102 536 300 -84 callgsubr
          88 716 51 callgsubr
        </CharString>
        <CharString name="Ograve">
          103 236 813 145 callsubr
          187 -352 57 callgsubr
        </CharString>
        <CharString name="Ohungarumlaut">
          103 536 300 -84 callgsubr
          -76 664 58 callgsubr
        </CharString>
        <CharString name="Omacron">
          103 536 300 -84 callgsubr
          -111 682 198 callgsubr
        </CharString>
        <CharString name="Oslash">
          102 490 472 rmoveto
          25 -44 16 -57 5 -71 rrcurveto
          -171 10 -78 -108 -127 hhcurveto
          -64 -56 20 46 -40 hvcurveto
          -22 29 rmoveto
          -27 44 -18 60 -4 79 rrcurveto
          160 -10 77 121 127 hhcurveto
          67 57 -26 -51 41 hvcurveto
          134 110 rmoveto
          -45 hlineto
          -57 -70 rlineto
          45 -44 -61 26 -74 hhcurveto
          -167 -98 -135 -180 -90 25 -78 45 -55 hvcurveto
          -71 -89 rlineto
          44 hlineto
          51 63 rlineto
          -40 44 58 -23 70 hhcurveto
          166 100 132 180 86 -23 75 -41 56 hvcurveto
          endchar
        </CharString>
        <CharString name="Otilde">
          103 230 673 rmoveto
          46 callgsubr
          -25 hlineto
          45 callsubr
          331 -373 57 callgsubr
        </CharString>
        <CharString name="P">
          119 callgsubr
          -498 11 callgsubr
          211 39 callsubr
          -36 2 -33 6 -32 13 rrcurveto
          216 119 vlineto
          128 73 85 86 88 -73 84 -128 hvcurveto
          endchar
        </CharString>
        <CharString name="Q">
          103 110 299 rmoveto
          160 -5 82 121 127 hhcurveto
          126 91 -92 -188 5 hvcurveto
          -171 4 -81 -108 -128 hhcurveto
          -127 -90 80 198 -4 hvcurveto
          410 -394 rmoveto
          -11 -31 -40 -7 -24 hhcurveto
          -43 -25 51 50 -11 hvcurveto
          152 12 91 127 172 vvcurveto
          180 -100 135 -167 -167 -98 -135 -180 -170 88 -127 151 -14 vhcurveto
          -70 15 49 -68 58 hhcurveto
          39 41 17 22 32 hvcurveto
          endchar
        </CharString>
        <CharString name="R">
          -13 148 310 -72 callgsubr
        </CharString>
        <CharString name="Racute">
          -13 443 775 -38 callgsubr
          -145 -329 -72 callgsubr
        </CharString>
        <CharString name="Rcaron">
          -13 307 645 rmoveto
          104 114 -27 callgsubr
          -111 -335 -72 callgsubr
        </CharString>
        <CharString name="S">
          -87 -62 callsubr
          endchar
        </CharString>
        <CharString name="Sacute">
          -87 -62 callsubr
          -149 72 -23 callsubr
        </CharString>
        <CharString name="Scaron">
          -39 -62 callsubr
          4 182 rmoveto
          -27 callgsubr
          48 hlineto
          endchar
        </CharString>
        <CharString name="T">
          -49 22 601 -17 callsubr
        </CharString>
        <CharString name="Tcaron">
          -49 271 647 rmoveto
          104 114 -27 callgsubr
          -201 -46 -17 callsubr
        </CharString>
        <CharString name="Thorn">
          -48 148 183 rmoveto
          248 103 vlineto
          91 46 -47 -78 -77 -48 -46 -89 hvcurveto
          -103 275 rmoveto
          79 vlineto
          -91 callsubr
          118 117 vlineto
          117 64 65 86 87 -64 65 -117 hvcurveto
          endchar
        </CharString>
        <CharString name="U">
          90 413 601 -93 callgsubr
        </CharString>
        <CharString name="Uacute">
          105 461 776 -38 callgsubr
          102 -39 -93 callgsubr
        </CharString>
        <CharString name="Ucircumflex">
          105 300 717 50 callgsubr
          227 -44 -93 callgsubr
        </CharString>
        <CharString name="Udieresis">
          105 352 666 -68 callgsubr
          181 -65 -93 callgsubr
        </CharString>
        <CharString name="Ugrave">
          90 345 652 8 callsubr
          84 -41 -93 callgsubr
        </CharString>
        <CharString name="Uhungarumlaut">
          90 358 641 127 callsubr
          154 -40 -93 callgsubr
        </CharString>
        <CharString name="Umacron">
          90 429 699 176 callsubr
          -16 -68 -93 callgsubr
        </CharString>
        <CharString name="Uogonek">
          90 413 601 rmoveto
          65 callgsubr
          24 -1 19 -5 24 -10 rrcurveto
          -364 vlineto
          -122 -65 -56 -93 -93 -67 55 123 vhcurveto
          337 84 callgsubr
          -1 -4 -2 -10 1 -7 25 173 callsubr
          -356 vlineto
          -158 93 -62 115 6 7 0 1 6 vhcurveto
          -41 -29 -21 -37 -41 106 callsubr
          39 19 37 53 27 hvcurveto
          76 24 54 64 121 vvcurveto
          329 vlineto
          29 14 9 236 callgsubr
          1 10 -1 5 rrcurveto
          endchar
        </CharString>
        <CharString name="Uring">
          90 319 751 18 callsubr
          94 -40 -93 callgsubr
        </CharString>
        <CharString name="V">
          19 400 601 rmoveto
          -2 -6 -1 -8 -8 vvcurveto
          24 -2 20 -4 21 -9 -173 -484 rcurveline
          -3 hlineto
          -4 22 -8 22 -6 17 -144 395 rcurveline
          -12 33 8 5 50 5 rrcurveto
          8 -1 7 -2 7 vhcurveto
          -161 hlineto
          -2 -6 2 -8 1 -8 16 -2 20 -4 19 -7 211 -572 rcurveline
          17 hlineto
          193 537 14 37 23 6 34 5 rlinecurve
          2 8 1 7 7 vvcurveto
          endchar
        </CharString>
        <CharString name="W">
          299 699 601 rmoveto
          -2 -6 -2 -8 -1 -8 22 -3 17 -7 16 -8 -140 -480 rcurveline
          -2 hlineto
          -2 21 -5 20 -6 17 -151 430 rcurveline
          -15 hlineto
          -178 -483 rlineto
          -3 hlineto
          -3 25 -6 24 -6 19 -111 382 rcurveline
          -9 32 8 6 55 5 rrcurveto
          8 -1 7 -3 7 vhcurveto
          -166 hlineto
          -1 -6 1 -8 1 -8 17 -2 21 -5 19 -7 166 -571 rcurveline
          16 hlineto
          182 483 168 -483 rlineto
          15 hlineto
          159 531 12 40 15 7 39 7 rlinecurve
          1 8 2 7 243 callsubr
        </CharString>
        <CharString name="X">
          44 315 311 rmoveto
          164 221 24 32 13 11 34 5 rlinecurve
          2 7 243 callgsubr
          rrcurveto
          -153 hlineto
          -2 -6 -1 -8 -7 vvcurveto
          25 -1 22 -6 22 -9 -169 -227 rcurveline
          -141 201 -20 27 8 9 59 6 rlinecurve
          7 -1 7 -3 7 vhcurveto
          -163 hlineto
          -2 -6 2 -8 3 -8 11 -1 12 -3 13 -4 193 -273 rcurveline
          -158 -228 -26 -32 -12 -11 -34 -6 rlinecurve
          -2 -6 -1 -8 1 -7 rrcurveto
          153 hlineto
          2 7 1 7 7 vvcurveto
          -25 2 -23 5 -22 10 165 233 rcurveline
          146 -207 20 -29 -8 -8 -58 -6 rlinecurve
          -6 0 -8 4 -7 vhcurveto
          162 hlineto
          1 7 -2 8 -2 6 -11 2 -12 3 -13 4 rrcurveto
          endchar
        </CharString>
        <CharString name="Y">
          -7 393 601 -52 callsubr
        </CharString>
        <CharString name="Yacute">
          -7 425 777 -38 callgsubr
          118 -40 -52 callsubr
        </CharString>
        <CharString name="Ydieresis">
          -7 324 666 -68 callgsubr
          189 -65 -52 callsubr
        </CharString>
        <CharString name="Z">
          -13 110 29 -41 callgsubr
        </CharString>
        <CharString name="Zacute">
          -13 461 777 -38 callgsubr
          -201 -612 -41 callgsubr
        </CharString>
        <CharString name="Zcaron">
          -13 325 647 rmoveto
          104 114 -27 callgsubr
          -167 -618 -41 callgsubr
        </CharString>
        <CharString name="Zdotaccent">
          -13 300 654 49 callsubr
          -190 -625 -41 callgsubr
        </CharString>
        <CharString name="a">
          -90 295 252 -98 callgsubr
        </CharString>
        <CharString name="aacute">
          -90 378 628 -38 callgsubr
          67 -240 -98 callgsubr
        </CharString>
        <CharString name="abreve">
          -90 308 635 5 callsubr
          -33 -383 -98 callgsubr
        </CharString>
        <CharString name="acircumflex">
          -90 218 569 50 callgsubr
          191 -245 -98 callgsubr
        </CharString>
        <CharString name="acute">
          -357 10 503 -23 callsubr
        </CharString>
        <CharString name="adieresis">
          -90 277 518 -68 callgsubr
          138 -266 -98 callgsubr
        </CharString>
        <CharString name="ae">
          169 295 252 rmoveto
          -33 vlineto
          -46 9 -39 15 -32 vhcurveto
          -46 -34 -40 -25 -53 hhcurveto
          -54 -35 30 55 55 30 40 79 20 hvcurveto
          268 68 rmoveto
          -127 -8 rlineto
          102 18 69 41 54 hhcurveto
          60 58 -37 -98 1 hvcurveto
          47 -35 rmoveto
          3 3 3 5 2 3 rrcurveto
          122 -70 68 -96 -51 -66 -27 -61 -43 vhcurveto
          56 -13 -41 32 -59 hhcurveto
          -54 -57 -21 -35 -44 hvcurveto
          9 -13 rlineto
          16 43 46 10 42 hhcurveto
          62 19 -33 -60 hvcurveto
          -48 vlineto
          -89 -21 rlineto
          -107 -24 -49 -45 -82 vvcurveto
          -66 52 -55 79 60 54 42 49 36 vhcurveto
          -62 38 63 -29 58 153 callgsubr
        </CharString>
        <CharString name="agrave">
          -90 244 504 8 callsubr
          67 -242 -98 callgsubr
        </CharString>
        <CharString name="amacron">
          -90 328 551 176 callsubr
          -33 -269 -98 callgsubr
        </CharString>
        <CharString name="ampersand">
          97 406 134 rmoveto
          -74 -68 -47 -26 -75 hhcurveto
          -70 -40 46 60 57 28 62 122 58 hvcurveto
          -2 79 rmoveto
          -32 39 -9 21 34 vvcurveto
          58 45 39 55 55 45 -39 -58 -62 -41 -36 -86 -34 vhcurveto
          173 -208 rmoveto
          74 86 22 25 27 16 41 5 rlinecurve
          1 6 1 10 -1 7 rrcurveto
          -155 hlineto
          -2 -6 -1 -9 -8 vvcurveto
          21 -2 18 -3 20 -7 -85 -97 rcurveline
          -138 165 rlineto
          91 31 73 37 84 vvcurveto
          74 -78 49 -75 -75 -78 -49 -80 -41 18 -32 38 -46 vhcurveto
          23 -28 rlineto
          -127 -46 -59 -67 -84 vvcurveto
          -95 71 -58 85 80 58 38 87 78 vhcurveto
          92 -112 rlineto
          104 166 callgsubr
          -39 2 -30 8 -35 43 rrcurveto
          endchar
        </CharString>
        <CharString name="aogonek">
          -90 295 252 rmoveto
          -178 vlineto
          -31 -30 -34 -12 -39 hhcurveto
          -54 -35 30 55 55 30 40 79 20 hvcurveto
          214 -371 rmoveto
          77 callsubr
          36 16 33 42 26 hvcurveto
          18 6 17 15 11 16 -3 7 rcurveline
          -3 -14 -13 -2 -10 hhcurveto
          -24 -8 15 40 hvcurveto
          253 vlineto
          79 -45 48 -72 -54 -57 -21 -35 -44 vhcurveto
          9 -13 rlineto
          16 43 46 10 42 hhcurveto
          62 19 -33 -60 hvcurveto
          -48 vlineto
          -89 -21 rlineto
          -107 -24 -49 -45 -82 vvcurveto
          -66 52 -55 79 46 41 25 30 28 vhcurveto
          5 -26 13 -18 19 -7 rrcurveto
          -44 -29 -23 -39 -42 62 callsubr
          endchar
        </CharString>
        <CharString name="apostrophemod">
          -387 54 566 -33 callsubr
          endchar
        </CharString>
        <CharString name="approxequal">
          57 79 344 133 callgsubr
          29 -170 133 callgsubr
          endchar
        </CharString>
        <CharString name="aring">
          -90 218 603 18 callsubr
          77 -241 -98 callgsubr
        </CharString>
        <CharString name="asciicircum">
          -101 30 213 rmoveto
          45 hlineto
          146 335 146 -335 rlineto
          45 hlineto
          -170 377 rlineto
          -42 hlineto
          endchar
        </CharString>
        <CharString name="asciitilde">
          57 79 266 rmoveto
          47 8 35 31 45 70 84 -83 96 hhcurveto
          72 50 48 74 11 hvcurveto
          -29 hlineto
          -47 -8 -35 -31 -45 -73 -97 83 -80 hhcurveto
          -72 -50 -48 -74 -11 hvcurveto
          endchar
        </CharString>
        <CharString name="asterisk">
          -80 222 676 rmoveto
          -20 5 -23 -5 -9 -5 16 -123 rcurveline
          -110 40 rlineto
          -9 -7 -7 -25 -16 vvcurveto
          117 -22 -83 -96 12 -16 20 -11 11 -2 rlinecurve
          63 108 72 -105 19 8 15 17 4 10 rlinecurve
          -87 88 112 20 1 15 -8 27 -8 7 rlinecurve
          -104 -41 rlineto
          endchar
        </CharString>
        <CharString name="at">
          325 520 155 rmoveto
          -83 -32 -55 -48 -53 hhcurveto
          -50 -43 51 114 18 hvcurveto
          121 19 68 69 72 hhcurveto
          57 18 -39 -57 -6 hvcurveto
          53 hmoveto
          75 8 -40 54 -82 hhcurveto
          -106 -93 -99 -126 -21 hvcurveto
          -121 -20 56 -78 85 hhcurveto
          54 53 35 54 32 hvcurveto
          -1 -10 rlineto
          -50 -5 20 -29 45 hhcurveto
          100 137 107 172 9 hvcurveto
          186 10 -141 127 -182 hhcurveto
          -246 -194 -204 -246 -13 hvcurveto
          -208 -11 135 -97 156 hhcurveto
          81 60 16 27 64 hvcurveto
          1 10 -4 7 -4 5 rrcurveto
          -19 -65 -58 -8 -65 hhcurveto
          -133 -115 78 203 11 hvcurveto
          215 11 146 185 237 hhcurveto
          168 108 -116 -165 -9 hvcurveto
          -163 -8 -110 -78 -64 hhcurveto
          -22 -2 13 24 3 hvcurveto
          endchar
        </CharString>
        <CharString name="atilde">
          -90 318 611 61 callsubr
          -48 -359 -98 callgsubr
        </CharString>
        <CharString name="b">
          -44 130 276 rmoveto
          108 12 61 43 62 hhcurveto
          63 65 -52 -139 -140 -67 -69 -85 -40 -36 7 20 -35 hvcurveto
          660 vmoveto
          -41 -8 -38 -12 -38 -17 rrcurveto
          -3 -6 -1 -6 -8 vvcurveto
          26 1 22 0 23 -1 rrcurveto
          -550 vlineto
          -38 -7 -39 -16 -33 vhcurveto
          9 -8 20 9 14 10 11 15 rlinecurve
          -23 39 41 -12 40 hhcurveto
          115 105 88 160 160 -97 69 -85 -60 -54 -39 -73 -25 hvcurveto
          endchar
        </CharString>
        <CharString name="backslash">
          -78 126 675 rmoveto
          172 -680 rlineto
          44 hlineto
          -171 680 rlineto
          endchar
        </CharString>
        <CharString name="bar">
          -215 145 675 rmoveto
          -680 44 680 vlineto
          endchar
        </CharString>
        <CharString name="braceleft">
          -172 95 308 rmoveto
          59 -5 11 -31 -41 -55 -40 -62 -83 vvcurveto
          -104 77 -55 139 vhcurveto
          20 vlineto
          -142 1 -26 70 62 83 39 47 73 vvcurveto
          51 -28 36 -46 12 vhcurveto
          46 12 28 36 51 73 -39 47 83 vvcurveto
          62 26 70 142 1 vhcurveto
          20 vlineto
          -139 -77 -55 -104 hvcurveto
          -83 40 -62 -55 vvcurveto
          -41 -11 -31 -59 -5 vhcurveto
          endchar
        </CharString>
        <CharString name="braceright">
          -172 206 423 rmoveto
          55 40 62 83 vvcurveto
          104 -77 55 -139 vhcurveto
          -20 vlineto
          142 -1 26 -70 -62 -83 -39 -47 -73 vvcurveto
          -51 28 -36 46 -12 vhcurveto
          -46 -12 -28 -36 -51 -73 39 -47 -83 vvcurveto
          -62 -26 -70 -142 -1 vhcurveto
          -20 vlineto
          139 77 55 104 hvcurveto
          83 -40 62 55 vvcurveto
          41 11 31 59 5 vhcurveto
          38 vlineto
          -59 5 -11 31 41 vvcurveto
          endchar
        </CharString>
        <CharString name="bracketleft">
          -248 150 743 rmoveto
          115 27 -165 -898 165 27 -115 hlineto
          endchar
        </CharString>
        <CharString name="bracketright">
          -248 30 -101 rmoveto
          -27 165 898 -165 -27 115 -844 vlineto
          endchar
        </CharString>
        <CharString name="breve">
          -299 212 635 5 callsubr
          endchar
        </CharString>
        <CharString name="brokenbar">
          -209 145 265 rmoveto
          -270 44 270 vlineto
          140 vmoveto
          270 -44 -270 vlineto
          endchar
        </CharString>
        <CharString name="bullet">
          -245 148 282 rmoveto
          31 23 22 28 30 -23 24 -31 -28 -22 -24 -30 -28 22 -22 28 hvcurveto
          endchar
        </CharString>
        <CharString name="c">
          -90 400 68 rmoveto
          4 callgsubr
          -138 87 -93 113 73 42 25 45 49 hvcurveto
          endchar
        </CharString>
        <CharString name="cacute">
          -90 400 68 rmoveto
          4 callgsubr
          -138 87 -93 113 73 42 25 45 49 hvcurveto
          -148 455 -23 callsubr
        </CharString>
        <CharString name="caron">
          -265 268 613 rmoveto
          -27 callgsubr
          48 hlineto
          endchar
        </CharString>
        <CharString name="ccaron">
          -90 400 68 rmoveto
          4 callgsubr
          -138 87 -93 113 73 42 25 45 49 hvcurveto
          -14 565 rmoveto
          -27 callgsubr
          48 hlineto
          endchar
        </CharString>
        <CharString name="ccedilla">
          -90 237 -72 rmoveto
          13 60 70 1 42 25 48 44 rlinecurve
          -10 10 rlineto
          4 callgsubr
          -119 65 -86 91 -21 hvcurveto
          -19 -91 rlineto
          -47 callsubr
          endchar
        </CharString>
        <CharString name="cedilla">
          -298 145 -72 rmoveto
          17 82 rlineto
          -49 hlineto
          -22 -108 rlineto
          -47 callsubr
          endchar
        </CharString>
        <CharString name="cent">
          -120 400 68 rmoveto
          -30 -47 -39 -15 -60 hhcurveto
          -94 -60 86 112 128 65 84 98 68 53 -39 -66 -2 hvcurveto
          16 -3 rlineto
          5 29 3 46 23 vvcurveto
          -32 26 -51 15 -50 1 rrcurveto
          65 -40 -68 vlineto
          -113 -16 -74 -94 -133 vvcurveto
          -131 78 -90 105 -9 vhcurveto
          -66 40 66 vlineto
          59 5 38 24 44 40 rrcurveto
          endchar
        </CharString>
        <CharString name="circumflex">
          -265 268 514 124 callgsubr
        </CharString>
        <CharString name="colon">
          -293 164 454 rmoveto
          22 -18 18 -22 -22 -16 -18 257 callsubr
          -344 vmoveto
          22 -18 17 -22 -22 -16 -17 257 callsubr
          endchar
        </CharString>
        <CharString name="comma">
          -387 54 -89 -33 callsubr
          endchar
        </CharString>
        <CharString name="commaaccent">
          -426 25 -197 27 callgsubr
        </CharString>
        <CharString name="commaaccent.alt">
          -428 23 151 callsubr
          endchar
        </CharString>
        <CharString name="copyright">
          215 498 177 rmoveto
          -25 -38 -32 -10 -41 hhcurveto
          -83 -53 67 108 113 50 73 99 41 35 -21 -47 hvcurveto
          5 6 0 2 4 hvcurveto
          6 21 4 34 20 vvcurveto
          11 -25 -38 10 -39 hhcurveto
          -114 -80 -90 -126 -128 75 -80 101 57 41 22 34 33 hvcurveto
          196 150 rmoveto
          202 -142 125 -187 -187 -142 -125 -202 -202 142 -125 187 187 142 125 202 vhcurveto
          -619 hmoveto
          189 131 108 159 159 131 -108 -189 -189 -131 -108 -159 -159 -131 108 189 vhcurveto
          endchar
        </CharString>
        <CharString name="currency">
          -111 215 195 rmoveto
          -47 -48 33 88 88 48 32 47 47 49 -32 -88 -88 -49 -33 -47 hvcurveto
          185 237 rmoveto
          -26 36 -60 -47 rlineto
          27 -26 -36 14 -37 hhcurveto
          -37 -35 -14 -27 -26 hvcurveto
          -60 47 -26 -36 63 -43 rlineto
          -10 -21 -6 -25 -28 vvcurveto
          -28 6 -25 10 -20 vhcurveto
          -63 -43 26 -36 60 46 rlineto
          -26 25 36 -14 37 hhcurveto
          37 36 14 26 26 hvcurveto
          60 -46 26 36 -63 43 rlineto
          10 20 6 25 28 vvcurveto
          28 -6 25 -10 20 vhcurveto
          endchar
        </CharString>
        <CharString name="d">
          -27 92 callgsubr
          118 -382 rmoveto
          -3 -14 -13 -2 -10 hhcurveto
          -23 -8 15 40 hvcurveto
          629 vlineto
          -41 -8 -38 -12 -39 54 callgsubr
          22 0 23 -1 rrcurveto
          -197 57 callsubr
          endchar
        </CharString>
        <CharString name="dagger">
          -85 389 563 rmoveto
          -39 -7 -18 -11 -66 hhcurveto
          -46 hlineto
          2 123 rlineto
          -29 callgsubr
          -176 hlineto
          -5 0 -10 2 -6 vhcurveto
          48 -5 14 -9 -29 vvcurveto
          2 -123 rlineto
          -55 103 callsubr
          56 hlineto
          12 -708 6 -3 6 0 5 3 rlinecurve
          13 708 rlineto
          47 212 callsubr
          33 0 72 -3 19 rlinecurve
          endchar
        </CharString>
        <CharString name="daggerdbl">
          -85 389 42 rmoveto
          -39 -7 -18 -11 -66 hhcurveto
          -58 hlineto
          14 235 rlineto
          24 vlineto
          -13 236 rlineto
          57 212 callsubr
          33 0 72 -3 19 rlinecurve
          -17 1 rlineto
          -39 -7 -18 -11 -66 hhcurveto
          -57 hlineto
          13 123 1 29 14 9 47 5 rlinecurve
          2 6 0 10 5 vvcurveto
          -176 hlineto
          -5 0 -10 2 -6 vhcurveto
          48 -5 11 -8 3 -30 13 -123 rcurveline
          -66 103 callsubr
          66 hlineto
          -13 -236 rlineto
          -24 vlineto
          13 -235 rlineto
          -66 103 callsubr
          66 hlineto
          -13 -123 -2 -29 -12 -9 -48 -5 rlinecurve
          -2 -6 0 -10 -5 vvcurveto
          176 hlineto
          5 0 10 -2 6 vhcurveto
          -47 5 -12 8 -3 30 -14 123 rcurveline
          58 212 callsubr
          19 0 72 -3 33 rlinecurve
          endchar
        </CharString>
        <CharString name="danda">
          -244 177 554 rmoveto
          -56 46 rlineto
          -598 vlineto
          56 -45 rlineto
          endchar
        </CharString>
        <CharString name="dcaron">
          -27 92 callgsubr
          50 297 rmoveto
          -41 -8 -38 -12 -39 54 callgsubr
          22 0 23 -1 rrcurveto
          -197 57 callsubr
          -5 7 rlineto
          -3 -14 -13 -2 -10 hhcurveto
          -23 -8 15 40 hvcurveto
          42 507 27 callgsubr
        </CharString>
        <CharString name="dcroat">
          -24 92 callgsubr
          50 153 rmoveto
          77 26 rlineto
          11 -4 12 -6 8 vhcurveto
          -67 -23 rlineto
          110 vlineto
          -41 -8 -38 -12 -39 54 callgsubr
          22 0 23 -1 rrcurveto
          -70 vlineto
          -107 -37 -1 -13 4 -10 7 -8 rlinecurve
          97 33 rlineto
          -92 57 callsubr
          -5 7 rlineto
          -3 -14 -13 -2 -10 hhcurveto
          -23 -8 15 40 hvcurveto
          endchar
        </CharString>
        <CharString name="degree">
          -244 149 393 rmoveto
          67 53 42 80 80 -53 43 -67 -67 -52 -43 -80 -80 52 -42 67 hvcurveto
          219 vmoveto
          38 33 -26 -70 -70 -33 -27 -38 -38 -32 27 70 70 32 26 38 hvcurveto
          endchar
        </CharString>
        <CharString name="dieresis">
          -330 203 555 51 callgsubr
        </CharString>
        <CharString name="divide">
          27 324 494 rmoveto
          209 callgsubr
          -342 vmoveto
          209 callgsubr
          -284 191 rmoveto
          -40 490 40 vlineto
          endchar
        </CharString>
        <CharString name="dollar">
          -87 257 277 rmoveto
          57 -30 48 -35 -67 vvcurveto
          -61 -43 -47 -62 -12 vhcurveto
          -36 324 rmoveto
          -57 29 -48 33 62 vvcurveto
          61 38 40 67 5 vhcurveto
          36 -1 rmoveto
          61 -6 39 -32 12 -62 rrcurveto
          -2 3 7 0 5 hhcurveto
          6 33 3 32 1 38 -39 16 -44 13 -54 2 rrcurveto
          75 -36 -76 vlineto
          -87 -7 -65 -54 -82 vvcurveto
          -94 77 -39 75 -37 vhcurveto
          -274 vlineto
          -83 1 -61 33 2 111 rrcurveto
          2 -6 -4 0 -5 hhcurveto
          -6 -38 -4 -45 2 -49 rrcurveto
          -30 51 47 -14 61 hhcurveto
          6 -75 36 78 hlineto
          94 14 60 60 86 vvcurveto
          99 -78 40 -76 37 vhcurveto
          endchar
        </CharString>
        <CharString name="dotaccent">
          -446 48 506 49 callsubr
          endchar
        </CharString>
        <CharString name="dotlessi">
          -283 151 459 82 callgsubr
        </CharString>
        <CharString name="dottedcircle">
          117 139 467 rmoveto
          -26 18 -19 26 26 18 19 26 25 -18 19 -26 -26 -18 -19 -25 vhcurveto
          -82 -110 rmoveto
          -25 20 -19 26 24 20 19 25 25 -20 19 -24 -26 -20 -19 -25 vhcurveto
          -13 -126 rmoveto
          -25 19 -18 25 26 18 18 256 callgsubr
          52 -116 rmoveto
          -26 18 -18 26 25 19 18 26 25 -19 19 -25 -26 -18 -19 -25 vhcurveto
          101 -75 rmoveto
          -26 19 -20 26 25 19 20 26 24 -19 20 -25 -26 -19 -20 -24 vhcurveto
          127 -16 rmoveto
          -26 18 -18 26 26 19 18 26 26 -19 18 -26 -26 -18 -18 -26 vhcurveto
          121 53 rmoveto
          -26 19 -18 25 25 20 18 26 25 -20 19 -25 -25 -19 -19 -25 vhcurveto
          73 98 rmoveto
          -25 19 -19 26 24 19 19 25 26 -19 19 -24 -26 -19 -19 -26 vhcurveto
          10 134 rmoveto
          -26 18 -18 26 25 19 18 26 26 -19 18 -25 -26 -18 -18 -26 vhcurveto
          -50 118 rmoveto
          -25 19 -19 25 26 18 19 256 callgsubr
          -95 68 rmoveto
          -24 19 -20 26 25 18 20 24 26 -18 19 -25 -26 -19 -19 -26 vhcurveto
          -126 15 rmoveto
          -26 18 -18 26 26 18 18 26 26 -18 18 -26 -26 -18 -18 -26 vhcurveto
          endchar
        </CharString>
        <CharString name="doubledanda">
          -23 177 553 257 callgsubr
          221 596 257 callgsubr
          endchar
        </CharString>
        <CharString name="dvA">
          234 314 41 rmoveto
          12 callsubr
          149 99 callgsubr
          -288 -75 callsubr
          endchar
        </CharString>
        <CharString name="dvAA">
          443 1006 625 rmoveto
          -532 -75 callsubr
          12 callsubr
          185 -583 vlineto
          -97 callgsubr
        </CharString>
        <CharString name="dvAI">
          28 199 799 rmoveto
          7 19 13 3 17 hhcurveto
          81 62 -97 -87 44 hvcurveto
          -490 -30 callsubr
          -32 48 rlineto
          -131 hlineto
          89 -42 -69 146 -134 hhcurveto
          -14 -28 -6 -9 -13 hvcurveto
          endchar
        </CharString>
        <CharString name="dvAU">
          506 672 861 rmoveto
          6 15 16 1 13 hhcurveto
          94 37 -119 -99 42 hvcurveto
          65 -47 -88 66 -88 hhcurveto
          -26 -26 -6 -13 -24 hvcurveto
          33 -42 rlineto
          9 20 19 5 20 hhcurveto
          72 69 -46 -63 45 hvcurveto
          -322 -75 callsubr
          12 callsubr
          163 196 callsubr
          -32 48 rlineto
          -153 hlineto
          65 -24 -75 229 -131 135 callsubr
          endchar
        </CharString>
        <CharString name="dvAbbreviationsign">
          -34 264 373 rmoveto
          -90 -2 -59 -67 -75 vvcurveto
          -81 57 -44 75 vhcurveto
          92 4 56 70 75 vvcurveto
          68 -41 52 -90 vhcurveto
          -38 -240 rmoveto
          -51 -25 38 44 90 78 39 58 48 28 -32 -41 -67 -49 -71 -87 hvcurveto
          endchar
        </CharString>
        <CharString name="dvAnusvara">
          -543 -174 812 -81 callsubr
          endchar
        </CharString>
        <CharString name="dvAnusvara.amI">
          -543 -17 813 -81 callsubr
          endchar
        </CharString>
        <CharString name="dvAvagraha">
          65 263 412 rmoveto
          -46 41 -23 39 28 vvcurveto
          36 24 21 38 vhcurveto
          253 hlineto
          -52 47 rlineto
          -223 hlineto
          -73 -28 -32 -42 -44 31 -55 42 -41 hvcurveto
          152 -148 rlineto
          37 -36 35 -50 -48 vvcurveto
          -58 -30 -52 -106 -93 -93 98 44 -29 vhcurveto
          -26 -24 rlineto
          -49 32 102 -115 129 hhcurveto
          113 51 77 72 53 -42 74 -66 62 hvcurveto
          endchar
        </CharString>
        <CharString name="dvB">
          -209 386 60 callgsubr
          -407 -42 callgsubr
          421 -311 rmoveto
          -19 -26 -18 -22 -19 -18 177 callsubr
          rcurveline
          -86 callsubr
          65 callsubr
          85 65 84 42 30 hvcurveto
          -203 -82 67 callgsubr
        </CharString>
        <CharString name="dvBA">
          28 471 577 rmoveto
          152 -46 callgsubr
          -644 -42 callgsubr
          435 134 callgsubr
          -83 -88 -72 -105 197 callsubr
          hvcurveto
          -3 -192 55 -57 rlineto
          -238 193 rmoveto
          -79 -60 67 73 40 14 35 23 27 hvcurveto
          192 -206 rlineto
          -23 -31 -31 -13 -28 hhcurveto
          endchar
        </CharString>
        <CharString name="dvBH">
          -221 106 299 rmoveto
          -66 callsubr
          240 vlineto
          -32 54 rlineto
          -208 162 hlineto
          2 callsubr
          vlineto
          214 326 rmoveto
          -104 -102 callgsubr
          104 hlineto
          endchar
        </CharString>
        <CharString name="dvBHA">
          18 581 625 20 callsubr
          rlineto
          27 -31 -29 7 -34 hhcurveto
          -68 -102 callgsubr
          68 hlineto
          128 callgsubr
        </CharString>
        <CharString name="dvBH_LA">
          483 1046 625 rmoveto
          -808 -102 callgsubr
          600 15 callgsubr
          -74 -63 -49 -70 -17 hvcurveto
          -196 162 hlineto
          -12 callsubr
          192 vlineto
          7 -114 94 -106 87 -75 30 21 rcurveline
          -96 callsubr
        </CharString>
        <CharString name="dvBH_NA">
          19 582 625 rmoveto
          -344 70 callgsubr
          -12 callsubr
          222 -6 vlineto
          -250 -220 -78 callgsubr
          168 158 rlineto
          -188 vlineto
          -97 callgsubr
        </CharString>
        <CharString name="dvBH_R">
          -221 407 236 rmoveto
          -293 -258 225 callsubr
          -81 75 rlineto
          -185 40 callgsubr
          -72 -60 callsubr
          78 223 vlineto
          -65 380 rmoveto
          -104 -102 callgsubr
          104 hlineto
          endchar
        </CharString>
        <CharString name="dvBH_RA">
          19 114 -22 rmoveto
          43 -30 249 234 222 callsubr
          142 99 callgsubr
          -334 hlineto
          32 -48 rlineto
          136 -278 -222 40 callgsubr
          -68 -60 callsubr
          76 222 -12 vlineto
          endchar
        </CharString>
        <CharString name="dvBH_R_YA">
          359 746 296 -9 callgsubr
          -684 -102 callgsubr
          183 hlineto
          -57 callsubr
          -184 40 callgsubr
          -72 -60 callsubr
          78 208 vlineto
          3 -5 3 -4 4 -5 -288 -253 rcurveline
          43 -30 270 254 rlineto
          -44 43 58 -32 56 -100 callgsubr
        </CharString>
        <CharString name="dvBH_VA">
          344 907 625 54 callsubr
          -69 -102 callgsubr
          69 hlineto
          53 26 -40 -51 hvcurveto
          -187 176 callgsubr
          -72 -60 callsubr
          152 callsubr
        </CharString>
        <CharString name="dvBH_YA">
          350 737 296 -9 callgsubr
          155 callgsubr
          -9 1 -9 3 -10 vhcurveto
          -175 162 hlineto
          -12 callsubr
          199 vlineto
          -63 41 78 -56 73 -100 callgsubr
        </CharString>
        <CharString name="dvB_BA">
          376 671 179 rmoveto
          -23 -31 -31 -13 -28 hhcurveto
          -79 -60 67 73 40 14 35 23 27 hvcurveto
          -155 -205 -57 callgsubr
          807 240 rmoveto
          -992 -42 callgsubr
          783 134 callgsubr
          -83 -88 -72 -105 -15 2 -14 3 -14 hvcurveto
          -18 -24 -17 -21 -18 -17 177 callsubr
          rcurveline
          -86 callsubr
          65 callsubr
          73 59 62 45 34 hvcurveto
          -64 40 73 -43 68 130 callsubr
        </CharString>
        <CharString name="dvB_BHA">
          347 14 callgsubr
          778 240 20 callsubr
          -28 25 -27 8 -30 1 rlinecurve
          0 -407 vlineto
          33 -48 rlineto
          397 hlineto
          63 callgsubr
          vlineto
          -58 -11 -10 -25 -5 1 -4 1 -5 hvcurveto
          -15 -19 -14 -17 -15 -14 177 callsubr
          rcurveline
          -86 callsubr
          65 callsubr
          69 56 56 43 35 hvcurveto
          -27 22 31 -22 22 hhcurveto
          -64 callsubr
          76 222 -253 vlineto
          -97 callgsubr
        </CharString>
        <CharString name="dvB_BH_RA">
          338 14 callgsubr
          759 240 154 callgsubr
          -25 22 -24 9 -26 2 -1 1 rcurveline
          -407 -42 callgsubr
          388 hlineto
          63 callgsubr
          -22 vlineto
          -18 callgsubr
          -7 2 -8 2 -8 hvcurveto
          -12 -15 -12 -14 -13 -12 177 callsubr
          rcurveline
          -86 callsubr
          65 callsubr
          66 55 51 43 34 hvcurveto
          -25 22 28 -19 21 134 callsubr
        </CharString>
        <CharString name="dvB_DA">
          335 14 callgsubr
          616 5 34 callgsubr
          -952 -42 callgsubr
          712 147 callgsubr
          -120 -66 -78 -92 hvcurveto
          -4 0 -5 -4 vvcurveto
          -16 -22 -16 -19 -17 -16 177 callsubr
          rcurveline
          -86 callsubr
          65 callsubr
          65 54 50 42 35 hvcurveto
          15 -38 25 -34 30 -26 rrcurveto
          -38 42 50 -25 54 hhcurveto
          38 37 13 18 31 hvcurveto
          96 -131 -94 callsubr
          -78 -83 77 86 111 67 40 107 vhcurveto
          endchar
        </CharString>
        <CharString name="dvB_DHA">
          -543 endchar
        </CharString>
        <CharString name="dvB_DH_VA">
          699 14 callgsubr
          1130 240 rmoveto
          -640 -42 callgsubr
          431 -306 hlineto
          -1 callgsubr
          -32 9 -30 14 -27 hvcurveto
          -40 -32 -58 -48 -77 -90 callsubr
          -610 -42 callgsubr
          406 1 59 hlineto
          -22 -13 -32 -30 -50 vvcurveto
          -51 44 -44 36 -24 vhcurveto
          -42 -15 -34 -32 -51 vvcurveto
          -10 vlineto
          -17 -22 -16 -20 -17 -16 177 callsubr
          rcurveline
          -86 callsubr
          65 callsubr
          67 55 53 43 35 hvcurveto
          -67 35 80 -50 81 hhcurveto
          57 69 44 53 44 hvcurveto
          -42 40 56 -26 56 hhcurveto
          -67 callgsubr
        </CharString>
        <CharString name="dvB_JA">
          540 14 callgsubr
          971 240 rmoveto
          -1156 -42 callgsubr
          947 69 callsubr
          -88 -54 111 94 -34 vhcurveto
          -8 22 -19 -26 -62 -83 -23 -19 rlinecurve
          147 callsubr
          65 callsubr
          74 62 65 72 54 hvcurveto
          -94 41 61 -86 106 -62 callgsubr
        </CharString>
        <CharString name="dvB_JHA">
          577 964 320 rmoveto
          -50 -38 -41 -11 -45 -48 -48 23 -38 -35 -66 6 callsubr
          158 179 hlineto
          -640 -397 -57 callgsubr
          1008 240 rmoveto
          -1193 -42 callgsubr
          749 -106 -160 hlineto
          -72 -57 -47 -64 -13 2 -14 3 -12 hvcurveto
          -18 -28 -30 -47 -52 -46 177 callsubr
          rcurveline
          -86 callsubr
          65 callsubr
          79 73 78 88 62 hvcurveto
          -41 28 42 -27 35 47 callsubr
        </CharString>
        <CharString name="dvB_J_YA">
          903 1290 296 -107 callsubr
          -966 -397 -57 callgsubr
          1334 240 rmoveto
          -1519 -42 callgsubr
          1017 hlineto
          -88 callgsubr
          -3 -1 -2 -2 -2 -1 rrcurveto
          24 -30 -48 23 -72 hhcurveto
          -171 hlineto
          -82 callgsubr
          -93 -54 121 97 -34 vhcurveto
          -19 -26 -52 -74 -24 -19 177 callsubr
          rcurveline
          -86 callsubr
          65 callsubr
          75 63 66 62 45 hvcurveto
          -89 42 64 -82 97 hhcurveto
          77 43 57 64 62 -30 59 -53 46 hvcurveto
          120 hlineto
          50 37 -21 -20 24 hvcurveto
          -83 18 104 -94 95 -100 callgsubr
        </CharString>
        <CharString name="dvB_JxA">
          540 494 -55 -81 callsubr
          -216 189 -57 callgsubr
          971 240 rmoveto
          -1156 -42 callgsubr
          947 69 callsubr
          -88 -54 111 94 -34 vhcurveto
          -8 22 -19 -26 -62 -83 -23 -19 rlinecurve
          147 callsubr
          65 callsubr
          74 62 65 72 54 hvcurveto
          -94 41 61 -86 106 -62 callgsubr
        </CharString>
        <CharString name="dvB_LA">
          506 14 callgsubr
          937 240 rmoveto
          -1122 -42 callgsubr
          913 15 callgsubr
          -86 -72 -67 -89 -1 hvcurveto
          -18 -24 -17 -21 -18 -17 177 callsubr
          rcurveline
          -86 callsubr
          65 callsubr
          64 53 48 42 35 hvcurveto
          28 -93 77 -84 73 -62 30 21 rcurveline
          -96 callsubr
        </CharString>
        <CharString name="dvB_L_YA">
          849 1236 296 -107 callsubr
          -912 -397 -57 callgsubr
          1280 240 rmoveto
          -1465 -42 callgsubr
          963 157 callgsubr
          -22 -32 -98 -53 vhcurveto
          17 -18 -43 32 -57 hhcurveto
          -46 -40 -74 callsubr
          -87 -72 -68 -90 hvcurveto
          -7 vlineto
          -15 -21 -15 -17 -16 -15 177 callsubr
          rcurveline
          -86 callsubr
          65 callsubr
          61 51 44 40 35 hvcurveto
          30 -90 75 -82 71 -61 30 21 rcurveline
          -81 callgsubr
          25 21 -8 -8 15 vhcurveto
          -12 -6 -6 -6 -12 10 callgsubr
        </CharString>
        <CharString name="dvB_NA">
          28 416 7 rmoveto
          55 -57 -26 callgsubr
          -644 -42 callgsubr
          435 -306 hlineto
          -22 -23 -30 -31 -18 -17 177 callsubr
          rcurveline
          -86 callsubr
          -106 95 -86 93 -13 hvcurveto
          -91 -80 -78 callgsubr
          190 180 rlineto
          -181 -62 67 callgsubr
        </CharString>
        <CharString name="dvB_R">
          -209 106 -23 rmoveto
          43 -30 139 128 140 140 9 10 rlinecurve
          -35 34 -57 -59 123 callgsubr
          131 476 rmoveto
          -53 callsubr
          -407 -42 callgsubr
          254 -434 67 callgsubr
        </CharString>
        <CharString name="dvB_RA">
          54 648 60 callgsubr
          -644 -42 callgsubr
          436 -305 hlineto
          -71 -72 123 callgsubr
          -149 -124 43 -30 102 94 110 107 55 55 rlinecurve
          1 -196 55 -57 rlineto
          627 vlineto
          -238 -434 67 callgsubr
        </CharString>
        <CharString name="dvB_SA">
          454 843 25 callsubr
          -519 -397 -57 callgsubr
          885 240 rmoveto
          -1070 -42 callgsubr
          549 -239 hlineto
          -46 -20 -15 -33 -19 -14 7 14 -17 vhcurveto
          -19 -26 -41 -54 -21 -18 177 callsubr
          rcurveline
          -86 callsubr
          65 callsubr
          80 62 74 44 32 hvcurveto
          63 -86 69 -82 81 -99 -70 callgsubr
        </CharString>
        <CharString name="dvB_SHA">
          468 354 625 rmoveto
          -407 -42 callgsubr
          406 hlineto
          -62 -397 -57 callgsubr
          439 -1 25 callgsubr
          -36 -32 13 20 -26 vhcurveto
          -4 -6 -20 -27 -35 -42 -18 -17 rlinecurve
          147 callsubr
          65 callsubr
          75 68 77 47 35 hvcurveto
          50 -63 81 -98 98 -112 -71 callsubr
        </CharString>
        <CharString name="dvB_TA">
          343 14 callgsubr
          774 240 rmoveto
          -959 -42 callgsubr
          750 -187 -166 hlineto
          -98 -57 -48 -76 -8 hvcurveto
          -19 -26 -18 -22 -19 -18 177 callsubr
          rcurveline
          -86 callsubr
          65 callsubr
          63 52 46 41 35 hvcurveto
          17 -76 45 -81 60 -79 26 callsubr
        </CharString>
        <CharString name="dvB_VA">
          366 14 callgsubr
          797 240 rmoveto
          -982 -42 callgsubr
          773 -306 hlineto
          -1 callgsubr
          -15 2 -14 3 -14 hvcurveto
          -18 -24 -17 -21 -18 -17 177 callsubr
          rcurveline
          -86 callsubr
          65 callsubr
          73 59 63 44 34 hvcurveto
          -59 38 69 -40 69 hhcurveto
          -67 callgsubr
        </CharString>
        <CharString name="dvB_YA">
          377 764 296 -107 callsubr
          -440 -397 -57 callgsubr
          808 240 rmoveto
          -993 -42 callgsubr
          491 -39 callsubr
          -20 6 -22 11 -21 vhcurveto
          -18 -25 -18 -22 -18 -17 177 callsubr
          rcurveline
          -86 callsubr
          65 callsubr
          80 62 74 44 32 hvcurveto
          -51 43 66 -40 62 -100 callgsubr
        </CharString>
        <CharString name="dvC">
          -91 504 60 callgsubr
          -524 -102 callgsubr
          532 -340 rmoveto
          -68 -46 -66 -46 -76 -44 callgsubr
          116 -92 92 90 52 54 68 51 vhcurveto
          endchar
        </CharString>
        <CharString name="dvCA">
          140 527 -9 rmoveto
          56 -41 -26 callgsubr
          -755 -102 callgsubr
          547 -318 hlineto
          -79 -49 -68 -57 -86 -44 callgsubr
          116 -92 92 82 51 45 60 47 vhcurveto
          endchar
        </CharString>
        <CharString name="dvCH">
          158 656 8 rmoveto
          29 34 240 callsubr
          rlinecurve
          45 52 29 65 70 vvcurveto
          77 -40 97 -94 221 callgsubr
          vhcurveto
          37 callgsubr
          -19 52 rlineto
          2 -15 -17 2 -19 hhcurveto
          -24 -26 122 callgsubr
          29 36 87 callsubr
          rrcurveto
          97 569 rmoveto
          -53 callsubr
          -773 -102 callgsubr
          608 -238 rmoveto
          150 callsubr
          -49 39 -49 48 70 vvcurveto
          64 36 68 65 53 17 -54 -53 vhcurveto
          endchar
        </CharString>
        <CharString name="dvCHA">
          152 300 287 rmoveto
          3 -15 -18 1 -19 hhcurveto
          -24 -25 -3 -6 -24 hvcurveto
          -27 21 -32 30 35 80 callsubr
          -38 23 -45 27 -45 33 rrcurveto
          45 52 29 65 70 vvcurveto
          65 -29 80 -66 23 vhcurveto
          97 210 99 callgsubr
          -767 -102 callgsubr
          501 -92 hlineto
          -72 -9 -37 -68 -69 vvcurveto
          -89 52 -60 68 -57 vhcurveto
          37 callgsubr
          99 79 rmoveto
          64 36 68 65 53 17 -54 -53 150 callsubr
          -49 39 -49 48 70 vvcurveto
          endchar
        </CharString>
        <CharString name="dvCH_RA">
          152 516 68 callgsubr
          -767 -102 callgsubr
          501 -65 callsubr
          -54 43 -42 36 -26 hvcurveto
          188 callgsubr
          -98 87 -74 111 -12 vhcurveto
          -136 -150 101 callsubr
          -145 168 57 13 57 31 45 43 rlinecurve
          20 callgsubr
        </CharString>
        <CharString name="dvCH_R_YA">
          649 515 27 callsubr
          696 468 rmoveto
          -1263 -102 callgsubr
          1056 -351 hlineto
          -20 callgsubr
          71 -89 vhcurveto
          -176 hlineto
          16 -19 -25 10 -30 hhcurveto
          221 callgsubr
          hvcurveto
          37 callgsubr
          -19 52 rlineto
          2 -15 -17 2 -19 hhcurveto
          -24 -26 122 callgsubr
          29 36 40 callsubr
          188 callgsubr
          -97 85 -73 108 -14 vhcurveto
          -135 -149 198 callsubr
          0 vlineto
          151 -180 27 18 -144 167 59 12 57 31 46 44 rlinecurve
          140 callgsubr
          240 callsubr
          rrcurveto
          45 52 29 65 70 vvcurveto
          32 -7 35 -15 31 vhcurveto
          161 hlineto
          11 callsubr
        </CharString>
        <CharString name="dvCH_YA">
          639 515 27 callsubr
          686 468 rmoveto
          -1253 -102 callgsubr
          1046 -351 hlineto
          -20 callgsubr
          71 -89 vhcurveto
          -166 hlineto
          16 -19 -25 10 -30 hhcurveto
          221 callgsubr
          hvcurveto
          37 callgsubr
          -19 52 rlineto
          2 -15 -17 2 -19 hhcurveto
          -24 -26 122 callgsubr
          29 36 80 callsubr
          240 callsubr
          rrcurveto
          45 52 29 65 70 vvcurveto
          32 -7 35 -15 31 vhcurveto
          151 hlineto
          11 callsubr
        </CharString>
        <CharString name="dvC_CA">
          490 437 375 rmoveto
          1 vlineto
          132 1 97 callgsubr
          -16 3 -16 5 -15 vhcurveto
          -60 -45 -62 -39 -70 hhcurveto
          -68 -61 55 64 79 66 42 75 12 hvcurveto
          717 250 rmoveto
          -1105 -102 callgsubr
          897 172 callgsubr
          -745 hlineto
          33 -50 177 2 97 callgsubr
          -102 116 -92 92 80 49 42 57 46 vhcurveto
          -58 41 72 -41 62 hhcurveto
          82 51 45 60 47 hvcurveto
          -4 -189 -29 callsubr
        </CharString>
        <CharString name="dvC_CHA">
          588 952 68 callgsubr
          -1203 -102 callgsubr
          937 -65 callsubr
          -54 43 -42 36 -26 hvcurveto
          -25 -13 -19 -19 -5 -29 rrcurveto
          -63 -48 -82 -43 -73 -44 callgsubr
          116 -92 92 73 62 36 50 47 vhcurveto
          -80 27 90 -55 104 hhcurveto
          226 callsubr
          hvcurveto
          20 callgsubr
        </CharString>
        <CharString name="dvC_CH_VA">
          596 953 27 callsubr
          -61 -274 rmoveto
          -85 -42 -62 -25 -52 hhcurveto
          -84 -42 58 54 78 63 36 77 7 hvcurveto
          5 hlineto
          46 47 13 23 44 hvcurveto
          82 535 rmoveto
          263 -46 callgsubr
          -1257 -102 callgsubr
          938 -92 hlineto
          -72 -9 -37 -68 -69 vvcurveto
          -89 52 -59 68 -58 vhcurveto
          -49 -55 -69 -34 -79 15 callsubr
          -19 52 rlineto
          2 -15 -17 2 -19 hhcurveto
          -24 -26 122 callgsubr
          29 36 40 callsubr
          -25 -12 -18 -19 -6 -28 rrcurveto
          -65 -47 -83 -43 -74 -44 callgsubr
          116 -92 92 74 61 36 50 48 vhcurveto
          17 -50 41 -40 54 -23 rrcurveto
          -41 -16 -45 -35 -66 vvcurveto
          -97 89 -85 103 62 56 38 186 callsubr
          487 vlineto
          8 6 7 7 7 7 140 callgsubr
          240 callsubr
          89 callgsubr
          endchar
        </CharString>
        <CharString name="dvC_MA">
          475 860 21 callgsubr
          70 callsubr
          -1088 -102 callgsubr
          580 -278 -22 hlineto
          -18 callgsubr
          -12 5 -14 7 -14 hvcurveto
          -61 -45 -63 -40 -71 -44 callgsubr
          116 -92 92 84 51 47 62 48 vhcurveto
          -21 20 24 -14 18 hhcurveto
          -64 callsubr
          76 244 -253 vlineto
          -97 callgsubr
        </CharString>
        <CharString name="dvC_NA">
          140 527 -9 rmoveto
          56 -41 -26 callgsubr
          -755 -102 callgsubr
          547 -331 hlineto
          -59 -50 -67 -64 -86 -42 callsubr
          -101 115 -93 93 3 vhcurveto
          -98 -86 -78 callgsubr
          192 182 rlineto
          endchar
        </CharString>
        <CharString name="dvC_R">
          -91 504 60 callgsubr
          -524 -102 callgsubr
          220 -638 rmoveto
          43 -30 304 288 -36 33 rlineto
          -61 -51 -60 -46 -76 -44 callgsubr
          122 -103 102 14 vhcurveto
          endchar
        </CharString>
        <CharString name="dvC_RA">
          160 755 60 callgsubr
          -738 -102 callgsubr
          530 -348 hlineto
          -61 -51 -60 -45 -75 -44 callgsubr
          122 -103 102 14 vhcurveto
          -167 -139 43 -30 267 253 rlineto
          -171 250 callgsubr
          endchar
        </CharString>
        <CharString name="dvC_YA">
          459 846 296 -9 callgsubr
          -1074 -102 callgsubr
          573 -39 callsubr
          -32 16 -36 25 -32 vhcurveto
          -63 -46 -63 -41 -72 -44 callgsubr
          116 -92 92 87 52 50 65 49 vhcurveto
          -37 41 54 -27 50 -100 callgsubr
        </CharString>
        <CharString name="dvCandrabindu">
          -543 -188 892 -81 callsubr
          -176 -93 148 callgsubr
        </CharString>
        <CharString name="dvD">
          1 268 -116 -66 callgsubr
          176 464 34 callgsubr
          -616 -102 callgsubr
          377 -137 -112 hlineto
          60 callsubr
        </CharString>
        <CharString name="dvDA">
          1 413 390 rmoveto
          187 183 vlineto
          -32 48 rlineto
          -616 hlineto
          32 -48 rlineto
          377 -137 -112 hlineto
          60 callsubr
        </CharString>
        <CharString name="dvDA_mvR">
          -56 436 113 rmoveto
          -47 -42 -76 -46 -74 hhcurveto
          -68 -54 46 66 76 75 17 64 33 30 -4 -4 15 hvcurveto
          -18 51 rlineto
          3 -24 -31 3 -29 hhcurveto
          -22 -21 -2 -3 -19 hvcurveto
          -21 14 -42 53 136 callgsubr
          41 -61 38 -24 hvcurveto
          -40 -15 -28 -38 -48 vvcurveto
          -90 89 -92 116 72 83 49 53 45 vhcurveto
          endchar
        </CharString>
        <CharString name="dvDD">
          -17 229 -176 -66 callgsubr
          -146 259 133 callsubr
          148 259 callsubr
          -599 -59 callgsubr
          endchar
        </CharString>
        <CharString name="dvDDA">
          -17 52 125 133 callsubr
          148 259 callsubr
          -599 -59 callgsubr
          endchar
        </CharString>
        <CharString name="dvDDH">
          -19 256 -138 -66 callgsubr
          319 721 -32 callsubr
          endchar
        </CharString>
        <CharString name="dvDDHA">
          -19 544 625 -32 callsubr
          endchar
        </CharString>
        <CharString name="dvDDH_DDHA">
          -22 538 625 rmoveto
          -571 -102 callgsubr
          349 -86 -109 hlineto
          -103 -83 -60 -90 -88 47 -75 76 -37 hvcurveto
          -78 -23 -45 -47 -68 142 callgsubr
          127 110 8 66 vhcurveto
          36 hlineto
          222 callgsubr
          -40 -52 -61 -50 27 -42 13 -13 hvcurveto
          -102 1 -84 64 94 vvcurveto
          127 110 8 66 vhcurveto
          128 136 166 hlineto
          -131 -318 rmoveto
          -66 -54 -37 -64 -7 249 callgsubr
          235 callsubr
          vhcurveto
          -149 -366 175 callgsubr
        </CharString>
        <CharString name="dvDDH_R">
          158 callsubr
          83 -400 rmoveto
          120 callgsubr
          128 184 167 -46 callgsubr
          201 callsubr
          -122 91 -99 112 -26 hvcurveto
          -140 -154 198 callsubr
          -50 -226 -66 callgsubr
          endchar
        </CharString>
        <CharString name="dvDDH_RA">
          158 callsubr
          30 153 rmoveto
          184 167 99 callgsubr
          201 callsubr
          -122 91 -99 112 -26 hvcurveto
          -140 -154 40 -32 150 180 151 -180 120 callgsubr
          endchar
        </CharString>
        <CharString name="dvDDH_YA">
          487 356 299 rmoveto
          -70 -41 -54 -61 hvcurveto
          2 -46 22 -36 17 -21 rrcurveto
          64 callsubr
          332 hlineto
          42 40 -12 -18 callsubr
          152 vlineto
          -32 48 rlineto
          -1083 -102 callgsubr
          349 -117 237 callgsubr
          -57 -80 -90 -56 23 -63 42 -47 hvcurveto
          -60 54 69 -27 71 hhcurveto
          204 callsubr
          hvcurveto
          229 161 rmoveto
          -181 117 470 -351 hlineto
          -20 callgsubr
          71 -89 vhcurveto
          -295 -296 rmoveto
          78 callgsubr
          -19 21 -12 30 30 vvcurveto
          endchar
        </CharString>
        <CharString name="dvDDHxA">
          -19 544 625 -32 callsubr
          -18 -268 -81 callsubr
          endchar
        </CharString>
        <CharString name="dvDD_DDA">
          47 callgsubr
          24 -36 43 -45 48 -23 rlinecurve
          -59 -15 -23 -33 -46 vvcurveto
          -88 77 -55 58 vhcurveto
          79 callgsubr
          rlineto
          -78 53 88 -64 98 hhcurveto
          105 87 65 73 60 -61 64 -66 hvcurveto
          131 callgsubr
          endchar
        </CharString>
        <CharString name="dvDD_DDHA">
          47 callgsubr
          29 -43 44 -44 48 -21 rlinecurve
          -66 -24 -38 -48 -62 142 callgsubr
          122 100 13 75 vhcurveto
          15 -209 175 callgsubr
        </CharString>
        <CharString name="dvDD_R">
          -17 440 -207 rmoveto
          27 18 -142 164 rlineto
          100 14 54 70 67 191 callsubr
          204 174 148 259 callsubr
          -599 -59 callgsubr
          -25 -22 49 -72 68 -55 70 -18 rlinecurve
          -140 -155 198 callsubr
          -36 -237 -66 callgsubr
          endchar
        </CharString>
        <CharString name="dvDD_RA">
          -17 429 162 callsubr
          -599 -59 callgsubr
          -25 -22 49 -72 68 -55 70 -18 rlinecurve
          -140 -155 101 callsubr
          -142 164 rlineto
          100 14 54 70 67 191 callsubr
          endchar
        </CharString>
        <CharString name="dvDD_VA">
          -23 467 207 rmoveto
          60 -61 64 -66 vhcurveto
          64 callgsubr
          29 -43 42 -41 51 -24 rlinecurve
          -59 -20 -37 -46 -52 vvcurveto
          -93 87 -80 92 62 46 35 186 callsubr
          452 vlineto
          25 24 15 29 30 vvcurveto
          -192 -138 rmoveto
          34 33 7 12 29 hvcurveto
          -125 246 callsubr
          73 63 42 60 -2 hvcurveto
          -2 13 13 -1 14 hhcurveto
          endchar
        </CharString>
        <CharString name="dvDD_YA">
          462 36 131 76 callgsubr
          374 hlineto
          42 40 -11 -3 callgsubr
          -31 48 rlineto
          -1072 -42 callgsubr
          371 -116 -163 hlineto
          -44 callsubr
          499 308 rmoveto
          -147 116 436 -351 hlineto
          -20 callgsubr
          72 -89 vhcurveto
          endchar
        </CharString>
        <CharString name="dvDDxA">
          -17 52 125 133 callsubr
          148 259 callsubr
          -599 -59 callgsubr
          184 -304 -81 callsubr
          endchar
        </CharString>
        <CharString name="dvDH">
          -179 125 473 rmoveto
          49 39 42 53 13 vhcurveto
          53 -46 callgsubr
          -290 -102 callgsubr
          23 hlineto
          123 102 callsubr
          62 77 53 59 43 vhcurveto
          -33 39 rlineto
          -42 -30 -62 -59 -85 hhcurveto
          -82 -53 45 69 65 62 20 59 24 25 -4 -2 16 hvcurveto
          -18 52 rlineto
          4 -23 -24 2 -24 hhcurveto
          -12 -12 -1 -2 -12 hvcurveto
          -30 22 -33 31 -1 44 rrcurveto
          264 104 rmoveto
          74 -46 callgsubr
          -74 hlineto
          endchar
        </CharString>
        <CharString name="dvDHA">
          59 390 577 rmoveto
          56 -342 hlineto
          -42 -29 -64 -65 -89 -90 callsubr
          -291 -102 callgsubr
          23 hlineto
          124 102 callsubr
          51 61 35 46 44 vhcurveto
          -2 -168 56 -41 -26 callgsubr
          -264 hlineto
          endchar
        </CharString>
        <CharString name="dvDH_MA">
          364 751 21 callgsubr
          70 callsubr
          -585 -102 callgsubr
          77 -278 -22 hlineto
          -18 callgsubr
          -21 13 -25 18 -21 hvcurveto
          -35 -34 -51 -34 -65 -90 callsubr
          -290 -102 callgsubr
          23 hlineto
          123 102 callsubr
          52 63 38 47 44 vhcurveto
          -9 13 13 -5 11 hhcurveto
          -64 callsubr
          76 244 -253 vlineto
          -97 callgsubr
        </CharString>
        <CharString name="dvDH_NA">
          59 125 473 rmoveto
          49 39 42 53 13 vhcurveto
          53 -46 callgsubr
          -290 -102 callgsubr
          23 hlineto
          123 -35 callgsubr
          -100 106 -92 109 6 vhcurveto
          -97 -82 -78 callgsubr
          170 160 rlineto
          -174 vlineto
          56 -41 -26 callgsubr
          -264 -102 callgsubr
          56 -348 hlineto
          -42 -35 -68 -59 -80 hhcurveto
          -82 -53 45 69 65 62 20 59 24 25 -4 -2 16 hvcurveto
          -18 52 rlineto
          4 -23 -24 2 -24 hhcurveto
          -12 -12 -1 -2 -12 hvcurveto
          -30 22 -33 31 -1 44 rrcurveto
          endchar
        </CharString>
        <CharString name="dvDH_N_YA">
          380 767 296 -9 callgsubr
          -586 -102 callgsubr
          85 -39 callsubr
          -36 19 -40 30 -35 vhcurveto
          -39 -37 -62 -49 -72 -90 callsubr
          -290 -102 callgsubr
          23 hlineto
          123 -35 callgsubr
          -100 106 -92 109 6 vhcurveto
          -97 -82 -78 callgsubr
          190 180 rlineto
          -35 41 50 -24 48 -100 callgsubr
        </CharString>
        <CharString name="dvDH_R">
          -179 488 205 rmoveto
          -35 33 rlineto
          -41 -33 -69 -69 -88 -90 callsubr
          -290 -102 callgsubr
          23 hlineto
          123 -35 callgsubr
          -103 115 -95 105 11 vhcurveto
          -144 -122 43 -30 rlineto
          194 648 rmoveto
          74 -46 callgsubr
          -74 hlineto
          endchar
        </CharString>
        <CharString name="dvDH_RA">
          -172 159 -41 rmoveto
          200 callgsubr
          -32 48 rlineto
          -254 -102 callgsubr
          56 -349 hlineto
          -42 -36 -65 -58 -81 -90 callsubr
          -301 -102 callgsubr
          23 hlineto
          134 -35 callgsubr
          -103 115 -95 105 11 vhcurveto
          endchar
        </CharString>
        <CharString name="dvDH_VA">
          380 943 625 rmoveto
          -600 -42 callgsubr
          391 -306 hlineto
          -1 callgsubr
          -32 9 -30 14 -27 hvcurveto
          -40 -32 -58 -48 -77 -90 callsubr
          -290 -102 callgsubr
          23 hlineto
          123 102 callsubr
          57 69 44 53 44 vhcurveto
          -42 40 56 -26 56 hhcurveto
          -67 callgsubr
        </CharString>
        <CharString name="dvDH_YA">
          374 761 296 -9 callgsubr
          -595 -102 callgsubr
          94 -39 callsubr
          -36 20 -41 30 -35 vhcurveto
          -40 -32 -58 -47 -76 -90 callsubr
          -290 -102 callgsubr
          23 hlineto
          123 102 callsubr
          59 72 47 55 44 vhcurveto
          -32 39 48 -22 46 -100 callgsubr
        </CharString>
        <CharString name="dvD_BA">
          23 callsubr
          -53 -526 rmoveto
          -52 -39 34 51 19 6 19 12 17 hvcurveto
          167 -88 rlineto
          -34 -28 -34 -18 -32 hhcurveto
          58 186 rmoveto
          240 callgsubr
          -8 -56 -16 -45 -21 -35 -163 86 rcurveline
          15 12 19 10 23 6 rrcurveto
          -4 17 17 -2 17 hhcurveto
          endchar
        </CharString>
        <CharString name="dvD_BHA">
          84 496 390 34 callgsubr
          -699 -102 callgsubr
          460 115 callgsubr
          36 -33 48 -27 47 3 -136 -100 rcurveline
          -80 112 -28 38 -29 14 -45 6 rlinecurve
          -33 4 -41 4 -28 -12 -27 -20 rlinecurve
          -55 -40 54 -20 55 40 43 31 44 -17 30 -41 rlinecurve
          95 -131 rlineto
          -32 -24 -11 -13 -13 vvcurveto
          -38 67 -23 50 18 16 4 6 9 vhcurveto
          5 3 3 5 5 vvcurveto
          18 -41 49 -8 11 vhcurveto
          226 166 96 -130 -94 callsubr
          -78 -83 77 86 111 67 40 107 vhcurveto
          endchar
        </CharString>
        <CharString name="dvD_B_RA">
          24 407 424 rmoveto
          153 132 callgsubr
          -103 157 callsubr
          242 callgsubr
          131 callsubr
          114 -65 69 10 vhcurveto
          -86 -86 44 -39 133 162 43 46 20 69 10 55 rlinecurve
          62 -84 -94 callsubr
          -79 -82 60 93 111 71 30 107 vhcurveto
          -53 -526 rmoveto
          -52 -39 34 51 19 6 19 12 17 hvcurveto
          167 -88 rlineto
          -34 -28 -34 -18 -32 hhcurveto
          58 186 rmoveto
          240 callgsubr
          -8 -56 -16 -45 -21 -35 -163 86 rcurveline
          15 12 19 10 23 6 rrcurveto
          -4 17 17 -2 17 hhcurveto
          endchar
        </CharString>
        <CharString name="dvD_DA">
          -6 476 94 rmoveto
          33 -35 54 -36 -33 -34 -25 -31 -22 15 -28 17 -25 vhcurveto
          -20 -33 -40 -10 -41 hhcurveto
          -80 -54 40 64 105 177 19 61 6 hvcurveto
          -26 45 -50 -4 -61 -13 -45 -16 rlinecurve
          -21 14 -45 56 136 callgsubr
          47 -61 41 -31 hvcurveto
          -32 -17 -42 -36 -55 vvcurveto
          -83 86 -85 116 41 50 11 20 41 vhcurveto
          108 -150 39 29 -119 138 rlineto
          24 19 17 23 28 vvcurveto
          endchar
        </CharString>
        <CharString name="dvD_DHA">
          120 691 625 rmoveto
          -743 -102 callgsubr
          513 -103 157 callsubr
          -48 15 -44 28 -37 hvcurveto
          -26 -13 -12 -10 -11 -8 rrcurveto
          -53 7 -58 30 50 vvcurveto
          44 39 25 29 10 vhcurveto
          -27 37 rlineto
          -28 -7 -64 -35 -64 vvcurveto
          -70 70 -44 65 -7 vhcurveto
          -21 -23 -13 -26 -28 vvcurveto
          -96 118 -45 78 125 71 77 114 23 vhcurveto
          87 -119 -94 callsubr
          -79 -82 60 93 111 71 30 107 vhcurveto
          126 153 174 hlineto
          -451 -430 rmoveto
          -38 42 60 -25 54 hhcurveto
          20 21 3 7 19 hvcurveto
          -81 -29 -59 -66 -91 hhcurveto
          -69 -55 40 59 46 44 33 43 22 hvcurveto
          endchar
        </CharString>
        <CharString name="dvD_GA">
          -22 488 1 rmoveto
          -94 callsubr
          -79 -82 60 93 111 71 30 107 vhcurveto
          126 136 174 hlineto
          163 callgsubr
          -86 157 callsubr
          -61 25 -53 39 -40 hvcurveto
          -154 vlineto
          -27 -39 -1 -24 -39 62 -72 37 20 3 20 28 hvcurveto
          198 vlineto
          -20 35 40 -12 38 hhcurveto
          10 21 1 8 25 hvcurveto
          -5 -56 0 -296 0 vvcurveto
          56 -45 rlineto
          418 vlineto
          endchar
        </CharString>
        <CharString name="dvD_GHA">
          120 549 424 rmoveto
          153 174 99 callgsubr
          -743 -102 callgsubr
          513 -103 -108 hlineto
          -98 -65 -45 -67 -20 hvcurveto
          -47 8 -113 2 -107 vvcurveto
          -73 70 -45 65 -6 vhcurveto
          -10 -9 -11 -17 -28 vvcurveto
          -96 118 -45 78 125 48 75 82 18 vhcurveto
          87 -119 -94 callsubr
          -79 -82 60 93 111 71 30 107 vhcurveto
          65 -330 rmoveto
          -47 -12 -48 -66 -91 hhcurveto
          -67 -57 37 56 41 40 25 19 7 hvcurveto
          64 -52 80 -27 72 26 rrcurveto
          -250 91 rmoveto
          -18 -9 -1 0 -15 -11 rrcurveto
          -53 7 -58 28 52 vvcurveto
          64 58 14 44 -4 vhcurveto
          -60 15 -44 28 -37 vhcurveto
          endchar
        </CharString>
        <CharString name="dvD_G_RA">
          -22 407 441 rmoveto
          136 132 callgsubr
          -86 157 callsubr
          -61 25 -53 39 -40 hvcurveto
          -154 vlineto
          -27 -39 -1 -24 -39 62 -72 37 20 3 20 28 hvcurveto
          198 vlineto
          -20 35 40 -12 38 hhcurveto
          10 21 1 8 25 hvcurveto
          -2 -24 -1 -69 -1 -70 -235 -211 rcurveline
          43 -30 191 183 rlineto
          -71 0 -60 0 vhcurveto
          56 -45 rlineto
          418 vlineto
          95 -130 -94 callsubr
          -79 -82 60 93 111 71 30 107 vhcurveto
          endchar
        </CharString>
        <CharString name="dvD_MA">
          238 343 13 rmoveto
          -18 callgsubr
          -43 55 -52 39 14 7 8 14 hvcurveto
          58 214 -175 vlineto
          56 -44 rlineto
          833 152 99 callgsubr
          -863 -102 callgsubr
          381 -103 -108 hlineto
          -120 -70 -55 -95 242 callgsubr
          -38 42 58 -24 54 hhcurveto
          23 24 4 8 22 hvcurveto
          -93 vlineto
          52 411 rmoveto
          153 218 -564 -214 122 vlineto
          32 23 21 28 25 vvcurveto
          34 -35 40 -32 -31 -11 -34 -41 vhcurveto
          -42 vlineto
          0 -24 -28 -67 -79 -82 60 93 111 81 20 97 vhcurveto
          endchar
        </CharString>
        <CharString name="dvD_NA">
          19 callsubr
          32 -29 41 -25 40 -3 -107 -55 rcurveline
          -16 -8 -14 -11 -18 vvcurveto
          -44 85 -34 35 15 16 7 15 4 0 3 -6 12 vhcurveto
          -5 11 -10 18 -19 31 165 94 rcurveline
          96 -131 -94 callsubr
          -78 -83 77 86 111 67 40 107 vhcurveto
          endchar
        </CharString>
        <CharString name="dvD_R">
          19 callsubr
          36 -33 42 -24 46 -5 -144 -86 rcurveline
          43 -30 229 146 96 -131 -94 callsubr
          -78 -83 77 86 111 67 40 107 vhcurveto
          22 -526 -66 callgsubr
          endchar
        </CharString>
        <CharString name="dvD_RA">
          19 callsubr
          36 -33 46 -26 47 -1 -156 -96 rcurveline
          43 -30 236 154 96 -131 -94 callsubr
          -78 -83 77 86 111 67 40 107 vhcurveto
          endchar
        </CharString>
        <CharString name="dvD_VA">
          23 callsubr
          5 -340 rmoveto
          240 callgsubr
          -137 -18 -73 -77 -67 hhcurveto
          215 callgsubr
          endchar
        </CharString>
        <CharString name="dvD_YA">
          68 59 405 rmoveto
          -51 41 -41 38 -24 vhcurveto
          -40 -15 -28 -28 -48 vvcurveto
          -90 89 -72 116 67 76 50 45 40 vhcurveto
          -3 -140 44 callgsubr
          -32 48 rlineto
          -684 -102 callgsubr
          281 -87 -83 hlineto
          -55 -64 -19 -66 hvcurveto
          396 172 rmoveto
          -375 vlineto
          -43 -31 -95 -79 -87 hhcurveto
          -52 -68 26 66 68 65 17 59 34 32 -6 -4 17 hvcurveto
          -18 51 rlineto
          3 -24 -28 3 -26 hhcurveto
          -20 -19 -2 -3 -19 hvcurveto
          -21 14 -42 33 42 vvcurveto
          53 48 6 33 vhcurveto
          124 130 hlineto
          endchar
        </CharString>
        <CharString name="dvE">
          28 603 625 rmoveto
          -658 -30 callsubr
          endchar
        </CharString>
        <CharString name="dvEcandra">
          28 603 625 rmoveto
          -658 -30 callsubr
          -539 268 81 callgsubr
        </CharString>
        <CharString name="dvEight">
          6 448 169 rmoveto
          -89 -23 -53 -81 -99 hhcurveto
          -83 -67 71 69 27 9 30 21 30 hvcurveto
          255 365 -42 31 -252 -349 rlineto
          -42 -57 -4 -34 -33 vvcurveto
          -73 107 -124 117 127 45 116 73 27 vhcurveto
          -39 29 rlineto
          endchar
        </CharString>
        <CharString name="dvEyelash">
          -354 241 60 callgsubr
          -262 -42 callgsubr
          -22 -262 rmoveto
          -56 67 65 -24 62 hhcurveto
          56 53 19 33 53 hvcurveto
          -28 45 rlineto
          -32 -58 -52 -19 -51 hhcurveto
          -49 -48 18 40 -50 hvcurveto
          endchar
        </CharString>
        <CharString name="dvEyelash_HA">
          139 584 396 163 callsubr
          -755 -42 callgsubr
          548 260 callsubr
          hlineto
          -65 -37 -31 -51 -14 2 -14 6 -16 hvcurveto
          -25 -49 -46 -14 -44 214 callsubr
          47 46 14 24 45 hvcurveto
          10 -14 14 -15 17 -16 rrcurveto
          -38 -32 -26 -46 -50 -59 callsubr
        </CharString>
        <CharString name="dvEyelash_YA">
          260 647 296 -9 callgsubr
          -876 -42 callgsubr
          374 -39 callsubr
          -6 vlineto
          -25 -50 -45 -15 -45 214 callsubr
          44 42 12 21 42 hvcurveto
          -72 35 89 -70 81 -100 callgsubr
        </CharString>
        <CharString name="dvFive">
          77 308 -41 rmoveto
          272 -95 458 170 -24 hvcurveto
          -56 27 14 -72 13 -108 7 -74 rlinecurve
          -39 -30 -51 -30 -55 hhcurveto
          -88 -46 86 69 56 18 45 27 46 hvcurveto
          -44 29 rlineto
          -32 -65 -13 -42 -52 vvcurveto
          -127 108 -92 93 44 50 30 22 25 vhcurveto
          -147 3 -15 -141 -135 hhcurveto
          -18 -21 8 7 -10 hvcurveto
          33 -18 -34 81 -35 hhcurveto
          -31 -19 -27 -29 -53 82 -42 31 -13 hvcurveto
          117 -197 33 25 -112 165 rlineto
          -1 3 22 -6 20 hhcurveto
          endchar
        </CharString>
        <CharString name="dvFour">
          78 287 348 rmoveto
          -228 274 -29 -21 233 -280 -80 -92 rlineto
          -32 -36 -17 -22 -40 vvcurveto
          -84 94 -91 92 100 38 69 56 44 -19 53 -48 59 vhcurveto
          -63 78 215 277 -39 30 rlineto
          -288 -440 rmoveto
          88 105 6 -6 rlineto
          41 -41 57 -62 -77 vvcurveto
          -67 -43 -34 -65 -100 -48 108 74 64 vhcurveto
          endchar
        </CharString>
        <CharString name="dvG">
          -252 311 625 rmoveto
          -363 -86 callgsubr
          157 vlineto
          endchar
        </CharString>
        <CharString name="dvGA">
          -7 436 577 rmoveto
          152 -46 callgsubr
          -608 -86 callgsubr
          194 -582 vlineto
          56 -45 rlineto
          endchar
        </CharString>
        <CharString name="dvGH">
          -162 449 207 rmoveto
          -47 -38 -58 -50 -80 hhcurveto
          -22 callsubr
          223 -46 callgsubr
          -453 68 callsubr
          59 65 39 67 49 vhcurveto
          endchar
        </CharString>
        <CharString name="dvGHA">
          79 522 213 callgsubr
          -694 68 callsubr
          55 61 34 60 48 vhcurveto
          -4 -166 rlineto
          -154 377 rmoveto
          3 -20 -21 2 -22 hhcurveto
          -23 -23 -2 -5 -22 hvcurveto
          -35 29 -26 33 38 vvcurveto
          59 47 41 43 11 vhcurveto
          256 -346 hlineto
          -49 -32 -66 -72 -95 161 callgsubr
          endchar
        </CharString>
        <CharString name="dvGH_MA">
          385 772 21 callgsubr
          -460 -209 rmoveto
          3 -20 -21 2 -22 hhcurveto
          -23 -23 -2 -5 -22 hvcurveto
          -35 29 -26 33 38 vvcurveto
          59 47 41 43 11 vhcurveto
          262 -278 -22 hlineto
          -18 callgsubr
          -22 15 -27 19 -22 hvcurveto
          -42 -38 -54 -41 -72 161 callgsubr
          618 308 rmoveto
          -1000 68 callsubr
          57 62 36 62 48 vhcurveto
          -7 13 12 -5 10 hhcurveto
          -64 callsubr
          76 244 -253 vlineto
          -97 callgsubr
        </CharString>
        <CharString name="dvGH_NA">
          79 674 60 callgsubr
          -694 -102 callgsubr
          62 hlineto
          -5 callgsubr
          -101 117 -94 111 3 vhcurveto
          -109 -97 -78 callgsubr
          194 183 rlineto
          -166 250 callgsubr
          -249 -467 rmoveto
          -22 callsubr
          256 -347 hlineto
          -64 -40 -74 -56 -79 hhcurveto
          endchar
        </CharString>
        <CharString name="dvGH_R">
          -162 155 -66 rmoveto
          43 -30 286 270 -35 33 rlineto
          -42 -37 -59 -55 -80 hhcurveto
          -22 callsubr
          223 -46 callgsubr
          -453 -102 callgsubr
          62 hlineto
          -5 callgsubr
          -104 122 -97 118 9 vhcurveto
          endchar
        </CharString>
        <CharString name="dvGH_RA">
          92 185 -66 rmoveto
          43 -30 251 237 rlineto
          -150 vlineto
          56 -41 -26 callgsubr
          -689 -102 callgsubr
          74 hlineto
          -5 callgsubr
          -104 122 -97 118 9 vhcurveto
          -38 44 rmoveto
          -22 callsubr
          239 -370 hlineto
          -42 -37 -59 -55 -80 hhcurveto
          endchar
        </CharString>
        <CharString name="dvGH_YA">
          370 757 296 -107 callsubr
          -445 -209 rmoveto
          3 -20 -21 2 -22 hhcurveto
          -23 -23 -2 -5 -22 hvcurveto
          -35 29 -26 33 38 vvcurveto
          59 47 41 43 11 vhcurveto
          254 -39 callsubr
          -42 27 -48 40 -39 vhcurveto
          -44 -38 -56 -44 -75 161 callgsubr
          603 308 rmoveto
          -985 68 callsubr
          59 64 39 66 49 vhcurveto
          -25 36 41 -17 40 -100 callgsubr
        </CharString>
        <CharString name="dvG_BA">
          343 638 179 29 callgsubr
          -958 -86 callgsubr
          544 -298 vlineto
          36 callsubr
          -83 -88 -72 -105 -114 112 -92 99 137 callsubr
        </CharString>
        <CharString name="dvG_BHA">
          311 874 625 20 callsubr
          rlineto
          26 -30 -29 8 -33 hhcurveto
          -363 -86 callgsubr
          155 vlineto
          128 callgsubr
        </CharString>
        <CharString name="dvG_BH_YA">
          639 1026 296 -9 callgsubr
          -676 -102 callgsubr
          175 hlineto
          -57 callsubr
          -176 162 hlineto
          45 -14 28 -28 28 vhcurveto
          -9 9 -10 10 -12 10 -29 25 -28 8 -31 1 rrcurveto
          0 -363 vlineto
          -87 callsubr
          150 -79 callsubr
          151 vlineto
          63 callgsubr
          -22 vlineto
          -66 callsubr
          200 vlineto
          -63 41 78 -56 73 -100 callgsubr
        </CharString>
        <CharString name="dvG_DA">
          282 695 390 34 callgsubr
          -898 -86 callgsubr
          453 -137 -112 vlineto
          60 callsubr
        </CharString>
        <CharString name="dvG_DHA">
          -543 endchar
        </CharString>
        <CharString name="dvG_DH_VA">
          660 1223 97 callsubr
          -34 19 -30 hvcurveto
          -37 -34 -54 -40 -70 -90 callsubr
          -586 -86 callgsubr
          157 0 vlineto
          79 102 callsubr
          54 64 40 48 45 vhcurveto
          -36 38 53 -23 52 hhcurveto
          -67 callgsubr
        </CharString>
        <CharString name="dvG_DH_YA">
          693 1080 296 -9 callgsubr
          -592 -102 callgsubr
          91 -39 callsubr
          -34 18 -38 28 -34 vhcurveto
          -41 -32 -59 -52 -80 -90 callsubr
          -600 -86 callgsubr
          157 0 vlineto
          93 102 callsubr
          60 74 50 57 44 vhcurveto
          -35 41 50 -24 48 -100 callgsubr
        </CharString>
        <CharString name="dvG_GA">
          246 809 625 rmoveto
          -861 -86 callgsubr
          197 -243 vlineto
          -27 -39 -1 -24 -39 62 -72 37 20 3 20 28 hvcurveto
          211 callgsubr
        </CharString>
        <CharString name="dvG_GHA">
          381 768 231 rmoveto
          -49 -32 -66 -72 -95 hhcurveto
          -22 callsubr
          256 hlineto
          70 callsubr
          -996 -86 callgsubr
          158 vlineto
          -5 callgsubr
          -104 119 -91 116 55 61 34 60 48 vhcurveto
          -4 -166 -29 callsubr
        </CharString>
        <CharString name="dvG_JA">
          477 1040 625 rmoveto
          -1092 -86 callgsubr
          678 -183 -317 vlineto
          -102 callsubr
          235 -353 hlineto
          233 callsubr
          endchar
        </CharString>
        <CharString name="dvG_LA">
          481 1043 625 rmoveto
          -1095 -86 callgsubr
          681 -190 vlineto
          17 -27 -39 11 -36 -105 callsubr
          26 29 -6 -7 20 vhcurveto
          -360 vlineto
          56 -44 -64 callgsubr
          endchar
        </CharString>
        <CharString name="dvG_MA">
          326 713 21 callgsubr
          70 callsubr
          -941 -86 callgsubr
          227 -278 176 callgsubr
          -68 -60 callsubr
          76 244 -253 vlineto
          -97 callgsubr
        </CharString>
        <CharString name="dvG_NA">
          -7 436 577 rmoveto
          152 -46 callgsubr
          -608 -86 callgsubr
          194 -322 vlineto
          -258 -227 -78 callgsubr
          176 166 rlineto
          -204 vlineto
          56 -45 rlineto
          endchar
        </CharString>
        <CharString name="dvG_NNA">
          486 644 330 -21 callgsubr
          405 48 rmoveto
          -1101 -86 callgsubr
          198 -204 vlineto
          -47 16 -60 51 -45 vhcurveto
          52 callgsubr
        </CharString>
        <CharString name="dvG_N_YA">
          334 721 296 -9 callgsubr
          -949 -86 callgsubr
          242 26 callgsubr
          -26 11 -29 17 -27 vhcurveto
          -245 -217 -78 callgsubr
          189 178 rlineto
          -48 43 64 -37 59 -100 callgsubr
        </CharString>
        <CharString name="dvG_R">
          -252 311 625 rmoveto
          -363 -86 callgsubr
          157 vlineto
          43 -316 rmoveto
          -306 -274 225 callsubr
          rlineto
          endchar
        </CharString>
        <CharString name="dvG_RA">
          74 callsubr
          endchar
        </CharString>
        <CharString name="dvG_R_YA">
          334 721 296 -9 callgsubr
          -949 -86 callgsubr
          242 26 callgsubr
          -26 11 -29 17 -28 vhcurveto
          -287 -257 43 -30 270 254 rlineto
          -48 43 64 -37 59 -100 callgsubr
        </CharString>
        <CharString name="dvG_SA">
          413 802 25 callsubr
          174 48 rmoveto
          -1028 -86 callgsubr
          302 -239 vlineto
          -70 callsubr
          -27 -25 74 -111 86 -102 102 -124 rlinecurve
          43 28 -80 87 -86 99 -37 56 rlinecurve
          -50 callgsubr
          -35 callsubr
          endchar
        </CharString>
        <CharString name="dvG_VA">
          320 883 625 rmoveto
          -935 -86 callgsubr
          521 72 callsubr
        </CharString>
        <CharString name="dvG_YA">
          349 736 296 -9 callgsubr
          -964 -86 callgsubr
          257 vlineto
          50 -27 29 -41 -32 vvcurveto
          -28 -26 -36 -124 -62 vhcurveto
          -12 -6 -6 -6 -12 10 callgsubr
        </CharString>
        <CharString name="dvGx">
          -252 311 625 rmoveto
          -363 -86 callgsubr
          157 vlineto
          -232 -623 -81 callsubr
          endchar
        </CharString>
        <CharString name="dvGxA">
          -7 436 577 rmoveto
          152 -46 callgsubr
          -608 -86 callgsubr
          194 -582 vlineto
          56 -45 rlineto
          -325 24 -81 callsubr
          endchar
        </CharString>
        <CharString name="dvGx_R">
          -252 311 625 rmoveto
          -363 -86 callgsubr
          157 vlineto
          43 -316 rmoveto
          -306 -274 225 callsubr
          rlineto
          -171 -290 -81 callsubr
          endchar
        </CharString>
        <CharString name="dvGx_RA">
          74 callsubr
          -349 -627 -81 callsubr
          endchar
        </CharString>
        <CharString name="dvH">
          -78 298 225 rmoveto
          228 hlineto
          -37 47 rlineto
          -220 hlineto
          -33 -32 -10 -16 -28 hvcurveto
          -18 18 -26 30 41 109 callgsubr
          175 181 101 -46 callgsubr
          -537 -102 callgsubr
          380 -131 -184 -19 callsubr
          vhcurveto
          endchar
        </CharString>
        <CharString name="dvHA">
          55 callgsubr
          -135 195 -100 58 -36 vhcurveto
          32 21 rlineto
          -59 34 -177 87 111 212 callgsubr
        </CharString>
        <CharString name="dvHA_mU">
          55 callgsubr
          -106 120 -84 80 -49 vhcurveto
          -23 -15 -16 -26 -4 -37 43 -26 rcurveline
          106 callgsubr
          -75 43 -120 75 91 212 callgsubr
        </CharString>
        <CharString name="dvHA_mUU">
          55 callgsubr
          -92 90 -75 76 -51 vhcurveto
          -59 -6 -50 -40 -64 vvcurveto
          -56 60 -73 72 49 30 42 44 7 vhcurveto
          230 callsubr
          63 58 20 33 71 81 -62 -106 72 hvcurveto
          24 22 -53 80 -68 74 -78 28 rlinecurve
          -75 43 -123 75 93 212 callgsubr
        </CharString>
        <CharString name="dvHA_mvR">
          43 427 161 rmoveto
          215 callsubr
          58 48 3 61 vhcurveto
          175 181 229 -46 callgsubr
          -673 200 callsubr
          58 -53 hvcurveto
          -39 -31 52 callsubr
          48 43 -20 -31 -13 -17 -9 -21 -10 vhcurveto
          -37 -18 -52 -19 -49 vvcurveto
          -61 68 -50 57 47 56 33 24 27 vhcurveto
          -29 32 rlineto
          -29 -35 -36 -22 -46 hhcurveto
          -30 -38 14 39 hvcurveto
          73 131 -2 54 vvcurveto
          endchar
        </CharString>
        <CharString name="dvH_LA">
          -8 302 -35 rmoveto
          -42 30 -31 39 46 vvcurveto
          36 24 17 27 21 13 -8 -8 7 vhcurveto
          -4 -13 0 -4 -14 vvcurveto
          -14 2 -14 4 -11 vhcurveto
          35 -17 rlineto
          -3 13 -2 15 14 vvcurveto
          32 11 31 40 5 6 0 -1 6 vhcurveto
          -133 vlineto
          43 -35 rlineto
          -54 callgsubr
          60 -81 94 -121 -33 -32 -10 -16 -28 vhcurveto
          -18 18 -26 30 41 109 callgsubr
          175 181 225 callgsubr
          -626 hlineto
          32 -48 rlineto
          388 -131 -184 -19 callsubr
          61 50 -32 -33 15 vhcurveto
          5 -11 -13 3 -12 hhcurveto
          -21 -17 -12 -12 -9 hvcurveto
          11 -13 -18 13 -37 hhcurveto
          -38 -36 -28 -46 -64 49 -49 41 -31 hvcurveto
          endchar
        </CharString>
        <CharString name="dvH_MA">
          189 320 128 rmoveto
          -66 callsubr
          178 -201 vlineto
          56 -44 rlineto
          748 152 99 callgsubr
          -819 -102 callgsubr
          348 -131 -144 hlineto
          -65 -37 -31 -51 -37 16 -43 52 -49 hvcurveto
          -36 -31 -22 -47 1 -57 3 -135 189 -102 61 -34 32 21 rcurveline
          -59 34 -177 87 111 vvcurveto
          82 62 61 82 49 21 -39 -38 vhcurveto
          -20 vlineto
          28 449 rmoveto
          207 -449 -178 15 hlineto
          42 -66 87 -90 -29 -27 -7 -12 -24 vhcurveto
          -17 18 -20 27 37 109 callgsubr
          135 hlineto
          endchar
        </CharString>
        <CharString name="dvH_NA">
          -8 409 396 rmoveto
          181 182 99 callgsubr
          -626 hlineto
          32 -48 rlineto
          388 -131 -184 -19 callsubr
          24 35 -10 -25 26 vhcurveto
          -156 -110 rlineto
          -9 -7 -14 -10 -14 vvcurveto
          -31 62 -28 45 19 17 6 15 6 -3 5 -5 7 vhcurveto
          -38 49 107 75 rlineto
          -152 vlineto
          43 -35 rlineto
          -54 callgsubr
          60 -82 94 -100 -33 -32 -10 -16 -28 vhcurveto
          -18 18 -26 30 41 109 callgsubr
          endchar
        </CharString>
        <CharString name="dvH_NNA">
          9 466 -64 rmoveto
          182 vlineto
          60 -94 94 -100 -43 -37 -10 -18 -30 vhcurveto
          -17 17 -20 30 44 109 callgsubr
          175 181 225 callgsubr
          -626 115 callsubr
          17 -45 57 -52 hvcurveto
          -40 -31 -23 -47 -51 190 callgsubr
          41 18 36 31 26 vhcurveto
          -61 vlineto
          -27 5 -30 29 -28 vhcurveto
          -27 27 30 -11 24 hhcurveto
          49 30 40 42 hvcurveto
          120 vlineto
          27 -16 21 -25 -27 vvcurveto
          -164 vlineto
          -117 254 rmoveto
          9 10 -2 -2 10 hvcurveto
          -121 vlineto
          -46 -17 -19 -36 -40 -21 31 48 vhcurveto
          94 vlineto
          11 24 29 6 32 hhcurveto
          endchar
        </CharString>
        <CharString name="dvH_RA">
          -26 262 3 rmoveto
          129 138 rlineto
          -140 vlineto
          43 -35 rlineto
          -54 callgsubr
          60 -82 94 -100 -31 -29 -9 -14 -26 vhcurveto
          -17 17 -24 29 40 109 callgsubr
          175 181 172 -46 callgsubr
          -616 115 callsubr
          17 -44 56 -51 hvcurveto
          -38 -32 -24 -47 -52 190 callgsubr
          82 66 61 88 34 40 -19 -24 21 vhcurveto
          -155 -146 rlineto
          endchar
        </CharString>
        <CharString name="dvH_VA">
          -8 444 -24 rmoveto
          142 vlineto
          60 -82 94 -100 -33 -32 -10 -16 -28 vhcurveto
          -18 18 -26 30 41 109 callgsubr
          175 181 225 callgsubr
          -626 hlineto
          32 -48 rlineto
          388 -131 -184 -19 callsubr
          35 42 -21 -25 20 vhcurveto
          4 -6 4 -5 2 -6 rrcurveto
          10 -30 -26 5 -23 hhcurveto
          -94 -46 -75 -48 -38 43 -48 64 46 42 42 51 27 hvcurveto
          -50 vlineto
          -141 -7 rmoveto
          -18 -21 9 29 52 57 50 71 13 23 -3 -3 14 hvcurveto
          -51 -26 -55 -83 -58 hhcurveto
          endchar
        </CharString>
        <CharString name="dvH_YA">
          169 78 100 rmoveto
          -51 callsubr
          48 43 -20 -31 -15 -12 -16 -79 -42 vhcurveto
          -10 -5 -10 -9 -13 vvcurveto
          -61 83 -80 83 50 44 29 37 37 vhcurveto
          -1 -170 45 -35 rlineto
          783 152 99 callgsubr
          -799 200 callsubr
          58 -53 hvcurveto
          -39 -31 -26 -46 -50 vvcurveto
          47 235 rmoveto
          58 48 3 61 vhcurveto
          175 181 158 -508 hlineto
          -45 -26 -64 -51 -57 hhcurveto
          -42 -61 25 46 21 18 10 11 8 hvcurveto
          32 22 49 17 39 vvcurveto
          215 callsubr
          endchar
        </CharString>
        <CharString name="dvI">
          1 471 132 rmoveto
          54 -59 80 -71 vhcurveto
          -40 -61 6 callsubr
          174 168 259 callsubr
          -597 -42 callgsubr
          371 -122 41 callgsubr
          57 51 37 41 hhcurveto
          38 31 -28 -40 -90 -144 -48 -66 9 hvcurveto
          53 -40 -39 51 -23 hhcurveto
          -23 -21 -12 -17 -44 66 -50 66 -19 hvcurveto
          158 -185 37 26 -149 152 rlineto
          83 137 55 101 hvcurveto
          endchar
        </CharString>
        <CharString name="dvII">
          1 511 853 -8 callsubr
        </CharString>
        <CharString name="dvII_Anusvara">
          1 434 723 -81 callsubr
          31 84 -8 callsubr
        </CharString>
        <CharString name="dvJ">
          -47 548 60 callgsubr
          -568 -102 callgsubr
          582 -183 rmoveto
          -310 -99 callgsubr
          258 hlineto
          endchar
        </CharString>
        <CharString name="dvJA">
          182 625 213 callgsubr
          -797 -102 callgsubr
          589 -183 -317 -99 callgsubr
          235 -353 hlineto
          endchar
        </CharString>
        <CharString name="dvJH">
          -23 571 577 rmoveto
          -31 48 rlineto
          -593 -42 callgsubr
          379 -106 41 callgsubr
          73 callgsubr
          38 44 21 22 26 hvcurveto
          -28 38 rlineto
          -29 -32 -44 -13 -36 hhcurveto
          -38 -46 16 6 -36 hvcurveto
          -5 -5 1 -4 -35 -66 6 callsubr
          158 hlineto
          endchar
        </CharString>
        <CharString name="dvJHA">
          206 649 255 callgsubr
          -822 -42 callgsubr
          378 -106 41 callgsubr
          58 callsubr
          rlineto
          -1 329 rmoveto
          -50 -38 -41 -11 -45 -48 -48 23 -38 -35 -66 6 callsubr
          158 179 hlineto
          endchar
        </CharString>
        <CharString name="dvJH_MA">
          514 901 107 callsubr
          -25 -18 -8 -20 -3 hvcurveto
          -8 -22 -22 -4 -19 hhcurveto
          -38 -46 16 6 -36 hvcurveto
          -5 -5 1 -4 -35 -66 6 callsubr
          158 186 hlineto
          476 48 rmoveto
          -1130 -42 callgsubr
          379 -106 41 callgsubr
          73 callgsubr
          13 14 3 4 13 hvcurveto
          -39 21 45 -39 29 hhcurveto
          -64 callsubr
          76 244 -253 vlineto
          -97 callgsubr
        </CharString>
        <CharString name="dvJH_NA">
          242 685 255 callgsubr
          -858 -42 callgsubr
          384 -106 41 callgsubr
          -69 callgsubr
          -14 32 -21 26 hvcurveto
          -7 25 26 -4 23 hhcurveto
          28 39 9 38 47 hvcurveto
          -162 -255 rlineto
          -6 -10 -6 -12 -11 vvcurveto
          -31 39 -9 35 24 67 6 29 12 -8 6 -9 6 vhcurveto
          -58 39 90 159 rlineto
          -205 vlineto
          342 vmoveto
          -22 -22 -53 -52 -72 hhcurveto
          -50 -42 16 6 -36 hvcurveto
          -5 -5 1 -4 -35 -66 6 callsubr
          158 210 hlineto
          endchar
        </CharString>
        <CharString name="dvJH_R">
          -5 438 -65 rmoveto
          43 -30 200 382 -51 47 rlineto
          -22 -22 -53 -53 -72 hhcurveto
          -50 -42 16 6 -36 hvcurveto
          -5 -5 1 -4 -35 -66 6 callsubr
          158 169 259 callsubr
          -611 -42 callgsubr
          384 -106 41 callgsubr
          -69 callgsubr
          -14 32 -21 26 hvcurveto
          -7 25 26 -4 23 hhcurveto
          35 39 12 35 41 hvcurveto
          endchar
        </CharString>
        <CharString name="dvJH_RA">
          242 438 -65 rmoveto
          43 -30 149 283 rlineto
          -197 vlineto
          55 -41 rlineto
          627 151 260 callgsubr
          -862 -42 callgsubr
          388 -106 41 callgsubr
          51 57 37 41 hhcurveto
          38 31 -28 -40 -90 -129 -43 -82 6 hvcurveto
          53 -40 -38 49 -23 hhcurveto
          -23 -21 -12 -17 -44 65 -49 66 -19 hvcurveto
          161 -187 37 26 -146 153 rlineto
          78 137 55 101 25 -14 32 -21 26 hvcurveto
          -7 25 26 -4 23 hhcurveto
          41 46 17 35 41 hvcurveto
          -155 -13 rmoveto
          -50 -42 16 6 -36 hvcurveto
          -5 -5 1 -4 -35 -66 6 callsubr
          158 210 -243 hlineto
          -28 -22 -50 -47 -75 hhcurveto
          endchar
        </CharString>
        <CharString name="dvJH_YA">
          545 932 296 -107 callsubr
          -517 -158 rmoveto
          158 224 26 callgsubr
          -14 3 -15 5 -14 vhcurveto
          -17 -28 -32 -8 -28 hhcurveto
          -38 -46 16 6 -36 hvcurveto
          -5 -5 1 -4 -35 -66 -38 -47 hhcurveto
          -45 -32 37 52 62 55 24 48 hvcurveto
          894 206 rmoveto
          -1161 -42 callgsubr
          379 -106 41 callgsubr
          73 callgsubr
          26 28 10 12 24 hvcurveto
          -62 41 77 -54 72 -100 callgsubr
        </CharString>
        <CharString name="dvJ_BA">
          520 815 179 29 callgsubr
          -1135 -102 callgsubr
          927 134 callgsubr
          -57 -58 -33 -55 -32 hvcurveto
          -309 -99 callgsubr
          207 hlineto
          -3 -12 -1 -13 -14 100 callgsubr
        </CharString>
        <CharString name="dvJ_DA">
          499 913 390 34 callgsubr
          -1116 -102 callgsubr
          877 147 callgsubr
          -57 -45 -18 -28 -31 hvcurveto
          -360 -99 callgsubr
          241 hlineto
          -11 -23 -5 -25 -26 199 callgsubr
          -38 42 50 -25 54 hhcurveto
          38 37 13 18 31 hvcurveto
          96 -131 -94 callsubr
          -78 -83 77 86 111 67 40 107 vhcurveto
          endchar
        </CharString>
        <CharString name="dvJ_DDA">
          448 892 162 callsubr
          -1061 -102 callgsubr
          856 -122 -163 hlineto
          -54 -39 -25 -36 -19 hvcurveto
          -309 -99 callgsubr
          214 -5 hlineto
          -92 77 -71 58 vhcurveto
          -58 callgsubr
        </CharString>
        <CharString name="dvJ_JA">
          681 1244 625 rmoveto
          -1295 -102 callgsubr
          1087 -183 -317 hlineto
          -80 callsubr
          0 vlineto
          -5 14 rlineto
          -314 -99 callgsubr
          211 hlineto
          -116 40 68 -172 142 -62 callgsubr
        </CharString>
        <CharString name="dvJ_JHA">
          688 1075 320 rmoveto
          -50 -38 -41 -11 -45 -48 -48 23 -38 -35 -66 6 callsubr
          158 179 hlineto
          70 callsubr
          -1303 -102 callgsubr
          860 -106 -160 hlineto
          -59 -48 -31 -46 -16 hvcurveto
          -305 -99 callgsubr
          218 hlineto
          -81 8 73 -66 54 47 callsubr
        </CharString>
        <CharString name="dvJ_J_NYA">
          616 1179 625 rmoveto
          -1231 -102 callgsubr
          1023 -183 -751 -99 callgsubr
          393 hlineto
          40 -40 41 -49 -56 vvcurveto
          -62 -39 -36 -60 -29 -28 13 16 -19 vhcurveto
          34 -13 -33 107 -29 hhcurveto
          -24 -13 -14 -26 -31 40 -49 45 -44 hvcurveto
          2 -2 100 -203 0 vvcurveto
          39 24 -81 141 rlineto
          -7 20 21 -4 24 -62 callgsubr
        </CharString>
        <CharString name="dvJ_J_VA">
          1020 1583 625 rmoveto
          -1635 -102 callgsubr
          1427 -89 callsubr
          -61 -58 -32 -56 -30 hvcurveto
          -310 30 callgsubr
          210 hlineto
          -3 -12 -1 -13 -14 vvcurveto
          -45 callsubr
        </CharString>
        <CharString name="dvJ_J_YA">
          1065 1452 296 -9 callgsubr
          -1680 -102 callgsubr
          1179 hlineto
          -88 callgsubr
          -3 -1 -3 -2 -2 -2 rrcurveto
          24 -30 -48 24 -72 hhcurveto
          -171 30 callgsubr
          120 hlineto
          51 37 -21 -21 24 hvcurveto
          -83 19 104 -93 94 -100 callgsubr
        </CharString>
        <CharString name="dvJ_KA">
          728 903 184 callsubr
          -1342 -102 callgsubr
          867 -104 callsubr
          -54 -49 -24 -40 -27 hvcurveto
          -285 -99 callgsubr
          182 hlineto
          -1 -9 -1 -9 -9 vvcurveto
          -71 callgsubr
          vhcurveto
          -6 -197 56 -41 rlineto
          -99 callsubr
          endchar
        </CharString>
        <CharString name="dvJ_MA">
          527 914 21 callgsubr
          70 callsubr
          -1142 -102 callgsubr
          634 -275 hlineto
          17 -10 -53 75 -128 hhcurveto
          -171 -99 callgsubr
          120 hlineto
          55 38 -25 -22 24 hvcurveto
          -16 -5 -10 -10 -18 9 callsubr
        </CharString>
        <CharString name="dvJ_NA">
          255 642 -9 rmoveto
          56 -41 -26 callgsubr
          -870 -102 callgsubr
          662 -249 hlineto
          47 -43 -69 49 -99 hhcurveto
          -185 hlineto
          105 callgsubr
          97 83 -43 -49 26 hvcurveto
          -244 -239 -78 callgsubr
          159 173 rlineto
          endchar
        </CharString>
        <CharString name="dvJ_NY">
          -95 500 60 callgsubr
          -520 -102 callgsubr
          577 -183 rmoveto
          -331 0 callgsubr
          278 hlineto
          endchar
        </CharString>
        <CharString name="dvJ_NYA">
          156 599 213 callgsubr
          -771 -102 callgsubr
          563 -183 -317 0 callgsubr
          235 -353 hlineto
          endchar
        </CharString>
        <CharString name="dvJ_NY_YA">
          500 887 296 -9 callgsubr
          -1115 -102 callgsubr
          614 164 callgsubr
          -33 -104 -55 vhcurveto
          13 -25 -48 18 -81 hhcurveto
          -166 0 callgsubr
          105 hlineto
          42 30 -7 -8 20 hvcurveto
          -2 vlineto
          -40 callsubr
        </CharString>
        <CharString name="dvJ_R">
          217 callgsubr
          -280 -153 rmoveto
          -7 callgsubr
          79 -43 -49 26 hvcurveto
          -274 -289 43 -30 275 306 rlineto
          48 -29 -79 107 -147 hhcurveto
          endchar
        </CharString>
        <CharString name="dvJ_RA">
          272 385 -7 rmoveto
          43 -30 231 257 rlineto
          -229 vlineto
          56 -41 -26 callgsubr
          -860 -102 callgsubr
          652 -244 hlineto
          47 -43 -69 44 -99 hhcurveto
          -185 hlineto
          -7 callgsubr
          85 -46 -49 26 hvcurveto
          endchar
        </CharString>
        <CharString name="dvJ_TA">
          483 1046 625 rmoveto
          -1098 -102 callgsubr
          890 -187 -618 -99 callgsubr
          237 hlineto
          -20 -24 -11 -31 -37 -26 callsubr
        </CharString>
        <CharString name="dvJ_TTA">
          454 901 390 79 callsubr
          -1069 -102 callgsubr
          865 167 callgsubr
          -60 -43 -18 -28 -31 hvcurveto
          -344 -99 callgsubr
          226 hlineto
          -12 -26 -6 -29 -29 -6 callgsubr
        </CharString>
        <CharString name="dvJ_VA">
          511 1074 625 rmoveto
          -1126 -102 callgsubr
          918 -89 callsubr
          -61 -58 -32 -56 -30 hvcurveto
          -308 -99 callgsubr
          208 hlineto
          -3 -12 -1 -13 -14 vvcurveto
          -45 callsubr
        </CharString>
        <CharString name="dvJ_YA">
          554 941 296 -9 callgsubr
          -1169 -102 callgsubr
          668 210 callgsubr
          23 -30 -47 23 -71 hhcurveto
          -171 -99 callgsubr
          120 hlineto
          47 36 -19 -19 24 hvcurveto
          -83 16 106 -97 96 -100 callgsubr
        </CharString>
        <CharString name="dvJx">
          -47 44 -10 -81 callsubr
          458 541 rmoveto
          -53 callsubr
          -568 -102 callgsubr
          582 -183 rmoveto
          -310 -99 callgsubr
          258 hlineto
          endchar
        </CharString>
        <CharString name="dvJxA">
          182 625 213 callgsubr
          -797 -102 callgsubr
          589 -183 -317 -99 callgsubr
          235 -353 hlineto
          -486 -46 -81 callsubr
          endchar
        </CharString>
        <CharString name="dvJx_JxA">
          680 152 -58 -81 callsubr
          406 -47 -81 callsubr
          593 638 rmoveto
          -1295 -102 callgsubr
          1087 -183 -317 hlineto
          -80 callsubr
          0 vlineto
          -5 14 rlineto
          -314 -99 callgsubr
          211 hlineto
          -116 40 68 -172 142 -62 callgsubr
        </CharString>
        <CharString name="dvJx_R">
          217 callgsubr
          -452 -584 -81 callsubr
          126 385 rmoveto
          -7 callgsubr
          79 -43 -49 26 hvcurveto
          -274 -289 43 -30 275 306 rlineto
          48 -29 -79 107 -147 hhcurveto
          endchar
        </CharString>
        <CharString name="dvJx_RA">
          272 385 -7 rmoveto
          43 -30 231 257 rlineto
          -229 vlineto
          56 -41 -26 callgsubr
          -860 -102 callgsubr
          652 -244 hlineto
          47 -43 -69 44 -99 hhcurveto
          -185 hlineto
          -7 callgsubr
          85 -46 -49 26 hvcurveto
          -621 -279 -81 callsubr
          endchar
        </CharString>
        <CharString name="dvJx_YA">
          557 135 185 callgsubr
          763 307 -9 callgsubr
          -1172 -102 callgsubr
          671 hlineto
          -88 callgsubr
          -3 -1 -2 -2 -2 -1 rrcurveto
          24 -30 -48 23 -72 hhcurveto
          -171 -99 callgsubr
          120 hlineto
          50 37 -21 -20 24 hvcurveto
          -83 18 104 -94 95 -100 callgsubr
        </CharString>
        <CharString name="dvK">
          85 726 348 rmoveto
          179 callsubr
          -700 -107 callgsubr
          72 37 43 46 66 hhcurveto
          53 41 -39 -43 26 hvcurveto
          endchar
        </CharString>
        <CharString name="dvKA">
          5 callgsubr
          endchar
        </CharString>
        <CharString name="dvKH">
          55 650 60 callgsubr
          -670 -75 callgsubr
          140 121 132 128 41 -16 47 -24 31 hvcurveto
          49 -38 -52 26 -63 -92 callgsubr
          262 vlineto
          368 -413 -76 callgsubr
          endchar
        </CharString>
        <CharString name="dvKHA">
          -4 callsubr
          endchar
        </CharString>
        <CharString name="dvKH_KHA">
          870 1224 -63 callgsubr
          -608 262 rmoveto
          554 -244 hlineto
          -43 -22 -18 -34 -43 -16 23 23 -12 vhcurveto
          -7 18 -9 17 -11 14 rrcurveto
          49 -38 -52 26 -63 -92 callgsubr
          368 -151 -76 callgsubr
          817 461 rmoveto
          -1485 -75 callgsubr
          136 118 124 125 7 hvcurveto
          -125 79 102 -124 166 56 callgsubr
        </CharString>
        <CharString name="dvKH_MA">
          634 1021 107 callsubr
          -6 -6 -1 -1 -6 hvcurveto
          -7 26 -11 25 -15 19 rrcurveto
          49 -38 -52 26 -63 -92 callgsubr
          262 473 vlineto
          -105 -413 -76 callgsubr
          581 461 rmoveto
          -1249 -75 callgsubr
          122 107 100 110 26 hvcurveto
          -27 22 31 -22 22 hhcurveto
          -64 callsubr
          76 244 -253 vlineto
          -97 callgsubr
        </CharString>
        <CharString name="dvKH_NA">
          262 857 60 callgsubr
          -875 -56 callsubr
          80 -134 102 -152 176 -11 rlinecurve
          -130 -81 rlineto
          -17 -10 -9 -11 -15 vvcurveto
          -44 89 -25 32 19 16 6 15 2 vhcurveto
          10 -4 6 -4 6 vhcurveto
          0 -1 1 -41 56 vhcurveto
          0 202 127 10 8 vhcurveto
          32 23 29 31 20 34 -6 -130 rcurveline
          56 -45 rlineto
          627 vlineto
          -208 -135 rmoveto
          -92 callsubr
          262 399 vlineto
          -1 -208 rlineto
          48 -38 -51 25 -62 hhcurveto
          121 -278 -76 callgsubr
          endchar
        </CharString>
        <CharString name="dvKH_R">
          -4 callgsubr
          endchar
        </CharString>
        <CharString name="dvKH_RA">
          -16 callgsubr
          endchar
        </CharString>
        <CharString name="dvKH_SHA">
          742 616 38 callgsubr
          229 220 25 callgsubr
          -41 -44 10 58 -34 vhcurveto
          -6 15 -8 13 -9 12 rrcurveto
          49 -38 -52 26 -63 -92 callgsubr
          262 402 99 callgsubr
          -670 -75 callgsubr
          140 121 132 128 hvcurveto
          2 vlineto
          47 -59 90 -112 113 -129 -71 callsubr
        </CharString>
        <CharString name="dvKH_TA">
          594 981 390 -24 callgsubr
        </CharString>
        <CharString name="dvKH_VA">
          623 1010 6 callgsubr
          -74 -70 -47 -80 -21 hvcurveto
          -2 4 -3 4 -3 4 rrcurveto
          49 -38 -52 26 -63 -92 callgsubr
          262 762 vlineto
          -394 -413 -76 callgsubr
          570 461 rmoveto
          -1238 -75 callgsubr
          123 108 102 111 25 hvcurveto
          -56 38 68 -38 67 hhcurveto
          -67 callgsubr
        </CharString>
        <CharString name="dvKH_YA">
          640 1027 296 -107 callsubr
          -411 -413 -76 callgsubr
          -368 413 rmoveto
          486 hlineto
          -88 callgsubr
          -3 -2 -4 7 -4 6 -4 5 rlinecurve
          49 -38 -52 26 -63 -92 callgsubr
          955 310 rmoveto
          -1255 -75 callgsubr
          132 115 117 121 13 hvcurveto
          -55 43 70 -45 65 -100 callgsubr
        </CharString>
        <CharString name="dvKHx">
          55 650 60 callgsubr
          -670 -75 callgsubr
          140 121 132 128 41 -16 47 -24 31 hvcurveto
          49 -38 -52 26 -63 -92 callgsubr
          262 vlineto
          368 -413 -76 callgsubr
          -531 -206 -81 callsubr
          endchar
        </CharString>
        <CharString name="dvKHxA">
          -4 callsubr
          -548 -327 -81 callsubr
          endchar
        </CharString>
        <CharString name="dvKHx_MA">
          634 98 -59 -81 callsubr
          877 312 rmoveto
          -244 278 244 hlineto
          -300 -278 rmoveto
          -22 hlineto
          -6 -6 -1 -1 -6 hvcurveto
          -7 26 -11 25 -15 19 rrcurveto
          49 -38 -52 26 -63 -92 callgsubr
          262 473 vlineto
          -105 -413 -76 callgsubr
          581 461 rmoveto
          -1249 -75 callgsubr
          122 107 100 110 26 hvcurveto
          -27 22 31 -22 22 hhcurveto
          -64 callsubr
          76 244 -253 vlineto
          -97 callgsubr
        </CharString>
        <CharString name="dvKHx_R">
          -4 callgsubr
          -43 -221 -81 callsubr
          endchar
        </CharString>
        <CharString name="dvKHx_RA">
          -16 callgsubr
          -96 -253 -81 callsubr
          endchar
        </CharString>
        <CharString name="dvKHx_SA">
          722 125 -58 -81 callsubr
          940 342 3 callgsubr
          0 vlineto
          -7 20 -10 20 -12 15 rrcurveto
          49 -38 -52 26 -63 -92 callgsubr
          262 549 vlineto
          -181 -413 -76 callgsubr
          669 461 rmoveto
          -1337 -75 callgsubr
          135 116 122 123 9 hvcurveto
          66 -91 74 -88 85 -104 -70 callgsubr
        </CharString>
        <CharString name="dvKHx_SHA">
          742 98 -59 -81 callsubr
          472 177 -76 callgsubr
          229 220 25 callgsubr
          -41 -44 10 58 -34 vhcurveto
          -6 15 -8 13 -9 12 rrcurveto
          49 -38 -52 26 -63 -92 callgsubr
          262 402 99 callgsubr
          -670 -75 callgsubr
          140 121 132 128 hvcurveto
          2 vlineto
          47 -59 90 -112 113 -129 -71 callsubr
        </CharString>
        <CharString name="dvKHx_TA">
          594 99 -59 -81 callsubr
          836 403 -24 callgsubr
        </CharString>
        <CharString name="dvKHx_VA">
          623 97 -59 -81 callsubr
          867 284 -28 callsubr
          -74 -70 -47 -80 -21 hvcurveto
          -2 4 -3 4 -3 4 rrcurveto
          49 -38 -52 26 -63 -92 callgsubr
          262 762 vlineto
          -394 -413 -76 callgsubr
          570 461 rmoveto
          -1238 -75 callgsubr
          123 108 102 111 25 hvcurveto
          -56 38 68 -38 67 hhcurveto
          -67 callgsubr
        </CharString>
        <CharString name="dvKHx_YA">
          640 98 185 callgsubr
          883 307 -107 callsubr
          -411 -413 -76 callgsubr
          -368 413 rmoveto
          486 hlineto
          -88 callgsubr
          -3 -2 -4 7 -4 6 -4 5 rlinecurve
          49 -38 -52 26 -63 -92 callgsubr
          955 310 rmoveto
          -1255 -75 callgsubr
          132 115 117 121 13 hvcurveto
          -55 43 70 -45 65 -100 callgsubr
        </CharString>
        <CharString name="dvK_CA">
          724 1111 259 rmoveto
          182 callgsubr
          -395 hlineto
          -20 hlineto
          -49 -55 -8 -41 -36 hvcurveto
          6 201 rlineto
          672 hlineto
          70 callsubr
          -1339 -107 callgsubr
          55 30 63 34 66 hhcurveto
          9 10 -1 -1 9 hvcurveto
          177 2 97 callgsubr
          -102 116 -92 92 82 51 45 60 47 vhcurveto
          -4 -189 -29 callsubr
        </CharString>
        <CharString name="dvK_DA">
          598 439 577 rmoveto
          515 147 callgsubr
          -63 -47 -21 -33 -32 hvcurveto
          41 -34 -48 29 -57 122 callsubr
          577 14 34 callgsubr
          -1213 -107 callgsubr
          72 37 43 46 66 hhcurveto
          38 32 -20 -27 25 hvcurveto
          -16 -26 -8 -31 -32 199 callgsubr
          -38 42 50 -25 54 hhcurveto
          38 37 13 18 31 hvcurveto
          96 -131 -94 callsubr
          -78 -83 77 86 111 67 40 107 vhcurveto
          endchar
        </CharString>
        <CharString name="dvK_JA">
          804 1191 194 callsubr
          -95 -55 130 97 -34 vhcurveto
          59 -27 -61 69 -73 hhcurveto
          -50 -43 234 callsubr
          752 hlineto
          70 callsubr
          -1419 -107 callgsubr
          72 37 34 46 66 hhcurveto
          53 33 -58 -46 22 hvcurveto
          -111 42 67 -135 126 -62 callgsubr
        </CharString>
        <CharString name="dvK_KA">
          881 1001 265 rmoveto
          -104 callgsubr
          -54 -48 -23 -40 -27 hvcurveto
          36 -34 -45 25 -52 22 callgsubr
          562 hlineto
          56 hmoveto
          419 -46 callgsubr
          -1496 -107 callgsubr
          72 37 43 46 66 hhcurveto
          36 30 -18 -25 24 hvcurveto
          -4 -14 -3 -15 -17 vvcurveto
          -71 callgsubr
          vhcurveto
          -6 -197 56 -41 rlineto
          -99 callsubr
          endchar
        </CharString>
        <CharString name="dvK_KHA">
          898 1252 -63 callgsubr
          -445 262 rmoveto
          391 -244 hlineto
          -43 -22 -18 -34 -24 -22 12 21 -21 vhcurveto
          88 -52 -41 53 -73 hhcurveto
          -37 -45 -28 -42 -26 hvcurveto
          1028 249 rmoveto
          -1513 -107 callgsubr
          50 27 37 58 64 hhcurveto
          59 37 -74 -42 26 hvcurveto
          -137 83 105 -155 186 56 callgsubr
        </CharString>
        <CharString name="dvK_LA">
          768 1155 387 rmoveto
          -37 callgsubr
          -43 -39 -16 -27 -28 hvcurveto
          47 -35 -51 34 -62 22 callgsubr
          716 hlineto
          70 callsubr
          -1383 -107 callgsubr
          72 37 43 46 66 hhcurveto
          42 35 -25 -32 25 hvcurveto
          -17 -25 -10 -30 -34 vvcurveto
          -34 callgsubr
          vhcurveto
          30 21 rlineto
          -96 callsubr
        </CharString>
        <CharString name="dvK_MA">
          661 1048 21 callgsubr
          -609 hmoveto
          309 -274 hlineto
          66 -35 -60 87 -92 122 callsubr
          791 249 rmoveto
          -1276 -107 callgsubr
          72 37 38 46 66 hhcurveto
          62 43 -58 -50 28 hvcurveto
          -21 -3 -13 -10 -21 9 callsubr
        </CharString>
        <CharString name="dvK_NA">
          263 382 254 rmoveto
          -39 -39 -71 -67 -46 hhcurveto
          -63 73 callsubr
          -83 -70 -55 -86 -91 77 -100 85 -23 hvcurveto
          -89 -75 -78 callgsubr
          rlineto
          0 164 146 20 19 vhcurveto
          24 callsubr
          6 201 rlineto
          419 -46 callgsubr
          -878 16 callsubr
          hlineto
          endchar
        </CharString>
        <CharString name="dvK_NNA">
          797 955 330 -21 callgsubr
          -516 hmoveto
          256 -186 hlineto
          39 -34 -46 26 -54 122 callsubr
          927 249 rmoveto
          -1412 -107 callgsubr
          72 37 43 46 66 hhcurveto
          49 38 -33 -39 27 hvcurveto
          7 -38 18 -42 38 -33 rrcurveto
          52 callgsubr
        </CharString>
        <CharString name="dvK_PA">
          603 990 -8 callgsubr
          -551 hmoveto
          250 -179 hlineto
          35 -33 -44 23 -51 122 callsubr
          733 249 rmoveto
          -1218 -107 callgsubr
          72 37 43 46 66 hhcurveto
          45 37 -28 -35 25 hvcurveto
          -90 19 94 -78 70 -10 callsubr
        </CharString>
        <CharString name="dvK_PHA">
          879 982 8 callgsubr
          -543 hmoveto
          251 -180 hlineto
          35 -33 -44 24 235 callgsubr
          604 201 rmoveto
          435 -46 callgsubr
          -1492 -107 callgsubr
          72 37 43 46 66 hhcurveto
          52 40 -37 -42 26 hvcurveto
          -77 30 75 -60 62 hhcurveto
          34 43 16 33 36 hvcurveto
          164 callsubr
          73 38 62 23 -91 callgsubr
          endchar
        </CharString>
        <CharString name="dvK_P_RA">
          595 982 42 callgsubr
          -543 hmoveto
          242 -171 hlineto
          30 -32 -41 20 -47 122 callsubr
          725 249 rmoveto
          -1210 -107 callgsubr
          72 37 43 46 66 hhcurveto
          40 32 -22 -29 25 hvcurveto
          13 -92 95 -99 88 17 -6 callsubr
        </CharString>
        <CharString name="dvK_R">
          84 87 -15 22 callsubr
        </CharString>
        <CharString name="dvK_RA">
          2 callgsubr
          endchar
        </CharString>
        <CharString name="dvK_SA">
          768 1157 62 callgsubr
          78 -54 -46 66 -73 hhcurveto
          -50 -41 234 callsubr
          404 hlineto
          488 48 rmoveto
          -1383 -107 callgsubr
          74 26 53 45 50 hhcurveto
          66 37 -80 -40 25 hvcurveto
          30 callsubr
        </CharString>
        <CharString name="dvK_SHA">
          796 899 384 25 callgsubr
          -43 -38 20 25 -28 vhcurveto
          69 -48 -62 80 -73 hhcurveto
          -50 -43 -35 -42 -26 hvcurveto
          6 201 rlineto
          241 -46 callgsubr
          -700 -107 callgsubr
          77 26 55 39 46 hhcurveto
          51 41 -46 -69 54 hvcurveto
          0 vlineto
          25 -33 108 -138 147 -168 -71 callsubr
        </CharString>
        <CharString name="dvK_SS">
          -59 571 400 rmoveto
          -57 -58 -46 -16 -55 hhcurveto
          -48 -43 17 20 -36 -78 callsubr
          -29 50 80 -32 71 hhcurveto
          27 58 9 56 58 hvcurveto
          -261 173 rmoveto
          -55 -72 -47 -34 -23 vhcurveto
          -44 30 -31 27 45 vvcurveto
          54 45 41 54 59 23 -38 -34 vhcurveto
          194 56 rmoveto
          -53 callsubr
          -84 -102 callgsubr
          endchar
        </CharString>
        <CharString name="dvK_SSA">
          154 717 625 rmoveto
          -297 -102 callgsubr
          89 -209 hlineto
          -25 -28 -46 -16 -55 hhcurveto
          -48 -43 17 20 -36 -78 callsubr
          -29 50 80 -32 71 hhcurveto
          27 31 8 12 23 hvcurveto
          -312 vlineto
          233 callsubr
          -489 16 rmoveto
          59 23 -38 -34 -55 -72 -47 -34 -23 hvcurveto
          -44 30 -31 27 45 vvcurveto
          54 45 41 54 vhcurveto
          endchar
        </CharString>
        <CharString name="dvK_SS_MA">
          512 899 21 callgsubr
          -663 -181 53 callgsubr
          839 229 rmoveto
          -655 -27 callsubr
          -21 -16 -5 -13 -6 hvcurveto
          -2 -10 -10 -1 -10 hhcurveto
          -73 -87 41 45 -59 -78 callsubr
          -55 65 104 -56 90 hhcurveto
          7 6 0 1 6 hvcurveto
          -42 18 49 -43 31 hhcurveto
          -64 callsubr
          76 244 -253 vlineto
          -97 callgsubr
        </CharString>
        <CharString name="dvK_SS_M_YA">
          819 1206 296 -107 callsubr
          -579 199 callsubr
          286 vlineto
          -57 callsubr
          -592 97 53 callgsubr
          1146 229 rmoveto
          -990 -27 callsubr
          -22 -16 -6 -15 -7 hvcurveto
          0 vlineto
          -73 -87 41 45 -59 -78 callsubr
          63 -53 99 -54 88 -4 rrcurveto
          -42 19 48 -46 31 250 callsubr
          225 vlineto
          -63 41 78 -56 73 -100 callgsubr
        </CharString>
        <CharString name="dvK_SS_VA">
          516 236 396 53 callgsubr
          843 229 rmoveto
          -659 -102 callgsubr
          451 -89 callsubr
          -61 -59 -32 -57 -30 hvcurveto
          -51 -55 -44 -15 -53 hhcurveto
          -48 -43 17 20 -36 -78 callsubr
          -29 50 80 -32 71 hhcurveto
          17 31 4 18 35 hvcurveto
          -45 callsubr
        </CharString>
        <CharString name="dvK_SS_YA">
          519 906 296 -107 callsubr
          -670 -181 53 callgsubr
          846 229 rmoveto
          220 callgsubr
          -26 -23 -33 -104 -55 vhcurveto
          -24 -53 -47 -9 -42 hhcurveto
          -54 -46 15 19 -38 -78 callsubr
          -33 59 66 -24 68 hhcurveto
          25 25 3 8 26 hvcurveto
          -82 21 102 -90 93 -100 callgsubr
        </CharString>
        <CharString name="dvK_S_DDA">
          1032 897 577 rmoveto
          525 -122 252 callsubr
          -52 -64 -10 1 -9 1 -9 hvcurveto
          -14 -21 -33 -17 -52 -50 callsubr
          -54 1 13 callsubr
          635 -174 139 callsubr
          -1647 -107 callgsubr
          74 26 53 45 50 hhcurveto
          66 37 -80 -40 25 hvcurveto
          13 callgsubr
          28 36 11 21 28 hvcurveto
          -50 27 48 -33 40 -58 callgsubr
        </CharString>
        <CharString name="dvK_S_P_LA">
          1501 1888 387 rmoveto
          -37 callgsubr
          -84 -70 -63 -85 -5 hvcurveto
          -14 -14 -39 -31 -56 -11 callsubr
          706 vlineto
          -991 hmoveto
          229 186 callgsubr
          -15 -21 -34 -18 -54 -50 callsubr
          -54 1 13 callsubr
          1221 48 rmoveto
          -2116 -107 callgsubr
          74 26 53 45 50 hhcurveto
          66 37 -80 -40 25 hvcurveto
          13 callgsubr
          31 42 14 26 29 hvcurveto
          -54 38 61 -38 49 hhcurveto
          30 32 14 17 25 hvcurveto
          24 -99 82 -91 77 -66 30 21 rcurveline
          -96 callsubr
        </CharString>
        <CharString name="dvK_S_P_RA">
          1040 1427 42 callgsubr
          -530 hmoveto
          229 186 callgsubr
          -15 -22 -33 -18 -54 -50 callsubr
          -54 1 13 callsubr
          760 48 rmoveto
          -1655 -107 callgsubr
          74 26 53 45 50 hhcurveto
          66 37 -80 -40 25 hvcurveto
          13 callgsubr
          30 42 14 25 29 hvcurveto
          39 -56 62 -40 59 11 -6 callsubr
        </CharString>
        <CharString name="dvK_S_TA">
          1066 1453 390 rmoveto
          -166 hlineto
          -77 -52 -30 -49 -22 hvcurveto
          -15 -22 -33 -16 -51 -11 callgsubr
          556 vlineto
          -610 -239 13 callsubr
          786 48 rmoveto
          -1681 -107 callgsubr
          74 26 53 45 50 hhcurveto
          66 37 -80 -40 25 hvcurveto
          13 callgsubr
          18 22 5 9 21 hvcurveto
          3 -92 52 -101 74 -98 26 callsubr
        </CharString>
        <CharString name="dvK_S_TTA">
          1029 897 577 rmoveto
          523 167 callgsubr
          -112 -57 -64 -74 -15 hvcurveto
          -12 -21 -29 -10 -41 -50 callsubr
          -54 1 13 callsubr
          633 -187 79 callsubr
          -1644 -107 callgsubr
          74 26 53 45 50 hhcurveto
          66 37 -80 -40 25 hvcurveto
          13 callgsubr
          17 20 4 8 19 hvcurveto
          -121 14 127 -104 120 90 callgsubr
        </CharString>
        <CharString name="dvK_TA">
          298 861 625 rmoveto
          -916 -102 callgsubr
          421 -187 -433 hlineto
          32 -50 rlineto
          114 hlineto
          -31 -19 -12 -37 139 callgsubr
          37 45 92 vhcurveto
          154 -349 hlineto
          56 -41 rlineto
          316 vlineto
          42 36 66 33 55 hhcurveto
          92 43 -88 -77 -94 -61 -37 -70 -20 -21 3 6 -21 hvcurveto
          19 -50 rlineto
          -6 19 19 -2 19 hhcurveto
          88 76 60 95 104 -81 135 -123 -39 -61 -23 -29 -35 hvcurveto
          239 439 vlineto
          endchar
        </CharString>
        <CharString name="dvK_THA">
          689 1252 625 rmoveto
          -291 -102 callgsubr
          83 -271 hlineto
          -46 -26 -98 -87 -82 -95 callsubr
          -68 -128 -58 -62 -34 vhcurveto
          56 -34 -57 45 -70 210 callsubr
          -700 -107 callgsubr
          72 37 43 46 66 hhcurveto
          47 38 -31 -37 26 hvcurveto
          -9 -9 -4 -9 -9 169 callgsubr
        </CharString>
        <CharString name="dvK_TTA">
          559 439 577 rmoveto
          511 167 callgsubr
          -63 -45 -20 -30 -30 hvcurveto
          39 -34 -47 27 -55 122 callsubr
          573 14 79 callsubr
          -1174 -107 callgsubr
          72 37 43 46 66 hhcurveto
          36 30 -18 -25 24 hvcurveto
          -19 -30 -9 -37 -36 -6 callgsubr
        </CharString>
        <CharString name="dvK_T_RA">
          605 992 332 rmoveto
          103 -80 -65 32 -61 hhcurveto
          -43 -42 -8 -31 -47 hvcurveto
          18 -27 -31 10 -35 22 callgsubr
          553 hlineto
          164 48 rmoveto
          -1208 -107 callgsubr
          72 37 43 46 66 hhcurveto
          35 23 -11 -24 24 hvcurveto
          32 45 43 20 143 callgsubr
        </CharString>
        <CharString name="dvK_T_VA">
          937 1324 137 callgsubr
          -33 -57 -30 hvcurveto
          -1 1 rlineto
          -184 hlineto
          -36 -30 -7 -12 -25 hvcurveto
          47 -35 -51 35 -62 22 callgsubr
          885 hlineto
          70 callsubr
          -1552 -107 callgsubr
          72 37 43 46 66 hhcurveto
          39 33 -22 -28 25 hvcurveto
          -30 -26 -16 -37 -45 183 callgsubr
          154 hlineto
          -1 -9 -1 -9 -10 vvcurveto
          -45 callsubr
        </CharString>
        <CharString name="dvK_T_YA">
          979 1366 296 -107 callsubr
          -545 -184 rmoveto
          -43 -36 -10 -18 -27 hvcurveto
          52 -34 -54 39 -66 22 callgsubr
          634 hlineto
          -88 callgsubr
          -2 -1 rlineto
          29 -31 -31 14 -39 hhcurveto
          643 232 rmoveto
          -1594 -107 callgsubr
          72 37 43 46 66 hhcurveto
          44 36 -27 -35 26 hvcurveto
          -22 -24 -12 -34 -38 183 callgsubr
          86 hlineto
          27 22 -10 -13 17 hvcurveto
          -84 13 109 -100 97 -100 callgsubr
        </CharString>
        <CharString name="dvK_VA">
          654 1041 6 callgsubr
          -63 -61 -35 -60 -29 hvcurveto
          41 -34 -48 28 -56 22 callgsubr
          602 hlineto
          70 callsubr
          -1269 -107 callgsubr
          72 37 43 46 66 hhcurveto
          42 34 -24 -31 25 hvcurveto
          -3 -14 -2 -16 -16 vvcurveto
          -45 callsubr
        </CharString>
        <CharString name="dvK_V_YA">
          975 1362 296 -107 callsubr
          -373 -162 rmoveto
          23 -24 -45 44 -74 hhcurveto
          -62 -59 -33 -58 -30 hvcurveto
          39 -34 -46 26 -54 22 callgsubr
          630 -39 callsubr
          -27 11 -29 18 -28 vhcurveto
          -66 -58 -51 -26 -42 hhcurveto
          -89 -46 70 65 72 50 76 96 50 33 -26 -21 18 hvcurveto
          568 238 rmoveto
          -1590 -107 callgsubr
          72 37 43 46 66 hhcurveto
          39 33 -21 -29 25 hvcurveto
          -5 -16 -2 -17 -18 vvcurveto
          114 callgsubr
          62 68 52 42 33 vhcurveto
          -43 43 58 -32 55 -100 callgsubr
        </CharString>
</ttFont>
